<svg width="307" height="55" viewBox="0 0 307 55" fill="none" xmlns="http://www.w3.org/2000/svg">
<rect y="0.980469" width="306.24" height="53.7931" rx="14" fill="#1C6BA4"/>
<path d="M132.162 27.795H137.412V29.013H132.162V27.795ZM132.162 30.007H137.412V31.239H132.162V30.007ZM132.134 32.219H138.056V33.605H132.134V32.219ZM130.076 22.293H137.986V24.855H136.502V23.707H131.504V24.855H130.076V22.293ZM134.066 26.619H135.606V32.877H134.066V26.619ZM132.68 25.457H137.72V26.857H132.68V34.151H131.112V26.913L132.526 25.457H132.68ZM133.422 20.977L135.018 21.271C134.262 24.309 132.862 26.731 130.804 28.243C130.58 27.921 130.006 27.263 129.67 26.983C131.588 25.723 132.834 23.595 133.422 20.977ZM134.92 24.043L136.474 24.365C136.11 25.135 135.732 25.891 135.424 26.409L134.164 26.087C134.444 25.513 134.766 24.659 134.92 24.043ZM125.148 21.817H130.202V23.343H125.148V21.817ZM126.73 25.933H129.978V32.457H126.73V31.015H128.564V27.389H126.73V25.933ZM126.59 22.629L128.172 22.881C127.752 25.905 126.996 28.873 125.568 30.777C125.414 30.385 124.966 29.531 124.672 29.153C125.764 27.613 126.31 25.191 126.59 22.629ZM126.072 25.933H127.43V33.535H126.072V25.933ZM147.282 22.111H148.794C148.528 24.393 147.912 26.703 145.336 28.061C145.154 27.683 144.72 27.137 144.384 26.871C146.652 25.793 147.072 23.861 147.282 22.111ZM144.86 24.505L145.644 23.343C147.03 23.763 148.668 24.533 149.606 25.135L148.808 26.423C147.898 25.765 146.232 24.939 144.86 24.505ZM150.474 21.537H152.042C152.042 21.537 152.042 21.957 152.028 22.153C151.888 25.345 151.748 26.661 151.37 27.109C151.104 27.459 150.838 27.585 150.432 27.641C150.096 27.697 149.522 27.697 148.906 27.683C148.892 27.221 148.724 26.591 148.5 26.185C148.976 26.227 149.396 26.227 149.606 26.227C149.788 26.241 149.914 26.199 150.026 26.059C150.25 25.793 150.376 24.729 150.474 21.789V21.537ZM146.4 29.083H147.94V32.149C147.94 32.541 147.968 32.583 148.234 32.583C148.36 32.583 148.822 32.583 148.962 32.583C149.228 32.583 149.284 32.415 149.326 31.113C149.62 31.365 150.278 31.603 150.698 31.715C150.544 33.563 150.138 34.039 149.13 34.039C148.878 34.039 148.234 34.039 147.968 34.039C146.666 34.039 146.4 33.577 146.4 32.177V29.083ZM144.972 29.629L146.288 29.979C146.162 31.239 145.896 32.569 145.224 33.395L143.992 32.639C144.566 31.939 144.846 30.777 144.972 29.629ZM146.708 28.117L147.674 27.151C148.57 27.599 149.676 28.327 150.194 28.915L149.158 30.007C148.668 29.433 147.604 28.635 146.708 28.117ZM149.802 29.853L151.16 29.307C151.888 30.371 152.504 31.799 152.686 32.793L151.216 33.395C151.062 32.415 150.488 30.931 149.802 29.853ZM145.042 21.537H151.188V22.937H145.042V21.537ZM139.96 25.289H144.062V26.549H139.96V25.289ZM140.002 21.425H144.02V22.699H140.002V21.425ZM139.96 27.193H144.062V28.467H139.96V27.193ZM139.316 23.315H144.44V24.645H139.316V23.315ZM140.688 29.139H144.076V33.395H140.688V32.065H142.676V30.469H140.688V29.139ZM139.932 29.139H141.304V33.955H139.932V29.139ZM158.23 24.015H166.882V25.723H158.23V24.015ZM163.592 21.145H165.328V32.107C165.328 33.171 165.076 33.619 164.404 33.871C163.718 34.137 162.654 34.165 161.1 34.151C161.016 33.689 160.708 32.933 160.456 32.485C161.548 32.541 162.766 32.541 163.102 32.527C163.452 32.513 163.592 32.415 163.592 32.093V21.145ZM158.86 27.417L160.344 26.717C160.974 27.739 161.856 29.125 162.276 29.979L160.68 30.791C160.316 29.937 159.49 28.495 158.86 27.417ZM155.654 25.107L157.348 23.413L157.362 23.441V34.109H155.654V25.107ZM157.054 21.061L158.706 21.593C157.768 24.029 156.256 26.591 154.674 28.201C154.492 27.781 153.988 26.857 153.68 26.437C155.024 25.163 156.298 23.119 157.054 21.061ZM168.352 22.111H174.918V23.483H168.352V22.111ZM168.156 28.229H175.072V29.601H168.156V28.229ZM168.688 24.197H174.596V25.555H168.688V24.197ZM168.772 26.213H174.526V27.571H168.772V26.213ZM170.886 28.817H172.44V32.569C172.44 33.255 172.342 33.661 171.88 33.899C171.446 34.123 170.872 34.151 170.102 34.151C170.046 33.717 169.836 33.115 169.654 32.709C170.088 32.723 170.55 32.723 170.69 32.709C170.844 32.709 170.886 32.667 170.886 32.541V28.817ZM170.858 21.075H172.44V25.079H170.858V21.075ZM169.01 29.853L170.396 30.105C170.172 31.295 169.724 32.471 169.206 33.241C168.912 33.031 168.282 32.737 167.932 32.611C168.478 31.925 168.828 30.875 169.01 29.853ZM172.832 30.315L174.078 29.839C174.428 30.455 174.792 31.281 174.918 31.813L173.616 32.373C173.49 31.841 173.154 30.973 172.832 30.315ZM176.178 23.525H180.14V25.051H176.178V23.525ZM177.872 24.113H178.67V26.521C178.67 27.907 179.188 30.987 181.456 32.667C181.162 33.045 180.686 33.731 180.448 34.137C178.81 32.961 178.04 30.553 177.858 29.349C177.676 30.595 176.78 32.891 174.918 34.137C174.75 33.773 174.274 33.059 173.98 32.751C176.528 31.043 177.046 27.935 177.046 26.521V24.113H177.872ZM175.87 20.963L177.55 21.215C177.228 23.763 176.584 26.227 175.59 27.795C175.31 27.515 174.582 26.983 174.19 26.745C175.114 25.401 175.632 23.203 175.87 20.963ZM179.678 23.525H179.902L180.154 23.469L181.26 23.749C181.092 25.107 180.826 26.675 180.56 27.697L179.244 27.319C179.412 26.409 179.58 24.925 179.678 23.777V23.525Z" fill="white"/>
</svg>
