<svg width="307" height="55" viewBox="0 0 307 55" fill="none" xmlns="http://www.w3.org/2000/svg">
<rect y="0.783203" width="306.24" height="53.7931" rx="14" fill="white"/>
<path d="M60.3025 21.3817H64.7685V22.8377H60.3025V21.3817ZM59.9805 25.8897H65.3005V27.3737H59.9805V25.8897ZM62.0665 26.7017H63.6765V32.1477C63.6765 32.9177 63.5505 33.3657 63.0185 33.6177C62.5145 33.8837 61.8145 33.9117 60.8625 33.9117C60.8065 33.4357 60.5825 32.7497 60.3585 32.3017C60.9605 32.3157 61.6185 32.3157 61.8145 32.3157C62.0105 32.3157 62.0665 32.2737 62.0665 32.1057V26.7017ZM64.2645 21.3817H64.6145L64.9225 21.2977L65.9445 22.0257C65.2585 23.1317 64.2645 24.4057 63.3685 25.2037C63.1445 24.9097 62.7105 24.4477 62.4305 24.2097C63.1305 23.5517 63.9145 22.4317 64.2645 21.6897V21.3817ZM64.8105 25.8897H65.0205L65.2445 25.8337L66.2805 26.0717C65.9865 27.2477 65.5945 28.5637 65.2865 29.4037L64.0405 29.1237C64.2925 28.3677 64.6145 27.1077 64.8105 26.0857V25.8897ZM60.5545 24.4197L61.3945 23.3137C62.5425 23.8457 64.0265 24.6997 64.7405 25.3717L63.8305 26.6177C63.1585 25.9177 61.7165 24.9937 60.5545 24.4197ZM65.8745 21.3397H73.0425V22.7537H65.8745V21.3397ZM67.8905 26.9537V27.8497H71.0125V26.9537H67.8905ZM67.8905 28.9977V29.8937H71.0125V28.9977H67.8905ZM67.8905 24.9237V25.8057H71.0125V24.9237H67.8905ZM66.3505 23.6917H72.6225V31.1257H66.3505V23.6917ZM68.6045 22.1097L70.5225 22.3197C70.2565 23.2017 69.9625 24.0837 69.7245 24.6857L68.2685 24.4197C68.4085 23.7477 68.5625 22.7957 68.6045 22.1097ZM67.7225 31.1397L69.0945 32.0357C68.3245 32.7777 66.9945 33.5617 65.9025 33.9817C65.6365 33.6737 65.1465 33.1697 64.7825 32.8897C65.8745 32.4977 67.1065 31.7417 67.7225 31.1397ZM69.7525 32.0777L70.9985 31.2377C71.7825 31.7417 72.8465 32.5117 73.3925 33.0437L72.0765 33.9817C71.5865 33.4637 70.5505 32.6377 69.7525 32.0777ZM80.9385 27.1357L82.2825 26.4497C83.0105 27.4157 83.8085 28.7177 84.1165 29.6137L82.6465 30.3697C82.3945 29.5017 81.6525 28.1437 80.9385 27.1357ZM81.4005 23.1737H86.4265V24.7557H81.4005V23.1737ZM85.7125 23.1737H87.3365C87.3365 23.1737 87.3365 23.7337 87.3225 23.9437C87.1125 30.1177 86.9305 32.3437 86.3425 33.0857C85.9505 33.6177 85.5725 33.7717 84.9845 33.8697C84.4665 33.9397 83.6125 33.9397 82.7865 33.8977C82.7585 33.4217 82.5345 32.6937 82.2265 32.2177C83.1085 32.2877 83.9205 32.2877 84.2845 32.2877C84.5645 32.2877 84.7325 32.2457 84.8865 32.0497C85.3485 31.5737 85.5445 29.2077 85.7125 23.5097V23.1737ZM81.4845 20.7797L83.2205 21.1577C82.6325 23.2437 81.6665 25.3017 80.6025 26.5757C80.2665 26.2957 79.5245 25.7917 79.1045 25.5537C80.1685 24.4477 81.0225 22.6137 81.4845 20.7797ZM76.5565 20.8077L78.0405 21.3257C77.4665 22.4177 76.8085 23.6637 76.2625 24.4337L75.1285 23.9717C75.6325 23.1317 76.2345 21.7877 76.5565 20.8077ZM78.2365 22.4597L79.6505 23.0477C78.6145 24.6577 77.2425 26.6037 76.1645 27.7937L75.1425 27.2757C76.2205 26.0157 77.4945 23.9577 78.2365 22.4597ZM74.4005 24.1257L75.1845 22.9637C75.9405 23.6077 76.8085 24.5037 77.1725 25.1197L76.3185 26.4357C75.9685 25.7637 75.1145 24.7977 74.4005 24.1257ZM77.8865 25.8337L79.0765 25.3157C79.6365 26.2537 80.1965 27.4717 80.3785 28.2837L79.1045 28.8717C78.9365 28.0737 78.4185 26.7997 77.8865 25.8337ZM74.3865 26.9677C75.6885 26.9257 77.6205 26.8417 79.4965 26.7437V28.0737C77.7325 28.2137 75.9125 28.3397 74.5265 28.4237L74.3865 26.9677ZM78.1385 29.3477L79.3705 28.9417C79.7345 29.7817 80.1125 30.8737 80.2805 31.5877L78.9645 32.0637C78.8385 31.3357 78.4745 30.2017 78.1385 29.3477ZM74.9885 29.0257L76.3745 29.2637C76.2345 30.6077 75.9265 32.0077 75.5205 32.9037C75.2265 32.7217 74.5965 32.4277 74.2465 32.2877C74.6525 31.4617 74.8765 30.2157 74.9885 29.0257ZM76.6125 27.7097H78.1105V33.9537H76.6125V27.7097ZM100.707 27.7657L102.051 28.7737C101.225 29.4597 100.343 30.2017 99.6565 30.6637L98.6625 29.8517C99.3065 29.3197 100.203 28.4237 100.707 27.7657ZM97.2765 20.7657L99.1805 21.0597C98.7745 21.8297 98.3125 22.5997 97.9485 23.1037L96.5205 22.7817C96.8005 22.1937 97.1225 21.3817 97.2765 20.7657ZM96.1005 25.4137V26.1417H99.8525V25.4137H96.1005ZM96.1005 23.4677V24.2097H99.8525V23.4677H96.1005ZM94.5885 22.1797H101.449V27.4437H94.5885V22.1797ZM97.2905 26.8697H98.7885V32.3437C98.7885 33.0577 98.6905 33.4497 98.2425 33.6877C97.7805 33.9117 97.1785 33.9397 96.3245 33.9397C96.2825 33.5197 96.1005 32.9177 95.9185 32.4977C96.4085 32.5117 96.9265 32.5117 97.0805 32.5117C97.2485 32.5117 97.2905 32.4697 97.2905 32.3297V26.8697ZM94.2245 28.3817H96.2405V29.7537H94.2245V28.3817ZM95.9185 28.3817H96.2125L96.4645 28.3397L97.3605 28.7037C96.8705 30.9717 95.8065 32.5397 94.4485 33.3797C94.2385 33.0577 93.7205 32.4837 93.4125 32.2597C94.6445 31.5737 95.5685 30.2997 95.9185 28.6057V28.3817ZM98.6485 26.9257C99.0545 28.7737 100.035 31.0277 102.261 32.0077C101.953 32.3157 101.463 32.9457 101.253 33.3657C99.1245 32.1757 98.1305 29.6277 97.7385 27.8217L98.6485 26.9257ZM90.9625 20.8077L92.4185 21.3117C91.8445 22.4037 91.2005 23.6497 90.6685 24.4337L89.5485 23.9717C90.0385 23.1317 90.6405 21.7737 90.9625 20.8077ZM92.5445 22.4597L93.9025 23.0897C92.8805 24.6577 91.5225 26.6037 90.4445 27.8077L89.4785 27.2617C90.5285 26.0017 91.8025 23.9577 92.5445 22.4597ZM88.7925 24.0697L89.6185 22.9497C90.3465 23.6077 91.2005 24.5177 91.5365 25.1757L90.6265 26.4637C90.3185 25.7777 89.4925 24.7837 88.7925 24.0697ZM92.0685 25.8197L93.2305 25.3297C93.7905 26.2817 94.3225 27.5137 94.4905 28.3117L93.2305 28.8857C93.0765 28.0737 92.5865 26.7857 92.0685 25.8197ZM88.7505 26.9397C90.0105 26.8697 91.8165 26.7717 93.5665 26.6597L93.5805 28.0317C91.9425 28.1577 90.2345 28.2837 88.9325 28.3817L88.7505 26.9397ZM92.4465 29.3337L93.6225 28.9697C93.9445 29.7397 94.2245 30.7197 94.3085 31.3777L93.0625 31.7697C93.0205 31.1257 92.7545 30.1037 92.4465 29.3337ZM89.3525 29.0257L90.6965 29.2497C90.5565 30.5937 90.2625 31.9797 89.8565 32.8757C89.5765 32.6937 88.9605 32.4277 88.6385 32.2877C89.0305 31.4617 89.2405 30.2017 89.3525 29.0257ZM90.8925 27.6817H92.3345V33.9397H90.8925V27.6817ZM109.471 24.9937H115.295V26.6877H109.471V24.9937ZM103.479 31.5597H116.275V33.2537H103.479V31.5597ZM108.519 20.9617H110.325V32.4977H108.519V20.9617ZM122.365 25.7917C123.051 25.5257 124.003 25.0637 124.997 24.5877L125.347 25.7777C124.577 26.2257 123.737 26.6737 123.009 27.0517L122.365 25.7917ZM122.631 21.9417L123.653 21.1437C124.241 21.6057 124.899 22.2777 125.193 22.7817L124.101 23.6637C123.821 23.1597 123.191 22.4457 122.631 21.9417ZM125.949 22.1517H129.967V23.4817H125.949V22.1517ZM124.339 31.8677H128.959V33.3517H124.339V31.8677ZM123.569 28.5077H129.855V33.9117H128.203V29.9777H125.137V33.9537H123.569V28.5077ZM126.019 20.7797L127.475 21.0877C127.097 22.6277 126.439 24.1397 125.655 25.0917C125.375 24.8537 124.773 24.4337 124.423 24.2377C125.179 23.4117 125.725 22.0957 126.019 20.7797ZM129.533 22.1517H129.729L129.953 22.1237L130.947 22.3057C130.737 23.2297 130.457 24.2797 130.219 24.9517L129.015 24.7137C129.183 24.1117 129.407 23.1177 129.533 22.3337V22.1517ZM127.727 22.6697H128.511V24.1957C128.511 24.8817 128.875 26.2817 131.045 27.0517C130.779 27.3877 130.387 27.9337 130.177 28.2977C128.735 27.8077 127.937 26.5617 127.713 25.8337C127.489 26.5617 126.579 27.7517 124.997 28.2837C124.829 27.9477 124.465 27.4017 124.185 27.1077C126.481 26.3097 126.901 24.8677 126.901 24.2097V22.6697H127.727ZM118.333 25.0917H122.239V26.3517H118.333V25.0917ZM118.417 21.2277H122.197V22.5017H118.417V21.2277ZM118.333 26.9957H122.239V28.2697H118.333V26.9957ZM117.703 23.1177H122.701V24.4477H117.703V23.1177ZM119.103 28.9417H122.267V33.1697H119.103V31.8537H120.895V30.2577H119.103V28.9417ZM118.291 28.9417H119.663V33.7577H118.291V28.9417ZM138.731 27.5977H141.517V28.8017H138.731V27.5977ZM138.899 22.8517H143.953V24.3917H138.899V22.8517ZM138.899 25.4837H142.301V30.9717H138.899V29.6977H140.887V26.7577H138.899V25.4837ZM137.975 25.4837H139.389V31.6017H137.975V25.4837ZM143.421 22.8517H145.017C145.017 22.8517 145.017 23.4257 145.017 23.6357C144.905 30.1317 144.807 32.3577 144.289 33.0857C143.925 33.6177 143.561 33.7857 143.001 33.8697C142.483 33.9537 141.657 33.9397 140.859 33.8977C140.831 33.4637 140.621 32.7637 140.341 32.3297C141.181 32.3857 141.923 32.3857 142.287 32.3857C142.539 32.3857 142.693 32.3437 142.847 32.1477C143.239 31.6857 143.337 29.2637 143.421 23.2017V22.8517ZM138.997 20.7797L140.691 21.1717C140.089 23.2577 139.067 25.2877 137.919 26.5757C137.625 26.2677 136.925 25.6937 136.533 25.4277C137.639 24.3497 138.521 22.5717 138.997 20.7797ZM132.767 25.0917H136.869V26.3517H132.767V25.0917ZM132.809 21.2277H136.827V22.5017H132.809V21.2277ZM132.767 26.9957H136.869V28.2697H132.767V26.9957ZM132.123 23.1177H137.233V24.4477H132.123V23.1177ZM133.495 28.9417H136.883V33.1977H133.495V31.8677H135.483V30.2717H133.495V28.9417ZM132.739 28.9417H134.111V33.7577H132.739V28.9417ZM151.408 32.6797V22.8097H152.752L158.058 29.6977V22.8097H159.724V32.6797H158.394L153.074 25.7637V32.6797H151.408ZM164.681 32.6797V24.3077H161.293V22.8097H169.861V24.3077H166.473V32.6797H164.681ZM171.458 32.6797V31.3497L174.65 27.9477C175.079 27.481 175.387 27.0704 175.574 26.7157C175.761 26.3517 175.854 25.983 175.854 25.6097C175.854 24.6577 175.28 24.1817 174.132 24.1817C173.236 24.1817 172.41 24.5177 171.654 25.1897L171.052 23.8457C171.444 23.491 171.934 23.2064 172.522 22.9917C173.11 22.777 173.721 22.6697 174.356 22.6697C175.411 22.6697 176.218 22.9077 176.778 23.3837C177.347 23.8597 177.632 24.541 177.632 25.4277C177.632 26.025 177.487 26.599 177.198 27.1497C176.918 27.7004 176.475 28.293 175.868 28.9277L173.698 31.1957H178.01V32.6797H171.458ZM183.352 32.8197C182.186 32.8197 181.294 32.381 180.678 31.5037C180.062 30.617 179.754 29.357 179.754 27.7237C179.754 26.0717 180.062 24.8164 180.678 23.9577C181.294 23.099 182.186 22.6697 183.352 22.6697C184.528 22.6697 185.42 23.099 186.026 23.9577C186.642 24.8164 186.95 26.067 186.95 27.7097C186.95 29.3524 186.642 30.617 186.026 31.5037C185.41 32.381 184.519 32.8197 183.352 32.8197ZM183.352 31.3497C183.987 31.3497 184.454 31.0604 184.752 30.4817C185.06 29.8937 185.214 28.9697 185.214 27.7097C185.214 26.459 185.06 25.5537 184.752 24.9937C184.454 24.4244 183.987 24.1397 183.352 24.1397C182.727 24.1397 182.26 24.4244 181.952 24.9937C181.644 25.5537 181.49 26.459 181.49 27.7097C181.49 28.9697 181.644 29.8937 181.952 30.4817C182.26 31.0604 182.727 31.3497 183.352 31.3497ZM192.167 32.8197C191 32.8197 190.109 32.381 189.493 31.5037C188.877 30.617 188.569 29.357 188.569 27.7237C188.569 26.0717 188.877 24.8164 189.493 23.9577C190.109 23.099 191 22.6697 192.167 22.6697C193.343 22.6697 194.234 23.099 194.841 23.9577C195.457 24.8164 195.765 26.067 195.765 27.7097C195.765 29.3524 195.457 30.617 194.841 31.5037C194.225 32.381 193.334 32.8197 192.167 32.8197ZM192.167 31.3497C192.802 31.3497 193.268 31.0604 193.567 30.4817C193.875 29.8937 194.029 28.9697 194.029 27.7097C194.029 26.459 193.875 25.5537 193.567 24.9937C193.268 24.4244 192.802 24.1397 192.167 24.1397C191.542 24.1397 191.075 24.4244 190.767 24.9937C190.459 25.5537 190.305 26.459 190.305 27.7097C190.305 28.9697 190.459 29.8937 190.767 30.4817C191.075 31.0604 191.542 31.3497 192.167 31.3497ZM197.818 33.6737L196.502 33.2817L200.128 22.0397L201.444 22.4317L197.818 33.6737ZM202.71 32.6797V31.3497L205.902 27.9477C206.332 27.481 206.64 27.0704 206.826 26.7157C207.013 26.3517 207.106 25.983 207.106 25.6097C207.106 24.6577 206.532 24.1817 205.384 24.1817C204.488 24.1817 203.662 24.5177 202.906 25.1897L202.304 23.8457C202.696 23.491 203.186 23.2064 203.774 22.9917C204.362 22.777 204.974 22.6697 205.608 22.6697C206.663 22.6697 207.47 22.9077 208.03 23.3837C208.6 23.8597 208.884 24.541 208.884 25.4277C208.884 26.025 208.74 26.599 208.45 27.1497C208.17 27.7004 207.727 28.293 207.12 28.9277L204.95 31.1957H209.262V32.6797H202.71ZM214.605 32.8197C213.438 32.8197 212.547 32.381 211.931 31.5037C211.315 30.617 211.007 29.357 211.007 27.7237C211.007 26.0717 211.315 24.8164 211.931 23.9577C212.547 23.099 213.438 22.6697 214.605 22.6697C215.781 22.6697 216.672 23.099 217.279 23.9577C217.895 24.8164 218.203 26.067 218.203 27.7097C218.203 29.3524 217.895 30.617 217.279 31.5037C216.663 32.381 215.771 32.8197 214.605 32.8197ZM214.605 31.3497C215.239 31.3497 215.706 31.0604 216.005 30.4817C216.313 29.8937 216.467 28.9697 216.467 27.7097C216.467 26.459 216.313 25.5537 216.005 24.9937C215.706 24.4244 215.239 24.1397 214.605 24.1397C213.979 24.1397 213.513 24.4244 213.205 24.9937C212.897 25.5537 212.743 26.459 212.743 27.7097C212.743 28.9697 212.897 29.8937 213.205 30.4817C213.513 31.0604 213.979 31.3497 214.605 31.3497ZM220.325 32.6797V22.8097H221.823L225.323 29.2637L228.809 22.8097H230.279V32.6797H228.655V26.0297L225.827 31.1817H224.777L221.949 26.0577V32.6797H220.325ZM232.872 32.6797V22.8097H234.664V32.6797H232.872ZM237.229 32.6797V22.8097H238.573L243.879 29.6977V22.8097H245.545V32.6797H244.215L238.895 25.7637V32.6797H237.229Z" fill="#1C6BA4"/>
</svg>
