<svg width="307" height="54" viewBox="0 0 307 54" fill="none" xmlns="http://www.w3.org/2000/svg">
<rect width="306.24" height="53.7931" rx="14" fill="white"/>
<path d="M278 27.0005C278 25.3465 279.346 24.0005 281 24.0005L285.764 24.0005C284.74 22.8575 284.785 20.9755 285.879 19.8795C286.442 19.3176 287.205 19.002 288 19.002C288.796 19.002 289.558 19.3176 290.121 19.8795L297.242 27.0005L290.121 34.1215C289.558 34.6834 288.796 34.999 288 34.999C287.205 34.999 286.442 34.6834 285.879 34.1215C284.784 33.0275 284.739 31.1425 285.764 30.0005L281 30.0005C279.346 30.0005 278 28.6545 278 27.0005ZM290.586 26.0005L281 26.0005C280.743 26.012 280.5 26.1224 280.321 26.3087C280.143 26.4949 280.044 26.7427 280.044 27.0005C280.044 27.2582 280.143 27.506 280.321 27.6923C280.5 27.8786 280.743 27.989 281 28.0005L290.586 28.0005L287.293 31.2935C287.111 31.4839 287.01 31.7371 287.01 32.0005C287.01 32.2639 287.111 32.5171 287.293 32.7075C287.386 32.8004 287.496 32.8742 287.617 32.9245C287.739 32.9748 287.869 33.0007 288 33.0007C288.132 33.0007 288.262 32.9748 288.383 32.9245C288.504 32.8742 288.614 32.8004 288.707 32.7075L294.414 27.0005L288.707 21.2935C288.614 21.2005 288.504 21.1268 288.383 21.0765C288.262 21.0262 288.132 21.0003 288 21.0003C287.869 21.0003 287.739 21.0262 287.617 21.0765C287.496 21.1268 287.386 21.2005 287.293 21.2935C287.111 21.4839 287.01 21.7371 287.01 22.0005C287.01 22.2639 287.111 22.5171 287.293 22.7075L290.586 26.0005Z" fill="#1C6BA4"/>
</svg>
