<svg width="360" height="382" viewBox="0 0 360 382" fill="none" xmlns="http://www.w3.org/2000/svg">
<g clip-path="url(#clip0_914_3846)">
<rect width="360" height="382" rx="16" fill="#ECE6F0"/>
<g clip-path="url(#clip1_914_3846)">
<path d="M27.7049 25.41L26.2949 24L20.2949 30L26.2949 36L27.7049 34.59L23.1249 30L27.7049 25.41Z" fill="#49454F"/>
</g>
<path d="M61.3189 26.373L58.3453 35H56.5475L60.2936 25.0469H61.442L61.3189 26.373ZM63.8072 35L60.8268 26.373L60.6969 25.0469H61.8521L65.6119 35H63.8072ZM63.6637 31.3086V32.6689H58.2496V31.3086H63.6637ZM71.0303 33.2568V27.6035H72.6846V35H71.126L71.0303 33.2568ZM71.2627 31.7188L71.8164 31.7051C71.8164 32.2018 71.7617 32.6598 71.6523 33.0791C71.543 33.4938 71.3743 33.8561 71.1465 34.166C70.9186 34.4714 70.627 34.7106 70.2715 34.8838C69.916 35.0524 69.4899 35.1367 68.9932 35.1367C68.6331 35.1367 68.3027 35.0843 68.002 34.9795C67.7012 34.8747 67.4414 34.7129 67.2227 34.4941C67.0085 34.2754 66.8421 33.9906 66.7236 33.6396C66.6051 33.2887 66.5459 32.8695 66.5459 32.3818V27.6035H68.1934V32.3955C68.1934 32.6644 68.2253 32.89 68.2891 33.0723C68.3529 33.25 68.4395 33.3936 68.5488 33.5029C68.6582 33.6123 68.7858 33.6898 68.9316 33.7354C69.0775 33.7809 69.2324 33.8037 69.3965 33.8037C69.8659 33.8037 70.235 33.7126 70.5039 33.5303C70.7773 33.3434 70.971 33.0928 71.085 32.7783C71.2035 32.4639 71.2627 32.1107 71.2627 31.7188ZM79.2104 27.6035H80.7074V34.7949C80.7074 35.4603 80.5661 36.0254 80.2836 36.4902C80.001 36.9551 79.6068 37.3083 79.101 37.5498C78.5951 37.7959 78.0095 37.9189 77.3441 37.9189C77.0616 37.9189 76.7471 37.8779 76.4008 37.7959C76.059 37.7139 75.7263 37.5817 75.4027 37.3994C75.0837 37.2217 74.8171 36.987 74.6029 36.6953L75.3754 35.7246C75.6397 36.0391 75.9314 36.2692 76.2504 36.415C76.5694 36.5609 76.9044 36.6338 77.2553 36.6338C77.6335 36.6338 77.9548 36.5632 78.2191 36.4219C78.488 36.2852 78.6954 36.0824 78.8412 35.8135C78.987 35.5446 79.06 35.2165 79.06 34.8291V29.2783L79.2104 27.6035ZM74.1859 31.3838V31.2402C74.1859 30.6797 74.2543 30.1693 74.391 29.709C74.5277 29.2441 74.7237 28.8454 74.9789 28.5127C75.2341 28.1755 75.544 27.918 75.9086 27.7402C76.2732 27.5579 76.6856 27.4668 77.1459 27.4668C77.6244 27.4668 78.0323 27.5534 78.3695 27.7266C78.7113 27.8997 78.9962 28.1481 79.224 28.4717C79.4519 28.7907 79.6296 29.1735 79.7572 29.6201C79.8894 30.0622 79.9874 30.5544 80.0512 31.0967V31.5547C79.9919 32.0833 79.8917 32.5664 79.7504 33.0039C79.6091 33.4414 79.4223 33.8197 79.1898 34.1387C78.9574 34.4577 78.6703 34.7038 78.3285 34.877C77.9913 35.0501 77.5925 35.1367 77.1322 35.1367C76.6811 35.1367 76.2732 35.0433 75.9086 34.8564C75.5486 34.6696 75.2387 34.4076 74.9789 34.0703C74.7237 33.7331 74.5277 33.3366 74.391 32.8809C74.2543 32.4206 74.1859 31.9215 74.1859 31.3838ZM75.8334 31.2402V31.3838C75.8334 31.721 75.8653 32.0355 75.9291 32.3271C75.9975 32.6188 76.1 32.8763 76.2367 33.0996C76.378 33.3184 76.5557 33.4915 76.7699 33.6191C76.9887 33.7422 77.2462 33.8037 77.5424 33.8037C77.9298 33.8037 78.2465 33.7217 78.4926 33.5576C78.7432 33.3936 78.9346 33.1725 79.0668 32.8945C79.2035 32.612 79.2992 32.2975 79.3539 31.9512V30.7139C79.3266 30.445 79.2696 30.1943 79.183 29.9619C79.101 29.7295 78.9893 29.5267 78.848 29.3535C78.7068 29.1758 78.529 29.0391 78.3148 28.9434C78.1007 28.8431 77.8477 28.793 77.5561 28.793C77.2598 28.793 77.0023 28.8568 76.7836 28.9844C76.5648 29.112 76.3848 29.2874 76.2436 29.5107C76.1068 29.734 76.0043 29.9938 75.9359 30.29C75.8676 30.5863 75.8334 30.903 75.8334 31.2402Z" fill="#49454F"/>
<path d="M95.25 28.5L99 32.25L102.75 28.5H95.25Z" fill="#49454F"/>
<g clip-path="url(#clip2_914_3846)">
<path d="M133.705 24L132.295 25.41L136.875 30L132.295 34.59L133.705 36L139.705 30L133.705 24Z" fill="#49454F"/>
</g>
<g clip-path="url(#clip3_914_3846)">
<path d="M220.705 25.41L219.295 24L213.295 30L219.295 36L220.705 34.59L216.125 30L220.705 25.41Z" fill="#49454F"/>
</g>
<path d="M256.86 33.6875V35H250.188V33.8721L253.428 30.3379C253.784 29.9368 254.064 29.5905 254.269 29.2988C254.474 29.0072 254.618 28.7451 254.7 28.5127C254.786 28.2757 254.829 28.0456 254.829 27.8223C254.829 27.5078 254.77 27.2321 254.652 26.9951C254.538 26.7536 254.369 26.5645 254.146 26.4277C253.923 26.2865 253.651 26.2158 253.332 26.2158C252.963 26.2158 252.653 26.2956 252.403 26.4551C252.152 26.6146 251.963 26.8356 251.835 27.1182C251.708 27.3962 251.644 27.7152 251.644 28.0752H249.996C249.996 27.4964 250.129 26.9678 250.393 26.4893C250.657 26.0062 251.04 25.6234 251.541 25.3408C252.043 25.0537 252.647 24.9102 253.353 24.9102C254.018 24.9102 254.583 25.0218 255.048 25.2451C255.513 25.4684 255.866 25.7852 256.108 26.1953C256.354 26.6055 256.477 27.0908 256.477 27.6514C256.477 27.9613 256.427 28.2689 256.327 28.5742C256.226 28.8796 256.083 29.1849 255.896 29.4902C255.714 29.791 255.497 30.0941 255.246 30.3994C254.996 30.7002 254.72 31.0055 254.419 31.3154L252.266 33.6875H256.86ZM264.732 29.1895V30.8164C264.732 31.5957 264.655 32.2611 264.5 32.8125C264.349 33.3594 264.131 33.8037 263.844 34.1455C263.556 34.4873 263.212 34.738 262.811 34.8975C262.415 35.057 261.971 35.1367 261.478 35.1367C261.086 35.1367 260.722 35.0866 260.385 34.9863C260.052 34.8861 259.751 34.7288 259.482 34.5146C259.213 34.3005 258.983 34.0247 258.792 33.6875C258.605 33.3457 258.459 32.9378 258.354 32.4639C258.254 31.9899 258.204 31.4408 258.204 30.8164V29.1895C258.204 28.4056 258.281 27.7448 258.436 27.207C258.591 26.6647 258.812 26.2249 259.099 25.8877C259.387 25.5459 259.728 25.2975 260.125 25.1426C260.526 24.9876 260.972 24.9102 261.465 24.9102C261.861 24.9102 262.226 24.9603 262.558 25.0605C262.896 25.1562 263.196 25.3089 263.461 25.5186C263.73 25.7282 263.957 26.0016 264.144 26.3389C264.336 26.6715 264.482 27.0749 264.582 27.5488C264.682 28.0182 264.732 28.5651 264.732 29.1895ZM263.085 31.0488V28.9434C263.085 28.5469 263.062 28.1982 263.016 27.8975C262.971 27.5921 262.902 27.3346 262.811 27.125C262.725 26.9108 262.615 26.7376 262.483 26.6055C262.351 26.4688 262.201 26.3708 262.032 26.3115C261.863 26.2477 261.674 26.2158 261.465 26.2158C261.209 26.2158 260.982 26.266 260.781 26.3662C260.581 26.4619 260.412 26.6169 260.275 26.8311C260.138 27.0452 260.034 27.3278 259.961 27.6787C259.892 28.0251 259.858 28.4466 259.858 28.9434V31.0488C259.858 31.4499 259.881 31.8031 259.927 32.1084C259.972 32.4137 260.04 32.6758 260.132 32.8945C260.223 33.1087 260.332 33.2865 260.46 33.4277C260.592 33.5645 260.742 33.6647 260.911 33.7285C261.084 33.7923 261.273 33.8242 261.478 33.8242C261.738 33.8242 261.968 33.7741 262.169 33.6738C262.369 33.5736 262.538 33.4141 262.675 33.1953C262.811 32.972 262.914 32.6826 262.982 32.3271C263.051 31.9717 263.085 31.5456 263.085 31.0488ZM272.974 33.6875V35H266.302V33.8721L269.542 30.3379C269.898 29.9368 270.178 29.5905 270.383 29.2988C270.588 29.0072 270.732 28.7451 270.814 28.5127C270.9 28.2757 270.944 28.0456 270.944 27.8223C270.944 27.5078 270.884 27.2321 270.766 26.9951C270.652 26.7536 270.483 26.5645 270.26 26.4277C270.037 26.2865 269.765 26.2158 269.446 26.2158C269.077 26.2158 268.767 26.2956 268.517 26.4551C268.266 26.6146 268.077 26.8356 267.949 27.1182C267.822 27.3962 267.758 27.7152 267.758 28.0752H266.111C266.111 27.4964 266.243 26.9678 266.507 26.4893C266.771 26.0062 267.154 25.6234 267.655 25.3408C268.157 25.0537 268.761 24.9102 269.467 24.9102C270.132 24.9102 270.697 25.0218 271.162 25.2451C271.627 25.4684 271.98 25.7852 272.222 26.1953C272.468 26.6055 272.591 27.0908 272.591 27.6514C272.591 27.9613 272.541 28.2689 272.441 28.5742C272.34 28.8796 272.197 29.1849 272.01 29.4902C271.828 29.791 271.611 30.0941 271.361 30.3994C271.11 30.7002 270.834 31.0055 270.533 31.3154L268.38 33.6875H272.974ZM276.294 29.2783H277.278C277.661 29.2783 277.977 29.2122 278.228 29.0801C278.483 28.9479 278.672 28.7656 278.796 28.5332C278.919 28.3008 278.98 28.0342 278.98 27.7334C278.98 27.4189 278.923 27.1501 278.809 26.9268C278.7 26.6989 278.531 26.5234 278.303 26.4004C278.08 26.2773 277.795 26.2158 277.449 26.2158C277.157 26.2158 276.893 26.2751 276.656 26.3936C276.423 26.5075 276.239 26.6715 276.102 26.8857C275.965 27.0954 275.897 27.346 275.897 27.6377H274.243C274.243 27.109 274.382 26.6396 274.66 26.2295C274.938 25.8193 275.316 25.498 275.795 25.2656C276.278 25.0286 276.82 24.9102 277.421 24.9102C278.064 24.9102 278.625 25.0173 279.103 25.2314C279.586 25.4411 279.962 25.7555 280.231 26.1748C280.5 26.5941 280.634 27.1136 280.634 27.7334C280.634 28.016 280.568 28.3031 280.436 28.5947C280.304 28.8864 280.108 29.153 279.848 29.3945C279.588 29.6315 279.265 29.8252 278.878 29.9756C278.49 30.1214 278.041 30.1943 277.531 30.1943H276.294V29.2783ZM276.294 30.5635V29.6611H277.531C278.114 29.6611 278.611 29.7295 279.021 29.8662C279.436 30.0029 279.773 30.1921 280.033 30.4336C280.293 30.6706 280.482 30.9417 280.6 31.2471C280.723 31.5524 280.785 31.876 280.785 32.2178C280.785 32.6826 280.7 33.0973 280.532 33.4619C280.368 33.8219 280.133 34.1273 279.828 34.3779C279.522 34.6286 279.165 34.8177 278.754 34.9453C278.349 35.0729 277.907 35.1367 277.428 35.1367C277 35.1367 276.59 35.0775 276.198 34.959C275.806 34.8405 275.455 34.665 275.145 34.4326C274.835 34.1956 274.589 33.9017 274.407 33.5508C274.229 33.1953 274.14 32.7852 274.14 32.3203H275.788C275.788 32.6165 275.856 32.8786 275.993 33.1064C276.134 33.3298 276.33 33.5052 276.581 33.6328C276.836 33.7604 277.128 33.8242 277.456 33.8242C277.802 33.8242 278.101 33.7627 278.351 33.6396C278.602 33.5166 278.793 33.3343 278.925 33.0928C279.062 32.8512 279.13 32.5596 279.13 32.2178C279.13 31.8304 279.055 31.516 278.905 31.2744C278.754 31.0329 278.54 30.8551 278.262 30.7412C277.984 30.6227 277.656 30.5635 277.278 30.5635H276.294Z" fill="#49454F"/>
<path d="M295.25 28.5L299 32.25L302.75 28.5H295.25Z" fill="#49454F"/>
<g clip-path="url(#clip4_914_3846)">
<path d="M333.705 24L332.295 25.41L336.875 30L332.295 34.59L333.705 36L339.705 30L333.705 24Z" fill="#49454F"/>
</g>
<path d="M38.6328 90.125C38.6328 89.8594 38.5911 89.625 38.5078 89.4219C38.4297 89.2135 38.2891 89.026 38.0859 88.8594C37.888 88.6927 37.612 88.5339 37.2578 88.3828C36.9089 88.2318 36.4661 88.0781 35.9297 87.9219C35.3672 87.7552 34.8594 87.5703 34.4062 87.3672C33.9531 87.1589 33.5651 86.9219 33.2422 86.6562C32.9193 86.3906 32.6719 86.0859 32.5 85.7422C32.3281 85.3984 32.2422 85.0052 32.2422 84.5625C32.2422 84.1198 32.3333 83.7109 32.5156 83.3359C32.6979 82.9609 32.9583 82.6354 33.2969 82.3594C33.6406 82.0781 34.0495 81.8594 34.5234 81.7031C34.9974 81.5469 35.526 81.4688 36.1094 81.4688C36.9635 81.4688 37.6875 81.6328 38.2812 81.9609C38.8802 82.2839 39.3359 82.7083 39.6484 83.2344C39.9609 83.7552 40.1172 84.3125 40.1172 84.9062H38.6172C38.6172 84.4792 38.526 84.1016 38.3438 83.7734C38.1615 83.4401 37.8854 83.1797 37.5156 82.9922C37.1458 82.7995 36.6771 82.7031 36.1094 82.7031C35.5729 82.7031 35.1302 82.7839 34.7812 82.9453C34.4323 83.1068 34.1719 83.3255 34 83.6016C33.8333 83.8776 33.75 84.1927 33.75 84.5469C33.75 84.7865 33.7995 85.0052 33.8984 85.2031C34.0026 85.3958 34.1615 85.5755 34.375 85.7422C34.5938 85.9089 34.8698 86.0625 35.2031 86.2031C35.5417 86.3438 35.9453 86.4792 36.4141 86.6094C37.0599 86.7917 37.6172 86.9948 38.0859 87.2188C38.5547 87.4427 38.9401 87.6953 39.2422 87.9766C39.5495 88.2526 39.776 88.5677 39.9219 88.9219C40.0729 89.2708 40.1484 89.6667 40.1484 90.1094C40.1484 90.5729 40.0547 90.9922 39.8672 91.3672C39.6797 91.7422 39.4115 92.0625 39.0625 92.3281C38.7135 92.5938 38.2943 92.7995 37.8047 92.9453C37.3203 93.0859 36.7786 93.1562 36.1797 93.1562C35.6536 93.1562 35.1354 93.0833 34.625 92.9375C34.1198 92.7917 33.6589 92.5729 33.2422 92.2812C32.8307 91.9896 32.5 91.6302 32.25 91.2031C32.0052 90.7708 31.8828 90.2708 31.8828 89.7031H33.3828C33.3828 90.0938 33.4583 90.4297 33.6094 90.7109C33.7604 90.987 33.9661 91.2161 34.2266 91.3984C34.4922 91.5807 34.7917 91.7161 35.125 91.8047C35.4635 91.888 35.8151 91.9297 36.1797 91.9297C36.7057 91.9297 37.151 91.8568 37.5156 91.7109C37.8802 91.5651 38.1562 91.3568 38.3438 91.0859C38.5365 90.8151 38.6328 90.4948 38.6328 90.125Z" fill="#1D1B20"/>
<path d="M78.8125 81.625H80.2734L84 90.8984L87.7188 81.625H89.1875L84.5625 93H83.4219L78.8125 81.625ZM78.3359 81.625H79.625L79.8359 88.5625V93H78.3359V81.625ZM88.3672 81.625H89.6562V93H88.1562V88.5625L88.3672 81.625Z" fill="#1D1B20"/>
<path d="M132.75 81.625V93H131.266V81.625H132.75ZM136.406 81.625V82.8594H127.617V81.625H136.406Z" fill="#1D1B20"/>
<path d="M177.211 89.5625L179.469 81.625H180.562L179.93 84.7109L177.5 93H176.414L177.211 89.5625ZM174.875 81.625L176.672 89.4062L177.211 93H176.133L173.375 81.625H174.875ZM183.484 89.3984L185.242 81.625H186.75L184 93H182.922L183.484 89.3984ZM180.727 81.625L182.922 89.5625L183.719 93H182.633L180.289 84.7109L179.648 81.625H180.727Z" fill="#1D1B20"/>
<path d="M228.75 81.625V93H227.266V81.625H228.75ZM232.406 81.625V82.8594H223.617V81.625H232.406Z" fill="#1D1B20"/>
<path d="M274.406 81.625V93H272.898V81.625H274.406ZM279.172 86.7422V87.9766H274.078V86.7422H279.172ZM279.945 81.625V82.8594H274.078V81.625H279.945Z" fill="#1D1B20"/>
<path d="M326.633 90.125C326.633 89.8594 326.591 89.625 326.508 89.4219C326.43 89.2135 326.289 89.026 326.086 88.8594C325.888 88.6927 325.612 88.5339 325.258 88.3828C324.909 88.2318 324.466 88.0781 323.93 87.9219C323.367 87.7552 322.859 87.5703 322.406 87.3672C321.953 87.1589 321.565 86.9219 321.242 86.6562C320.919 86.3906 320.672 86.0859 320.5 85.7422C320.328 85.3984 320.242 85.0052 320.242 84.5625C320.242 84.1198 320.333 83.7109 320.516 83.3359C320.698 82.9609 320.958 82.6354 321.297 82.3594C321.641 82.0781 322.049 81.8594 322.523 81.7031C322.997 81.5469 323.526 81.4688 324.109 81.4688C324.964 81.4688 325.688 81.6328 326.281 81.9609C326.88 82.2839 327.336 82.7083 327.648 83.2344C327.961 83.7552 328.117 84.3125 328.117 84.9062H326.617C326.617 84.4792 326.526 84.1016 326.344 83.7734C326.161 83.4401 325.885 83.1797 325.516 82.9922C325.146 82.7995 324.677 82.7031 324.109 82.7031C323.573 82.7031 323.13 82.7839 322.781 82.9453C322.432 83.1068 322.172 83.3255 322 83.6016C321.833 83.8776 321.75 84.1927 321.75 84.5469C321.75 84.7865 321.799 85.0052 321.898 85.2031C322.003 85.3958 322.161 85.5755 322.375 85.7422C322.594 85.9089 322.87 86.0625 323.203 86.2031C323.542 86.3438 323.945 86.4792 324.414 86.6094C325.06 86.7917 325.617 86.9948 326.086 87.2188C326.555 87.4427 326.94 87.6953 327.242 87.9766C327.549 88.2526 327.776 88.5677 327.922 88.9219C328.073 89.2708 328.148 89.6667 328.148 90.1094C328.148 90.5729 328.055 90.9922 327.867 91.3672C327.68 91.7422 327.411 92.0625 327.062 92.3281C326.714 92.5938 326.294 92.7995 325.805 92.9453C325.32 93.0859 324.779 93.1562 324.18 93.1562C323.654 93.1562 323.135 93.0833 322.625 92.9375C322.12 92.7917 321.659 92.5729 321.242 92.2812C320.831 91.9896 320.5 91.6302 320.25 91.2031C320.005 90.7708 319.883 90.2708 319.883 89.7031H321.383C321.383 90.0938 321.458 90.4297 321.609 90.7109C321.76 90.987 321.966 91.2161 322.227 91.3984C322.492 91.5807 322.792 91.7161 323.125 91.8047C323.464 91.888 323.815 91.9297 324.18 91.9297C324.706 91.9297 325.151 91.8568 325.516 91.7109C325.88 91.5651 326.156 91.3568 326.344 91.0859C326.536 90.8151 326.633 90.4948 326.633 90.125Z" fill="#1D1B20"/>
<path d="M35.1484 136.812V138H27.7031V136.961L31.4297 132.812C31.888 132.302 32.2422 131.87 32.4922 131.516C32.7474 131.156 32.9245 130.836 33.0234 130.555C33.1276 130.268 33.1797 129.977 33.1797 129.68C33.1797 129.305 33.1016 128.966 32.9453 128.664C32.7943 128.357 32.5703 128.112 32.2734 127.93C31.9766 127.747 31.6172 127.656 31.1953 127.656C30.6901 127.656 30.2682 127.755 29.9297 127.953C29.5964 128.146 29.3464 128.417 29.1797 128.766C29.013 129.115 28.9297 129.516 28.9297 129.969H27.4844C27.4844 129.328 27.625 128.742 27.9062 128.211C28.1875 127.68 28.6042 127.258 29.1562 126.945C29.7083 126.628 30.388 126.469 31.1953 126.469C31.9141 126.469 32.5286 126.596 33.0391 126.852C33.5495 127.102 33.9401 127.456 34.2109 127.914C34.487 128.367 34.625 128.898 34.625 129.508C34.625 129.841 34.5677 130.18 34.4531 130.523C34.3438 130.862 34.1901 131.201 33.9922 131.539C33.7995 131.878 33.5729 132.211 33.3125 132.539C33.0573 132.867 32.7839 133.19 32.4922 133.508L29.4453 136.812H35.1484ZM42.7422 126.609H42.8672V127.836H42.7422C41.9766 127.836 41.3359 127.961 40.8203 128.211C40.3047 128.456 39.8958 128.786 39.5938 129.203C39.2917 129.615 39.0729 130.078 38.9375 130.594C38.8073 131.109 38.7422 131.633 38.7422 132.164V133.836C38.7422 134.341 38.8021 134.789 38.9219 135.18C39.0417 135.565 39.2057 135.891 39.4141 136.156C39.6224 136.422 39.8568 136.622 40.1172 136.758C40.3828 136.893 40.6589 136.961 40.9453 136.961C41.2786 136.961 41.5755 136.898 41.8359 136.773C42.0964 136.643 42.3151 136.464 42.4922 136.234C42.6745 136 42.8125 135.724 42.9062 135.406C43 135.089 43.0469 134.74 43.0469 134.359C43.0469 134.021 43.0052 133.695 42.9219 133.383C42.8385 133.065 42.7109 132.784 42.5391 132.539C42.3672 132.289 42.151 132.094 41.8906 131.953C41.6354 131.807 41.3307 131.734 40.9766 131.734C40.5755 131.734 40.2005 131.833 39.8516 132.031C39.5078 132.224 39.224 132.479 39 132.797C38.7812 133.109 38.6562 133.451 38.625 133.82L37.8594 133.812C37.9323 133.229 38.0677 132.732 38.2656 132.32C38.4688 131.904 38.7188 131.565 39.0156 131.305C39.3177 131.039 39.6536 130.846 40.0234 130.727C40.3984 130.602 40.7943 130.539 41.2109 130.539C41.7786 130.539 42.2682 130.646 42.6797 130.859C43.0911 131.073 43.4297 131.359 43.6953 131.719C43.9609 132.073 44.1562 132.474 44.2812 132.922C44.4115 133.365 44.4766 133.82 44.4766 134.289C44.4766 134.826 44.401 135.328 44.25 135.797C44.099 136.266 43.8724 136.677 43.5703 137.031C43.2734 137.385 42.9062 137.661 42.4688 137.859C42.0312 138.057 41.5234 138.156 40.9453 138.156C40.3307 138.156 39.7943 138.031 39.3359 137.781C38.8776 137.526 38.4974 137.188 38.1953 136.766C37.8932 136.344 37.6667 135.875 37.5156 135.359C37.3646 134.844 37.2891 134.32 37.2891 133.789V133.109C37.2891 132.307 37.3698 131.521 37.5312 130.75C37.6927 129.979 37.9714 129.281 38.3672 128.656C38.7682 128.031 39.3229 127.534 40.0312 127.164C40.7396 126.794 41.6432 126.609 42.7422 126.609Z" fill="#49454F"/>
<path d="M83.1484 136.812V138H75.7031V136.961L79.4297 132.812C79.888 132.302 80.2422 131.87 80.4922 131.516C80.7474 131.156 80.9245 130.836 81.0234 130.555C81.1276 130.268 81.1797 129.977 81.1797 129.68C81.1797 129.305 81.1016 128.966 80.9453 128.664C80.7943 128.357 80.5703 128.112 80.2734 127.93C79.9766 127.747 79.6172 127.656 79.1953 127.656C78.6901 127.656 78.2682 127.755 77.9297 127.953C77.5964 128.146 77.3464 128.417 77.1797 128.766C77.013 129.115 76.9297 129.516 76.9297 129.969H75.4844C75.4844 129.328 75.625 128.742 75.9062 128.211C76.1875 127.68 76.6042 127.258 77.1562 126.945C77.7083 126.628 78.388 126.469 79.1953 126.469C79.9141 126.469 80.5286 126.596 81.0391 126.852C81.5495 127.102 81.9401 127.456 82.2109 127.914C82.487 128.367 82.625 128.898 82.625 129.508C82.625 129.841 82.5677 130.18 82.4531 130.523C82.3438 130.862 82.1901 131.201 81.9922 131.539C81.7995 131.878 81.5729 132.211 81.3125 132.539C81.0573 132.867 80.7839 133.19 80.4922 133.508L77.4453 136.812H83.1484ZM92.5469 126.625V127.438L87.8359 138H86.3125L91.0156 127.812H84.8594V126.625H92.5469Z" fill="#49454F"/>
<path d="M131.148 136.812V138H123.703V136.961L127.43 132.812C127.888 132.302 128.242 131.87 128.492 131.516C128.747 131.156 128.924 130.836 129.023 130.555C129.128 130.268 129.18 129.977 129.18 129.68C129.18 129.305 129.102 128.966 128.945 128.664C128.794 128.357 128.57 128.112 128.273 127.93C127.977 127.747 127.617 127.656 127.195 127.656C126.69 127.656 126.268 127.755 125.93 127.953C125.596 128.146 125.346 128.417 125.18 128.766C125.013 129.115 124.93 129.516 124.93 129.969H123.484C123.484 129.328 123.625 128.742 123.906 128.211C124.188 127.68 124.604 127.258 125.156 126.945C125.708 126.628 126.388 126.469 127.195 126.469C127.914 126.469 128.529 126.596 129.039 126.852C129.549 127.102 129.94 127.456 130.211 127.914C130.487 128.367 130.625 128.898 130.625 129.508C130.625 129.841 130.568 130.18 130.453 130.523C130.344 130.862 130.19 131.201 129.992 131.539C129.799 131.878 129.573 132.211 129.312 132.539C129.057 132.867 128.784 133.19 128.492 133.508L125.445 136.812H131.148ZM140.367 134.922C140.367 135.615 140.206 136.203 139.883 136.688C139.565 137.167 139.133 137.531 138.586 137.781C138.044 138.031 137.432 138.156 136.75 138.156C136.068 138.156 135.453 138.031 134.906 137.781C134.359 137.531 133.927 137.167 133.609 136.688C133.292 136.203 133.133 135.615 133.133 134.922C133.133 134.469 133.219 134.055 133.391 133.68C133.568 133.299 133.815 132.969 134.133 132.688C134.456 132.406 134.836 132.19 135.273 132.039C135.716 131.883 136.203 131.805 136.734 131.805C137.432 131.805 138.055 131.94 138.602 132.211C139.148 132.477 139.578 132.844 139.891 133.312C140.208 133.781 140.367 134.318 140.367 134.922ZM138.914 134.891C138.914 134.469 138.823 134.096 138.641 133.773C138.458 133.445 138.203 133.19 137.875 133.008C137.547 132.826 137.167 132.734 136.734 132.734C136.292 132.734 135.909 132.826 135.586 133.008C135.268 133.19 135.021 133.445 134.844 133.773C134.667 134.096 134.578 134.469 134.578 134.891C134.578 135.328 134.664 135.703 134.836 136.016C135.013 136.323 135.263 136.56 135.586 136.727C135.914 136.888 136.302 136.969 136.75 136.969C137.198 136.969 137.583 136.888 137.906 136.727C138.229 136.56 138.477 136.323 138.648 136.016C138.826 135.703 138.914 135.328 138.914 134.891ZM140.102 129.586C140.102 130.138 139.956 130.635 139.664 131.078C139.372 131.521 138.974 131.87 138.469 132.125C137.964 132.38 137.391 132.508 136.75 132.508C136.099 132.508 135.518 132.38 135.008 132.125C134.503 131.87 134.107 131.521 133.82 131.078C133.534 130.635 133.391 130.138 133.391 129.586C133.391 128.924 133.534 128.362 133.82 127.898C134.112 127.435 134.51 127.081 135.016 126.836C135.521 126.591 136.096 126.469 136.742 126.469C137.393 126.469 137.971 126.591 138.477 126.836C138.982 127.081 139.378 127.435 139.664 127.898C139.956 128.362 140.102 128.924 140.102 129.586ZM138.656 129.609C138.656 129.229 138.576 128.893 138.414 128.602C138.253 128.31 138.029 128.081 137.742 127.914C137.456 127.742 137.122 127.656 136.742 127.656C136.362 127.656 136.029 127.737 135.742 127.898C135.461 128.055 135.24 128.279 135.078 128.57C134.922 128.862 134.844 129.208 134.844 129.609C134.844 130 134.922 130.341 135.078 130.633C135.24 130.924 135.464 131.151 135.75 131.312C136.036 131.474 136.37 131.555 136.75 131.555C137.13 131.555 137.461 131.474 137.742 131.312C138.029 131.151 138.253 130.924 138.414 130.633C138.576 130.341 138.656 130 138.656 129.609Z" fill="#49454F"/>
<path d="M179.148 136.812V138H171.703V136.961L175.43 132.812C175.888 132.302 176.242 131.87 176.492 131.516C176.747 131.156 176.924 130.836 177.023 130.555C177.128 130.268 177.18 129.977 177.18 129.68C177.18 129.305 177.102 128.966 176.945 128.664C176.794 128.357 176.57 128.112 176.273 127.93C175.977 127.747 175.617 127.656 175.195 127.656C174.69 127.656 174.268 127.755 173.93 127.953C173.596 128.146 173.346 128.417 173.18 128.766C173.013 129.115 172.93 129.516 172.93 129.969H171.484C171.484 129.328 171.625 128.742 171.906 128.211C172.188 127.68 172.604 127.258 173.156 126.945C173.708 126.628 174.388 126.469 175.195 126.469C175.914 126.469 176.529 126.596 177.039 126.852C177.549 127.102 177.94 127.456 178.211 127.914C178.487 128.367 178.625 128.898 178.625 129.508C178.625 129.841 178.568 130.18 178.453 130.523C178.344 130.862 178.19 131.201 177.992 131.539C177.799 131.878 177.573 132.211 177.312 132.539C177.057 132.867 176.784 133.19 176.492 133.508L173.445 136.812H179.148ZM182.633 136.789H182.781C183.615 136.789 184.292 136.672 184.812 136.438C185.333 136.203 185.734 135.888 186.016 135.492C186.297 135.096 186.49 134.651 186.594 134.156C186.698 133.656 186.75 133.143 186.75 132.617V130.875C186.75 130.359 186.69 129.901 186.57 129.5C186.456 129.099 186.294 128.763 186.086 128.492C185.883 128.221 185.651 128.016 185.391 127.875C185.13 127.734 184.854 127.664 184.562 127.664C184.229 127.664 183.93 127.732 183.664 127.867C183.404 127.997 183.182 128.182 183 128.422C182.823 128.661 182.688 128.943 182.594 129.266C182.5 129.589 182.453 129.94 182.453 130.32C182.453 130.659 182.495 130.987 182.578 131.305C182.661 131.622 182.789 131.909 182.961 132.164C183.133 132.419 183.346 132.622 183.602 132.773C183.862 132.919 184.167 132.992 184.516 132.992C184.839 132.992 185.141 132.93 185.422 132.805C185.708 132.674 185.961 132.5 186.18 132.281C186.404 132.057 186.581 131.805 186.711 131.523C186.846 131.242 186.924 130.948 186.945 130.641H187.633C187.633 131.073 187.547 131.5 187.375 131.922C187.208 132.339 186.974 132.719 186.672 133.062C186.37 133.406 186.016 133.682 185.609 133.891C185.203 134.094 184.76 134.195 184.281 134.195C183.719 134.195 183.232 134.086 182.82 133.867C182.409 133.648 182.07 133.357 181.805 132.992C181.544 132.628 181.349 132.221 181.219 131.773C181.094 131.32 181.031 130.862 181.031 130.398C181.031 129.857 181.107 129.349 181.258 128.875C181.409 128.401 181.633 127.984 181.93 127.625C182.227 127.26 182.594 126.977 183.031 126.773C183.474 126.57 183.984 126.469 184.562 126.469C185.214 126.469 185.768 126.599 186.227 126.859C186.685 127.12 187.057 127.469 187.344 127.906C187.635 128.344 187.849 128.836 187.984 129.383C188.12 129.93 188.188 130.492 188.188 131.07V131.594C188.188 132.182 188.148 132.781 188.07 133.391C187.997 133.995 187.854 134.573 187.641 135.125C187.432 135.677 187.128 136.172 186.727 136.609C186.326 137.042 185.802 137.385 185.156 137.641C184.516 137.891 183.724 138.016 182.781 138.016H182.633V136.789Z" fill="#49454F"/>
<path d="M221.805 131.602H222.836C223.341 131.602 223.758 131.518 224.086 131.352C224.419 131.18 224.667 130.948 224.828 130.656C224.995 130.359 225.078 130.026 225.078 129.656C225.078 129.219 225.005 128.852 224.859 128.555C224.714 128.258 224.495 128.034 224.203 127.883C223.911 127.732 223.542 127.656 223.094 127.656C222.688 127.656 222.328 127.737 222.016 127.898C221.708 128.055 221.466 128.279 221.289 128.57C221.117 128.862 221.031 129.206 221.031 129.602H219.586C219.586 129.023 219.732 128.497 220.023 128.023C220.315 127.549 220.724 127.172 221.25 126.891C221.781 126.609 222.396 126.469 223.094 126.469C223.781 126.469 224.383 126.591 224.898 126.836C225.414 127.076 225.815 127.435 226.102 127.914C226.388 128.388 226.531 128.979 226.531 129.688C226.531 129.974 226.464 130.281 226.328 130.609C226.198 130.932 225.992 131.234 225.711 131.516C225.435 131.797 225.076 132.029 224.633 132.211C224.19 132.388 223.659 132.477 223.039 132.477H221.805V131.602ZM221.805 132.789V131.922H223.039C223.763 131.922 224.362 132.008 224.836 132.18C225.31 132.352 225.682 132.581 225.953 132.867C226.229 133.154 226.422 133.469 226.531 133.812C226.646 134.151 226.703 134.49 226.703 134.828C226.703 135.359 226.612 135.831 226.43 136.242C226.253 136.654 226 137.003 225.672 137.289C225.349 137.576 224.969 137.792 224.531 137.938C224.094 138.083 223.617 138.156 223.102 138.156C222.607 138.156 222.141 138.086 221.703 137.945C221.271 137.805 220.888 137.602 220.555 137.336C220.221 137.065 219.961 136.734 219.773 136.344C219.586 135.948 219.492 135.497 219.492 134.992H220.938C220.938 135.388 221.023 135.734 221.195 136.031C221.372 136.328 221.622 136.56 221.945 136.727C222.273 136.888 222.659 136.969 223.102 136.969C223.544 136.969 223.924 136.893 224.242 136.742C224.565 136.586 224.812 136.352 224.984 136.039C225.161 135.727 225.25 135.333 225.25 134.859C225.25 134.385 225.151 133.997 224.953 133.695C224.755 133.388 224.474 133.161 224.109 133.016C223.75 132.865 223.326 132.789 222.836 132.789H221.805ZM236.336 131.406V133.141C236.336 134.073 236.253 134.859 236.086 135.5C235.919 136.141 235.68 136.656 235.367 137.047C235.055 137.438 234.677 137.721 234.234 137.898C233.797 138.07 233.302 138.156 232.75 138.156C232.312 138.156 231.909 138.102 231.539 137.992C231.169 137.883 230.836 137.708 230.539 137.469C230.247 137.224 229.997 136.906 229.789 136.516C229.581 136.125 229.422 135.651 229.312 135.094C229.203 134.536 229.148 133.885 229.148 133.141V131.406C229.148 130.474 229.232 129.693 229.398 129.062C229.57 128.432 229.812 127.927 230.125 127.547C230.438 127.161 230.812 126.885 231.25 126.719C231.693 126.552 232.188 126.469 232.734 126.469C233.177 126.469 233.583 126.523 233.953 126.633C234.328 126.737 234.661 126.906 234.953 127.141C235.245 127.37 235.492 127.677 235.695 128.062C235.904 128.443 236.062 128.909 236.172 129.461C236.281 130.013 236.336 130.661 236.336 131.406ZM234.883 133.375V131.164C234.883 130.654 234.852 130.206 234.789 129.82C234.732 129.43 234.646 129.096 234.531 128.82C234.417 128.544 234.271 128.32 234.094 128.148C233.922 127.977 233.721 127.852 233.492 127.773C233.268 127.69 233.016 127.648 232.734 127.648C232.391 127.648 232.086 127.714 231.82 127.844C231.555 127.969 231.331 128.169 231.148 128.445C230.971 128.721 230.836 129.083 230.742 129.531C230.648 129.979 230.602 130.523 230.602 131.164V133.375C230.602 133.885 230.63 134.336 230.688 134.727C230.75 135.117 230.841 135.456 230.961 135.742C231.081 136.023 231.227 136.255 231.398 136.438C231.57 136.62 231.768 136.755 231.992 136.844C232.221 136.927 232.474 136.969 232.75 136.969C233.104 136.969 233.414 136.901 233.68 136.766C233.945 136.63 234.167 136.419 234.344 136.133C234.526 135.841 234.661 135.469 234.75 135.016C234.839 134.557 234.883 134.01 234.883 133.375Z" fill="#49454F"/>
<path d="M269.805 131.602H270.836C271.341 131.602 271.758 131.518 272.086 131.352C272.419 131.18 272.667 130.948 272.828 130.656C272.995 130.359 273.078 130.026 273.078 129.656C273.078 129.219 273.005 128.852 272.859 128.555C272.714 128.258 272.495 128.034 272.203 127.883C271.911 127.732 271.542 127.656 271.094 127.656C270.688 127.656 270.328 127.737 270.016 127.898C269.708 128.055 269.466 128.279 269.289 128.57C269.117 128.862 269.031 129.206 269.031 129.602H267.586C267.586 129.023 267.732 128.497 268.023 128.023C268.315 127.549 268.724 127.172 269.25 126.891C269.781 126.609 270.396 126.469 271.094 126.469C271.781 126.469 272.383 126.591 272.898 126.836C273.414 127.076 273.815 127.435 274.102 127.914C274.388 128.388 274.531 128.979 274.531 129.688C274.531 129.974 274.464 130.281 274.328 130.609C274.198 130.932 273.992 131.234 273.711 131.516C273.435 131.797 273.076 132.029 272.633 132.211C272.19 132.388 271.659 132.477 271.039 132.477H269.805V131.602ZM269.805 132.789V131.922H271.039C271.763 131.922 272.362 132.008 272.836 132.18C273.31 132.352 273.682 132.581 273.953 132.867C274.229 133.154 274.422 133.469 274.531 133.812C274.646 134.151 274.703 134.49 274.703 134.828C274.703 135.359 274.612 135.831 274.43 136.242C274.253 136.654 274 137.003 273.672 137.289C273.349 137.576 272.969 137.792 272.531 137.938C272.094 138.083 271.617 138.156 271.102 138.156C270.607 138.156 270.141 138.086 269.703 137.945C269.271 137.805 268.888 137.602 268.555 137.336C268.221 137.065 267.961 136.734 267.773 136.344C267.586 135.948 267.492 135.497 267.492 134.992H268.938C268.938 135.388 269.023 135.734 269.195 136.031C269.372 136.328 269.622 136.56 269.945 136.727C270.273 136.888 270.659 136.969 271.102 136.969C271.544 136.969 271.924 136.893 272.242 136.742C272.565 136.586 272.812 136.352 272.984 136.039C273.161 135.727 273.25 135.333 273.25 134.859C273.25 134.385 273.151 133.997 272.953 133.695C272.755 133.388 272.474 133.161 272.109 133.016C271.75 132.865 271.326 132.789 270.836 132.789H269.805ZM281.945 126.562V138H280.5V128.367L277.586 129.43V128.125L281.719 126.562H281.945Z" fill="#49454F"/>
<g clip-path="url(#clip5_914_3846)">
<path d="M325.195 126.562V138H323.75V128.367L320.836 129.43V128.125L324.969 126.562H325.195Z" fill="#1D1B20"/>
</g>
<g clip-path="url(#clip6_914_3846)">
<path d="M39.8984 181.812V183H32.4531V181.961L36.1797 177.812C36.638 177.302 36.9922 176.87 37.2422 176.516C37.4974 176.156 37.6745 175.836 37.7734 175.555C37.8776 175.268 37.9297 174.977 37.9297 174.68C37.9297 174.305 37.8516 173.966 37.6953 173.664C37.5443 173.357 37.3203 173.112 37.0234 172.93C36.7266 172.747 36.3672 172.656 35.9453 172.656C35.4401 172.656 35.0182 172.755 34.6797 172.953C34.3464 173.146 34.0964 173.417 33.9297 173.766C33.763 174.115 33.6797 174.516 33.6797 174.969H32.2344C32.2344 174.328 32.375 173.742 32.6562 173.211C32.9375 172.68 33.3542 172.258 33.9062 171.945C34.4583 171.628 35.138 171.469 35.9453 171.469C36.6641 171.469 37.2786 171.596 37.7891 171.852C38.2995 172.102 38.6901 172.456 38.9609 172.914C39.237 173.367 39.375 173.898 39.375 174.508C39.375 174.841 39.3177 175.18 39.2031 175.523C39.0938 175.862 38.9401 176.201 38.7422 176.539C38.5495 176.878 38.3229 177.211 38.0625 177.539C37.8073 177.867 37.5339 178.19 37.2422 178.508L34.1953 181.812H39.8984Z" fill="#1D1B20"/>
</g>
<g clip-path="url(#clip7_914_3846)">
<path d="M82.5547 176.602H83.5859C84.0911 176.602 84.5078 176.518 84.8359 176.352C85.1693 176.18 85.4167 175.948 85.5781 175.656C85.7448 175.359 85.8281 175.026 85.8281 174.656C85.8281 174.219 85.7552 173.852 85.6094 173.555C85.4635 173.258 85.2448 173.034 84.9531 172.883C84.6615 172.732 84.2917 172.656 83.8438 172.656C83.4375 172.656 83.0781 172.737 82.7656 172.898C82.4583 173.055 82.2161 173.279 82.0391 173.57C81.8672 173.862 81.7812 174.206 81.7812 174.602H80.3359C80.3359 174.023 80.4818 173.497 80.7734 173.023C81.0651 172.549 81.474 172.172 82 171.891C82.5312 171.609 83.1458 171.469 83.8438 171.469C84.5312 171.469 85.1328 171.591 85.6484 171.836C86.1641 172.076 86.5651 172.435 86.8516 172.914C87.138 173.388 87.2812 173.979 87.2812 174.688C87.2812 174.974 87.2135 175.281 87.0781 175.609C86.9479 175.932 86.7422 176.234 86.4609 176.516C86.1849 176.797 85.8255 177.029 85.3828 177.211C84.9401 177.388 84.4089 177.477 83.7891 177.477H82.5547V176.602ZM82.5547 177.789V176.922H83.7891C84.513 176.922 85.112 177.008 85.5859 177.18C86.0599 177.352 86.4323 177.581 86.7031 177.867C86.9792 178.154 87.1719 178.469 87.2812 178.812C87.3958 179.151 87.4531 179.49 87.4531 179.828C87.4531 180.359 87.362 180.831 87.1797 181.242C87.0026 181.654 86.75 182.003 86.4219 182.289C86.099 182.576 85.7188 182.792 85.2812 182.938C84.8438 183.083 84.3672 183.156 83.8516 183.156C83.3568 183.156 82.8906 183.086 82.4531 182.945C82.0208 182.805 81.638 182.602 81.3047 182.336C80.9714 182.065 80.7109 181.734 80.5234 181.344C80.3359 180.948 80.2422 180.497 80.2422 179.992H81.6875C81.6875 180.388 81.7734 180.734 81.9453 181.031C82.1224 181.328 82.3724 181.56 82.6953 181.727C83.0234 181.888 83.4089 181.969 83.8516 181.969C84.2943 181.969 84.6745 181.893 84.9922 181.742C85.3151 181.586 85.5625 181.352 85.7344 181.039C85.9115 180.727 86 180.333 86 179.859C86 179.385 85.901 178.997 85.7031 178.695C85.5052 178.388 85.224 178.161 84.8594 178.016C84.5 177.865 84.0755 177.789 83.5859 177.789H82.5547Z" fill="#1D1B20"/>
</g>
<g clip-path="url(#clip8_914_3846)">
<path d="M136.133 179.172V180.359H127.914V179.508L133.008 171.625H134.188L132.922 173.906L129.555 179.172H136.133ZM134.547 171.625V183H133.102V171.625H134.547Z" fill="#1D1B20"/>
</g>
<g clip-path="url(#clip9_914_3846)">
<path d="M178.273 177.586L177.117 177.289L177.688 171.625H183.523V172.961H178.914L178.57 176.055C178.779 175.935 179.042 175.823 179.359 175.719C179.682 175.615 180.052 175.562 180.469 175.562C180.995 175.562 181.466 175.654 181.883 175.836C182.299 176.013 182.654 176.268 182.945 176.602C183.242 176.935 183.469 177.336 183.625 177.805C183.781 178.273 183.859 178.797 183.859 179.375C183.859 179.922 183.784 180.424 183.633 180.883C183.487 181.341 183.266 181.742 182.969 182.086C182.672 182.424 182.297 182.688 181.844 182.875C181.396 183.062 180.867 183.156 180.258 183.156C179.799 183.156 179.365 183.094 178.953 182.969C178.547 182.839 178.182 182.643 177.859 182.383C177.542 182.117 177.281 181.789 177.078 181.398C176.88 181.003 176.755 180.539 176.703 180.008H178.078C178.141 180.435 178.266 180.794 178.453 181.086C178.641 181.378 178.885 181.599 179.188 181.75C179.495 181.896 179.852 181.969 180.258 181.969C180.602 181.969 180.906 181.909 181.172 181.789C181.438 181.669 181.661 181.497 181.844 181.273C182.026 181.049 182.164 180.779 182.258 180.461C182.357 180.143 182.406 179.786 182.406 179.391C182.406 179.031 182.357 178.698 182.258 178.391C182.159 178.083 182.01 177.815 181.812 177.586C181.62 177.357 181.383 177.18 181.102 177.055C180.82 176.924 180.497 176.859 180.133 176.859C179.648 176.859 179.281 176.924 179.031 177.055C178.786 177.185 178.534 177.362 178.273 177.586Z" fill="#1D1B20"/>
</g>
<g clip-path="url(#clip10_914_3846)">
<path d="M229.992 171.609H230.117V172.836H229.992C229.227 172.836 228.586 172.961 228.07 173.211C227.555 173.456 227.146 173.786 226.844 174.203C226.542 174.615 226.323 175.078 226.188 175.594C226.057 176.109 225.992 176.633 225.992 177.164V178.836C225.992 179.341 226.052 179.789 226.172 180.18C226.292 180.565 226.456 180.891 226.664 181.156C226.872 181.422 227.107 181.622 227.367 181.758C227.633 181.893 227.909 181.961 228.195 181.961C228.529 181.961 228.826 181.898 229.086 181.773C229.346 181.643 229.565 181.464 229.742 181.234C229.924 181 230.062 180.724 230.156 180.406C230.25 180.089 230.297 179.74 230.297 179.359C230.297 179.021 230.255 178.695 230.172 178.383C230.089 178.065 229.961 177.784 229.789 177.539C229.617 177.289 229.401 177.094 229.141 176.953C228.885 176.807 228.581 176.734 228.227 176.734C227.826 176.734 227.451 176.833 227.102 177.031C226.758 177.224 226.474 177.479 226.25 177.797C226.031 178.109 225.906 178.451 225.875 178.82L225.109 178.812C225.182 178.229 225.318 177.732 225.516 177.32C225.719 176.904 225.969 176.565 226.266 176.305C226.568 176.039 226.904 175.846 227.273 175.727C227.648 175.602 228.044 175.539 228.461 175.539C229.029 175.539 229.518 175.646 229.93 175.859C230.341 176.073 230.68 176.359 230.945 176.719C231.211 177.073 231.406 177.474 231.531 177.922C231.661 178.365 231.727 178.82 231.727 179.289C231.727 179.826 231.651 180.328 231.5 180.797C231.349 181.266 231.122 181.677 230.82 182.031C230.523 182.385 230.156 182.661 229.719 182.859C229.281 183.057 228.773 183.156 228.195 183.156C227.581 183.156 227.044 183.031 226.586 182.781C226.128 182.526 225.747 182.188 225.445 181.766C225.143 181.344 224.917 180.875 224.766 180.359C224.615 179.844 224.539 179.32 224.539 178.789V178.109C224.539 177.307 224.62 176.521 224.781 175.75C224.943 174.979 225.221 174.281 225.617 173.656C226.018 173.031 226.573 172.534 227.281 172.164C227.99 171.794 228.893 171.609 229.992 171.609Z" fill="#1D1B20"/>
</g>
<g clip-path="url(#clip11_914_3846)">
<path d="M279.797 171.625V172.438L275.086 183H273.562L278.266 172.812H272.109V171.625H279.797Z" fill="#1D1B20"/>
</g>
<g clip-path="url(#clip12_914_3846)">
<path d="M327.617 179.922C327.617 180.615 327.456 181.203 327.133 181.688C326.815 182.167 326.383 182.531 325.836 182.781C325.294 183.031 324.682 183.156 324 183.156C323.318 183.156 322.703 183.031 322.156 182.781C321.609 182.531 321.177 182.167 320.859 181.688C320.542 181.203 320.383 180.615 320.383 179.922C320.383 179.469 320.469 179.055 320.641 178.68C320.818 178.299 321.065 177.969 321.383 177.688C321.706 177.406 322.086 177.19 322.523 177.039C322.966 176.883 323.453 176.805 323.984 176.805C324.682 176.805 325.305 176.94 325.852 177.211C326.398 177.477 326.828 177.844 327.141 178.312C327.458 178.781 327.617 179.318 327.617 179.922ZM326.164 179.891C326.164 179.469 326.073 179.096 325.891 178.773C325.708 178.445 325.453 178.19 325.125 178.008C324.797 177.826 324.417 177.734 323.984 177.734C323.542 177.734 323.159 177.826 322.836 178.008C322.518 178.19 322.271 178.445 322.094 178.773C321.917 179.096 321.828 179.469 321.828 179.891C321.828 180.328 321.914 180.703 322.086 181.016C322.263 181.323 322.513 181.56 322.836 181.727C323.164 181.888 323.552 181.969 324 181.969C324.448 181.969 324.833 181.888 325.156 181.727C325.479 181.56 325.727 181.323 325.898 181.016C326.076 180.703 326.164 180.328 326.164 179.891ZM327.352 174.586C327.352 175.138 327.206 175.635 326.914 176.078C326.622 176.521 326.224 176.87 325.719 177.125C325.214 177.38 324.641 177.508 324 177.508C323.349 177.508 322.768 177.38 322.258 177.125C321.753 176.87 321.357 176.521 321.07 176.078C320.784 175.635 320.641 175.138 320.641 174.586C320.641 173.924 320.784 173.362 321.07 172.898C321.362 172.435 321.76 172.081 322.266 171.836C322.771 171.591 323.346 171.469 323.992 171.469C324.643 171.469 325.221 171.591 325.727 171.836C326.232 172.081 326.628 172.435 326.914 172.898C327.206 173.362 327.352 173.924 327.352 174.586ZM325.906 174.609C325.906 174.229 325.826 173.893 325.664 173.602C325.503 173.31 325.279 173.081 324.992 172.914C324.706 172.742 324.372 172.656 323.992 172.656C323.612 172.656 323.279 172.737 322.992 172.898C322.711 173.055 322.49 173.279 322.328 173.57C322.172 173.862 322.094 174.208 322.094 174.609C322.094 175 322.172 175.341 322.328 175.633C322.49 175.924 322.714 176.151 323 176.312C323.286 176.474 323.62 176.555 324 176.555C324.38 176.555 324.711 176.474 324.992 176.312C325.279 176.151 325.503 175.924 325.664 175.633C325.826 175.341 325.906 175 325.906 174.609Z" fill="#1D1B20"/>
</g>
<g clip-path="url(#clip13_914_3846)">
<path d="M33.8828 226.789H34.0312C34.8646 226.789 35.5417 226.672 36.0625 226.438C36.5833 226.203 36.9844 225.888 37.2656 225.492C37.5469 225.096 37.7396 224.651 37.8438 224.156C37.9479 223.656 38 223.143 38 222.617V220.875C38 220.359 37.9401 219.901 37.8203 219.5C37.7057 219.099 37.5443 218.763 37.3359 218.492C37.1328 218.221 36.901 218.016 36.6406 217.875C36.3802 217.734 36.1042 217.664 35.8125 217.664C35.4792 217.664 35.1797 217.732 34.9141 217.867C34.6536 217.997 34.4323 218.182 34.25 218.422C34.0729 218.661 33.9375 218.943 33.8438 219.266C33.75 219.589 33.7031 219.94 33.7031 220.32C33.7031 220.659 33.7448 220.987 33.8281 221.305C33.9115 221.622 34.0391 221.909 34.2109 222.164C34.3828 222.419 34.5964 222.622 34.8516 222.773C35.112 222.919 35.4167 222.992 35.7656 222.992C36.0885 222.992 36.3906 222.93 36.6719 222.805C36.9583 222.674 37.2109 222.5 37.4297 222.281C37.6536 222.057 37.8307 221.805 37.9609 221.523C38.0964 221.242 38.1745 220.948 38.1953 220.641H38.8828C38.8828 221.073 38.7969 221.5 38.625 221.922C38.4583 222.339 38.224 222.719 37.9219 223.062C37.6198 223.406 37.2656 223.682 36.8594 223.891C36.4531 224.094 36.0104 224.195 35.5312 224.195C34.9688 224.195 34.4818 224.086 34.0703 223.867C33.6589 223.648 33.3203 223.357 33.0547 222.992C32.7943 222.628 32.599 222.221 32.4688 221.773C32.3438 221.32 32.2812 220.862 32.2812 220.398C32.2812 219.857 32.3568 219.349 32.5078 218.875C32.6589 218.401 32.8828 217.984 33.1797 217.625C33.4766 217.26 33.8438 216.977 34.2812 216.773C34.724 216.57 35.2344 216.469 35.8125 216.469C36.4635 216.469 37.0182 216.599 37.4766 216.859C37.9349 217.12 38.3073 217.469 38.5938 217.906C38.8854 218.344 39.099 218.836 39.2344 219.383C39.3698 219.93 39.4375 220.492 39.4375 221.07V221.594C39.4375 222.182 39.3984 222.781 39.3203 223.391C39.2474 223.995 39.1042 224.573 38.8906 225.125C38.6823 225.677 38.3776 226.172 37.9766 226.609C37.5755 227.042 37.0521 227.385 36.4062 227.641C35.7656 227.891 34.974 228.016 34.0312 228.016H33.8828V226.789Z" fill="#1D1B20"/>
</g>
<g clip-path="url(#clip14_914_3846)">
<path d="M80.4453 216.562V228H79V218.367L76.0859 219.43V218.125L80.2188 216.562H80.4453ZM92.3359 221.406V223.141C92.3359 224.073 92.2526 224.859 92.0859 225.5C91.9193 226.141 91.6797 226.656 91.3672 227.047C91.0547 227.438 90.6771 227.721 90.2344 227.898C89.7969 228.07 89.3021 228.156 88.75 228.156C88.3125 228.156 87.9089 228.102 87.5391 227.992C87.1693 227.883 86.8359 227.708 86.5391 227.469C86.2474 227.224 85.9974 226.906 85.7891 226.516C85.5807 226.125 85.4219 225.651 85.3125 225.094C85.2031 224.536 85.1484 223.885 85.1484 223.141V221.406C85.1484 220.474 85.2318 219.693 85.3984 219.062C85.5703 218.432 85.8125 217.927 86.125 217.547C86.4375 217.161 86.8125 216.885 87.25 216.719C87.6927 216.552 88.1875 216.469 88.7344 216.469C89.1771 216.469 89.5833 216.523 89.9531 216.633C90.3281 216.737 90.6615 216.906 90.9531 217.141C91.2448 217.37 91.4922 217.677 91.6953 218.062C91.9036 218.443 92.0625 218.909 92.1719 219.461C92.2812 220.013 92.3359 220.661 92.3359 221.406ZM90.8828 223.375V221.164C90.8828 220.654 90.8516 220.206 90.7891 219.82C90.7318 219.43 90.6458 219.096 90.5312 218.82C90.4167 218.544 90.2708 218.32 90.0938 218.148C89.9219 217.977 89.7214 217.852 89.4922 217.773C89.2682 217.69 89.0156 217.648 88.7344 217.648C88.3906 217.648 88.0859 217.714 87.8203 217.844C87.5547 217.969 87.3307 218.169 87.1484 218.445C86.9714 218.721 86.8359 219.083 86.7422 219.531C86.6484 219.979 86.6016 220.523 86.6016 221.164V223.375C86.6016 223.885 86.6302 224.336 86.6875 224.727C86.75 225.117 86.8411 225.456 86.9609 225.742C87.0807 226.023 87.2266 226.255 87.3984 226.438C87.5703 226.62 87.7682 226.755 87.9922 226.844C88.2214 226.927 88.474 226.969 88.75 226.969C89.1042 226.969 89.4141 226.901 89.6797 226.766C89.9453 226.63 90.1667 226.419 90.3438 226.133C90.526 225.841 90.6615 225.469 90.75 225.016C90.8385 224.557 90.8828 224.01 90.8828 223.375Z" fill="#1D1B20"/>
</g>
<g clip-path="url(#clip15_914_3846)">
<path d="M128.445 216.562V228H127V218.367L124.086 219.43V218.125L128.219 216.562H128.445ZM137.945 216.562V228H136.5V218.367L133.586 219.43V218.125L137.719 216.562H137.945Z" fill="#1D1B20"/>
</g>
<g clip-path="url(#clip16_914_3846)">
<path d="M176.445 216.562V228H175V218.367L172.086 219.43V218.125L176.219 216.562H176.445ZM188.648 226.812V228H181.203V226.961L184.93 222.812C185.388 222.302 185.742 221.87 185.992 221.516C186.247 221.156 186.424 220.836 186.523 220.555C186.628 220.268 186.68 219.977 186.68 219.68C186.68 219.305 186.602 218.966 186.445 218.664C186.294 218.357 186.07 218.112 185.773 217.93C185.477 217.747 185.117 217.656 184.695 217.656C184.19 217.656 183.768 217.755 183.43 217.953C183.096 218.146 182.846 218.417 182.68 218.766C182.513 219.115 182.43 219.516 182.43 219.969H180.984C180.984 219.328 181.125 218.742 181.406 218.211C181.688 217.68 182.104 217.258 182.656 216.945C183.208 216.628 183.888 216.469 184.695 216.469C185.414 216.469 186.029 216.596 186.539 216.852C187.049 217.102 187.44 217.456 187.711 217.914C187.987 218.367 188.125 218.898 188.125 219.508C188.125 219.841 188.068 220.18 187.953 220.523C187.844 220.862 187.69 221.201 187.492 221.539C187.299 221.878 187.073 222.211 186.812 222.539C186.557 222.867 186.284 223.19 185.992 223.508L182.945 226.812H188.648Z" fill="#1D1B20"/>
</g>
<g clip-path="url(#clip17_914_3846)">
<path d="M224.445 216.562V228H223V218.367L220.086 219.43V218.125L224.219 216.562H224.445ZM231.305 221.602H232.336C232.841 221.602 233.258 221.518 233.586 221.352C233.919 221.18 234.167 220.948 234.328 220.656C234.495 220.359 234.578 220.026 234.578 219.656C234.578 219.219 234.505 218.852 234.359 218.555C234.214 218.258 233.995 218.034 233.703 217.883C233.411 217.732 233.042 217.656 232.594 217.656C232.188 217.656 231.828 217.737 231.516 217.898C231.208 218.055 230.966 218.279 230.789 218.57C230.617 218.862 230.531 219.206 230.531 219.602H229.086C229.086 219.023 229.232 218.497 229.523 218.023C229.815 217.549 230.224 217.172 230.75 216.891C231.281 216.609 231.896 216.469 232.594 216.469C233.281 216.469 233.883 216.591 234.398 216.836C234.914 217.076 235.315 217.435 235.602 217.914C235.888 218.388 236.031 218.979 236.031 219.688C236.031 219.974 235.964 220.281 235.828 220.609C235.698 220.932 235.492 221.234 235.211 221.516C234.935 221.797 234.576 222.029 234.133 222.211C233.69 222.388 233.159 222.477 232.539 222.477H231.305V221.602ZM231.305 222.789V221.922H232.539C233.263 221.922 233.862 222.008 234.336 222.18C234.81 222.352 235.182 222.581 235.453 222.867C235.729 223.154 235.922 223.469 236.031 223.812C236.146 224.151 236.203 224.49 236.203 224.828C236.203 225.359 236.112 225.831 235.93 226.242C235.753 226.654 235.5 227.003 235.172 227.289C234.849 227.576 234.469 227.792 234.031 227.938C233.594 228.083 233.117 228.156 232.602 228.156C232.107 228.156 231.641 228.086 231.203 227.945C230.771 227.805 230.388 227.602 230.055 227.336C229.721 227.065 229.461 226.734 229.273 226.344C229.086 225.948 228.992 225.497 228.992 224.992H230.438C230.438 225.388 230.523 225.734 230.695 226.031C230.872 226.328 231.122 226.56 231.445 226.727C231.773 226.888 232.159 226.969 232.602 226.969C233.044 226.969 233.424 226.893 233.742 226.742C234.065 226.586 234.312 226.352 234.484 226.039C234.661 225.727 234.75 225.333 234.75 224.859C234.75 224.385 234.651 223.997 234.453 223.695C234.255 223.388 233.974 223.161 233.609 223.016C233.25 222.865 232.826 222.789 232.336 222.789H231.305Z" fill="#1D1B20"/>
</g>
<g clip-path="url(#clip18_914_3846)">
<path d="M272.445 216.562V228H271V218.367L268.086 219.43V218.125L272.219 216.562H272.445ZM284.883 224.172V225.359H276.664V224.508L281.758 216.625H282.938L281.672 218.906L278.305 224.172H284.883ZM283.297 216.625V228H281.852V216.625H283.297Z" fill="#1D1B20"/>
</g>
<g clip-path="url(#clip19_914_3846)">
<path d="M320.445 216.562V228H319V218.367L316.086 219.43V218.125L320.219 216.562H320.445ZM327.023 222.586L325.867 222.289L326.438 216.625H332.273V217.961H327.664L327.32 221.055C327.529 220.935 327.792 220.823 328.109 220.719C328.432 220.615 328.802 220.562 329.219 220.562C329.745 220.562 330.216 220.654 330.633 220.836C331.049 221.013 331.404 221.268 331.695 221.602C331.992 221.935 332.219 222.336 332.375 222.805C332.531 223.273 332.609 223.797 332.609 224.375C332.609 224.922 332.534 225.424 332.383 225.883C332.237 226.341 332.016 226.742 331.719 227.086C331.422 227.424 331.047 227.688 330.594 227.875C330.146 228.062 329.617 228.156 329.008 228.156C328.549 228.156 328.115 228.094 327.703 227.969C327.297 227.839 326.932 227.643 326.609 227.383C326.292 227.117 326.031 226.789 325.828 226.398C325.63 226.003 325.505 225.539 325.453 225.008H326.828C326.891 225.435 327.016 225.794 327.203 226.086C327.391 226.378 327.635 226.599 327.938 226.75C328.245 226.896 328.602 226.969 329.008 226.969C329.352 226.969 329.656 226.909 329.922 226.789C330.188 226.669 330.411 226.497 330.594 226.273C330.776 226.049 330.914 225.779 331.008 225.461C331.107 225.143 331.156 224.786 331.156 224.391C331.156 224.031 331.107 223.698 331.008 223.391C330.909 223.083 330.76 222.815 330.562 222.586C330.37 222.357 330.133 222.18 329.852 222.055C329.57 221.924 329.247 221.859 328.883 221.859C328.398 221.859 328.031 221.924 327.781 222.055C327.536 222.185 327.284 222.362 327.023 222.586Z" fill="#1D1B20"/>
</g>
<g clip-path="url(#clip20_914_3846)">
<path d="M32.4453 261.562V273H31V263.367L28.0859 264.43V263.125L32.2188 261.562H32.4453ZM42.7422 261.609H42.8672V262.836H42.7422C41.9766 262.836 41.3359 262.961 40.8203 263.211C40.3047 263.456 39.8958 263.786 39.5938 264.203C39.2917 264.615 39.0729 265.078 38.9375 265.594C38.8073 266.109 38.7422 266.633 38.7422 267.164V268.836C38.7422 269.341 38.8021 269.789 38.9219 270.18C39.0417 270.565 39.2057 270.891 39.4141 271.156C39.6224 271.422 39.8568 271.622 40.1172 271.758C40.3828 271.893 40.6589 271.961 40.9453 271.961C41.2786 271.961 41.5755 271.898 41.8359 271.773C42.0964 271.643 42.3151 271.464 42.4922 271.234C42.6745 271 42.8125 270.724 42.9062 270.406C43 270.089 43.0469 269.74 43.0469 269.359C43.0469 269.021 43.0052 268.695 42.9219 268.383C42.8385 268.065 42.7109 267.784 42.5391 267.539C42.3672 267.289 42.151 267.094 41.8906 266.953C41.6354 266.807 41.3307 266.734 40.9766 266.734C40.5755 266.734 40.2005 266.833 39.8516 267.031C39.5078 267.224 39.224 267.479 39 267.797C38.7812 268.109 38.6562 268.451 38.625 268.82L37.8594 268.812C37.9323 268.229 38.0677 267.732 38.2656 267.32C38.4688 266.904 38.7188 266.565 39.0156 266.305C39.3177 266.039 39.6536 265.846 40.0234 265.727C40.3984 265.602 40.7943 265.539 41.2109 265.539C41.7786 265.539 42.2682 265.646 42.6797 265.859C43.0911 266.073 43.4297 266.359 43.6953 266.719C43.9609 267.073 44.1562 267.474 44.2812 267.922C44.4115 268.365 44.4766 268.82 44.4766 269.289C44.4766 269.826 44.401 270.328 44.25 270.797C44.099 271.266 43.8724 271.677 43.5703 272.031C43.2734 272.385 42.9062 272.661 42.4688 272.859C42.0312 273.057 41.5234 273.156 40.9453 273.156C40.3307 273.156 39.7943 273.031 39.3359 272.781C38.8776 272.526 38.4974 272.188 38.1953 271.766C37.8932 271.344 37.6667 270.875 37.5156 270.359C37.3646 269.844 37.2891 269.32 37.2891 268.789V268.109C37.2891 267.307 37.3698 266.521 37.5312 265.75C37.6927 264.979 37.9714 264.281 38.3672 263.656C38.7682 263.031 39.3229 262.534 40.0312 262.164C40.7396 261.794 41.6432 261.609 42.7422 261.609Z" fill="#1D1B20"/>
</g>
<g clip-path="url(#clip21_914_3846)">
<rect x="64" y="248" width="40" height="40" rx="20" fill="#6750A4"/>
<path d="M80.4453 261.562V273H79V263.367L76.0859 264.43V263.125L80.2188 261.562H80.4453ZM92.5469 261.625V262.438L87.8359 273H86.3125L91.0156 262.812H84.8594V261.625H92.5469Z" fill="white"/>
</g>
<g clip-path="url(#clip22_914_3846)">
<path d="M128.445 261.562V273H127V263.367L124.086 264.43V263.125L128.219 261.562H128.445ZM140.367 269.922C140.367 270.615 140.206 271.203 139.883 271.688C139.565 272.167 139.133 272.531 138.586 272.781C138.044 273.031 137.432 273.156 136.75 273.156C136.068 273.156 135.453 273.031 134.906 272.781C134.359 272.531 133.927 272.167 133.609 271.688C133.292 271.203 133.133 270.615 133.133 269.922C133.133 269.469 133.219 269.055 133.391 268.68C133.568 268.299 133.815 267.969 134.133 267.688C134.456 267.406 134.836 267.19 135.273 267.039C135.716 266.883 136.203 266.805 136.734 266.805C137.432 266.805 138.055 266.94 138.602 267.211C139.148 267.477 139.578 267.844 139.891 268.312C140.208 268.781 140.367 269.318 140.367 269.922ZM138.914 269.891C138.914 269.469 138.823 269.096 138.641 268.773C138.458 268.445 138.203 268.19 137.875 268.008C137.547 267.826 137.167 267.734 136.734 267.734C136.292 267.734 135.909 267.826 135.586 268.008C135.268 268.19 135.021 268.445 134.844 268.773C134.667 269.096 134.578 269.469 134.578 269.891C134.578 270.328 134.664 270.703 134.836 271.016C135.013 271.323 135.263 271.56 135.586 271.727C135.914 271.888 136.302 271.969 136.75 271.969C137.198 271.969 137.583 271.888 137.906 271.727C138.229 271.56 138.477 271.323 138.648 271.016C138.826 270.703 138.914 270.328 138.914 269.891ZM140.102 264.586C140.102 265.138 139.956 265.635 139.664 266.078C139.372 266.521 138.974 266.87 138.469 267.125C137.964 267.38 137.391 267.508 136.75 267.508C136.099 267.508 135.518 267.38 135.008 267.125C134.503 266.87 134.107 266.521 133.82 266.078C133.534 265.635 133.391 265.138 133.391 264.586C133.391 263.924 133.534 263.362 133.82 262.898C134.112 262.435 134.51 262.081 135.016 261.836C135.521 261.591 136.096 261.469 136.742 261.469C137.393 261.469 137.971 261.591 138.477 261.836C138.982 262.081 139.378 262.435 139.664 262.898C139.956 263.362 140.102 263.924 140.102 264.586ZM138.656 264.609C138.656 264.229 138.576 263.893 138.414 263.602C138.253 263.31 138.029 263.081 137.742 262.914C137.456 262.742 137.122 262.656 136.742 262.656C136.362 262.656 136.029 262.737 135.742 262.898C135.461 263.055 135.24 263.279 135.078 263.57C134.922 263.862 134.844 264.208 134.844 264.609C134.844 265 134.922 265.341 135.078 265.633C135.24 265.924 135.464 266.151 135.75 266.312C136.036 266.474 136.37 266.555 136.75 266.555C137.13 266.555 137.461 266.474 137.742 266.312C138.029 266.151 138.253 265.924 138.414 265.633C138.576 265.341 138.656 265 138.656 264.609Z" fill="#1D1B20"/>
</g>
<g clip-path="url(#clip23_914_3846)">
<path d="M176.445 261.562V273H175V263.367L172.086 264.43V263.125L176.219 261.562H176.445ZM182.633 271.789H182.781C183.615 271.789 184.292 271.672 184.812 271.438C185.333 271.203 185.734 270.888 186.016 270.492C186.297 270.096 186.49 269.651 186.594 269.156C186.698 268.656 186.75 268.143 186.75 267.617V265.875C186.75 265.359 186.69 264.901 186.57 264.5C186.456 264.099 186.294 263.763 186.086 263.492C185.883 263.221 185.651 263.016 185.391 262.875C185.13 262.734 184.854 262.664 184.562 262.664C184.229 262.664 183.93 262.732 183.664 262.867C183.404 262.997 183.182 263.182 183 263.422C182.823 263.661 182.688 263.943 182.594 264.266C182.5 264.589 182.453 264.94 182.453 265.32C182.453 265.659 182.495 265.987 182.578 266.305C182.661 266.622 182.789 266.909 182.961 267.164C183.133 267.419 183.346 267.622 183.602 267.773C183.862 267.919 184.167 267.992 184.516 267.992C184.839 267.992 185.141 267.93 185.422 267.805C185.708 267.674 185.961 267.5 186.18 267.281C186.404 267.057 186.581 266.805 186.711 266.523C186.846 266.242 186.924 265.948 186.945 265.641H187.633C187.633 266.073 187.547 266.5 187.375 266.922C187.208 267.339 186.974 267.719 186.672 268.062C186.37 268.406 186.016 268.682 185.609 268.891C185.203 269.094 184.76 269.195 184.281 269.195C183.719 269.195 183.232 269.086 182.82 268.867C182.409 268.648 182.07 268.357 181.805 267.992C181.544 267.628 181.349 267.221 181.219 266.773C181.094 266.32 181.031 265.862 181.031 265.398C181.031 264.857 181.107 264.349 181.258 263.875C181.409 263.401 181.633 262.984 181.93 262.625C182.227 262.26 182.594 261.977 183.031 261.773C183.474 261.57 183.984 261.469 184.562 261.469C185.214 261.469 185.768 261.599 186.227 261.859C186.685 262.12 187.057 262.469 187.344 262.906C187.635 263.344 187.849 263.836 187.984 264.383C188.12 264.93 188.188 265.492 188.188 266.07V266.594C188.188 267.182 188.148 267.781 188.07 268.391C187.997 268.995 187.854 269.573 187.641 270.125C187.432 270.677 187.128 271.172 186.727 271.609C186.326 272.042 185.802 272.385 185.156 272.641C184.516 272.891 183.724 273.016 182.781 273.016H182.633V271.789Z" fill="#1D1B20"/>
</g>
<g clip-path="url(#clip24_914_3846)">
<path d="M227.148 271.812V273H219.703V271.961L223.43 267.812C223.888 267.302 224.242 266.87 224.492 266.516C224.747 266.156 224.924 265.836 225.023 265.555C225.128 265.268 225.18 264.977 225.18 264.68C225.18 264.305 225.102 263.966 224.945 263.664C224.794 263.357 224.57 263.112 224.273 262.93C223.977 262.747 223.617 262.656 223.195 262.656C222.69 262.656 222.268 262.755 221.93 262.953C221.596 263.146 221.346 263.417 221.18 263.766C221.013 264.115 220.93 264.516 220.93 264.969H219.484C219.484 264.328 219.625 263.742 219.906 263.211C220.188 262.68 220.604 262.258 221.156 261.945C221.708 261.628 222.388 261.469 223.195 261.469C223.914 261.469 224.529 261.596 225.039 261.852C225.549 262.102 225.94 262.456 226.211 262.914C226.487 263.367 226.625 263.898 226.625 264.508C226.625 264.841 226.568 265.18 226.453 265.523C226.344 265.862 226.19 266.201 225.992 266.539C225.799 266.878 225.573 267.211 225.312 267.539C225.057 267.867 224.784 268.19 224.492 268.508L221.445 271.812H227.148ZM236.336 266.406V268.141C236.336 269.073 236.253 269.859 236.086 270.5C235.919 271.141 235.68 271.656 235.367 272.047C235.055 272.438 234.677 272.721 234.234 272.898C233.797 273.07 233.302 273.156 232.75 273.156C232.312 273.156 231.909 273.102 231.539 272.992C231.169 272.883 230.836 272.708 230.539 272.469C230.247 272.224 229.997 271.906 229.789 271.516C229.581 271.125 229.422 270.651 229.312 270.094C229.203 269.536 229.148 268.885 229.148 268.141V266.406C229.148 265.474 229.232 264.693 229.398 264.062C229.57 263.432 229.812 262.927 230.125 262.547C230.438 262.161 230.812 261.885 231.25 261.719C231.693 261.552 232.188 261.469 232.734 261.469C233.177 261.469 233.583 261.523 233.953 261.633C234.328 261.737 234.661 261.906 234.953 262.141C235.245 262.37 235.492 262.677 235.695 263.062C235.904 263.443 236.062 263.909 236.172 264.461C236.281 265.013 236.336 265.661 236.336 266.406ZM234.883 268.375V266.164C234.883 265.654 234.852 265.206 234.789 264.82C234.732 264.43 234.646 264.096 234.531 263.82C234.417 263.544 234.271 263.32 234.094 263.148C233.922 262.977 233.721 262.852 233.492 262.773C233.268 262.69 233.016 262.648 232.734 262.648C232.391 262.648 232.086 262.714 231.82 262.844C231.555 262.969 231.331 263.169 231.148 263.445C230.971 263.721 230.836 264.083 230.742 264.531C230.648 264.979 230.602 265.523 230.602 266.164V268.375C230.602 268.885 230.63 269.336 230.688 269.727C230.75 270.117 230.841 270.456 230.961 270.742C231.081 271.023 231.227 271.255 231.398 271.438C231.57 271.62 231.768 271.755 231.992 271.844C232.221 271.927 232.474 271.969 232.75 271.969C233.104 271.969 233.414 271.901 233.68 271.766C233.945 271.63 234.167 271.419 234.344 271.133C234.526 270.841 234.661 270.469 234.75 270.016C234.839 269.557 234.883 269.01 234.883 268.375Z" fill="#1D1B20"/>
</g>
<g clip-path="url(#clip25_914_3846)">
<path d="M275.148 271.812V273H267.703V271.961L271.43 267.812C271.888 267.302 272.242 266.87 272.492 266.516C272.747 266.156 272.924 265.836 273.023 265.555C273.128 265.268 273.18 264.977 273.18 264.68C273.18 264.305 273.102 263.966 272.945 263.664C272.794 263.357 272.57 263.112 272.273 262.93C271.977 262.747 271.617 262.656 271.195 262.656C270.69 262.656 270.268 262.755 269.93 262.953C269.596 263.146 269.346 263.417 269.18 263.766C269.013 264.115 268.93 264.516 268.93 264.969H267.484C267.484 264.328 267.625 263.742 267.906 263.211C268.188 262.68 268.604 262.258 269.156 261.945C269.708 261.628 270.388 261.469 271.195 261.469C271.914 261.469 272.529 261.596 273.039 261.852C273.549 262.102 273.94 262.456 274.211 262.914C274.487 263.367 274.625 263.898 274.625 264.508C274.625 264.841 274.568 265.18 274.453 265.523C274.344 265.862 274.19 266.201 273.992 266.539C273.799 266.878 273.573 267.211 273.312 267.539C273.057 267.867 272.784 268.19 272.492 268.508L269.445 271.812H275.148ZM281.945 261.562V273H280.5V263.367L277.586 264.43V263.125L281.719 261.562H281.945Z" fill="#1D1B20"/>
</g>
<g clip-path="url(#clip26_914_3846)">
<path d="M323.148 271.812V273H315.703V271.961L319.43 267.812C319.888 267.302 320.242 266.87 320.492 266.516C320.747 266.156 320.924 265.836 321.023 265.555C321.128 265.268 321.18 264.977 321.18 264.68C321.18 264.305 321.102 263.966 320.945 263.664C320.794 263.357 320.57 263.112 320.273 262.93C319.977 262.747 319.617 262.656 319.195 262.656C318.69 262.656 318.268 262.755 317.93 262.953C317.596 263.146 317.346 263.417 317.18 263.766C317.013 264.115 316.93 264.516 316.93 264.969H315.484C315.484 264.328 315.625 263.742 315.906 263.211C316.188 262.68 316.604 262.258 317.156 261.945C317.708 261.628 318.388 261.469 319.195 261.469C319.914 261.469 320.529 261.596 321.039 261.852C321.549 262.102 321.94 262.456 322.211 262.914C322.487 263.367 322.625 263.898 322.625 264.508C322.625 264.841 322.568 265.18 322.453 265.523C322.344 265.862 322.19 266.201 321.992 266.539C321.799 266.878 321.573 267.211 321.312 267.539C321.057 267.867 320.784 268.19 320.492 268.508L317.445 271.812H323.148ZM332.648 271.812V273H325.203V271.961L328.93 267.812C329.388 267.302 329.742 266.87 329.992 266.516C330.247 266.156 330.424 265.836 330.523 265.555C330.628 265.268 330.68 264.977 330.68 264.68C330.68 264.305 330.602 263.966 330.445 263.664C330.294 263.357 330.07 263.112 329.773 262.93C329.477 262.747 329.117 262.656 328.695 262.656C328.19 262.656 327.768 262.755 327.43 262.953C327.096 263.146 326.846 263.417 326.68 263.766C326.513 264.115 326.43 264.516 326.43 264.969H324.984C324.984 264.328 325.125 263.742 325.406 263.211C325.688 262.68 326.104 262.258 326.656 261.945C327.208 261.628 327.888 261.469 328.695 261.469C329.414 261.469 330.029 261.596 330.539 261.852C331.049 262.102 331.44 262.456 331.711 262.914C331.987 263.367 332.125 263.898 332.125 264.508C332.125 264.841 332.068 265.18 331.953 265.523C331.844 265.862 331.69 266.201 331.492 266.539C331.299 266.878 331.073 267.211 330.812 267.539C330.557 267.867 330.284 268.19 329.992 268.508L326.945 271.812H332.648Z" fill="#1D1B20"/>
</g>
<g clip-path="url(#clip27_914_3846)">
<path d="M35.1484 316.812V318H27.7031V316.961L31.4297 312.812C31.888 312.302 32.2422 311.87 32.4922 311.516C32.7474 311.156 32.9245 310.836 33.0234 310.555C33.1276 310.268 33.1797 309.977 33.1797 309.68C33.1797 309.305 33.1016 308.966 32.9453 308.664C32.7943 308.357 32.5703 308.112 32.2734 307.93C31.9766 307.747 31.6172 307.656 31.1953 307.656C30.6901 307.656 30.2682 307.755 29.9297 307.953C29.5964 308.146 29.3464 308.417 29.1797 308.766C29.013 309.115 28.9297 309.516 28.9297 309.969H27.4844C27.4844 309.328 27.625 308.742 27.9062 308.211C28.1875 307.68 28.6042 307.258 29.1562 306.945C29.7083 306.628 30.388 306.469 31.1953 306.469C31.9141 306.469 32.5286 306.596 33.0391 306.852C33.5495 307.102 33.9401 307.456 34.2109 307.914C34.487 308.367 34.625 308.898 34.625 309.508C34.625 309.841 34.5677 310.18 34.4531 310.523C34.3438 310.862 34.1901 311.201 33.9922 311.539C33.7995 311.878 33.5729 312.211 33.3125 312.539C33.0573 312.867 32.7839 313.19 32.4922 313.508L29.4453 316.812H35.1484ZM39.3047 311.602H40.3359C40.8411 311.602 41.2578 311.518 41.5859 311.352C41.9193 311.18 42.1667 310.948 42.3281 310.656C42.4948 310.359 42.5781 310.026 42.5781 309.656C42.5781 309.219 42.5052 308.852 42.3594 308.555C42.2135 308.258 41.9948 308.034 41.7031 307.883C41.4115 307.732 41.0417 307.656 40.5938 307.656C40.1875 307.656 39.8281 307.737 39.5156 307.898C39.2083 308.055 38.9661 308.279 38.7891 308.57C38.6172 308.862 38.5312 309.206 38.5312 309.602H37.0859C37.0859 309.023 37.2318 308.497 37.5234 308.023C37.8151 307.549 38.224 307.172 38.75 306.891C39.2812 306.609 39.8958 306.469 40.5938 306.469C41.2812 306.469 41.8828 306.591 42.3984 306.836C42.9141 307.076 43.3151 307.435 43.6016 307.914C43.888 308.388 44.0312 308.979 44.0312 309.688C44.0312 309.974 43.9635 310.281 43.8281 310.609C43.6979 310.932 43.4922 311.234 43.2109 311.516C42.9349 311.797 42.5755 312.029 42.1328 312.211C41.6901 312.388 41.1589 312.477 40.5391 312.477H39.3047V311.602ZM39.3047 312.789V311.922H40.5391C41.263 311.922 41.862 312.008 42.3359 312.18C42.8099 312.352 43.1823 312.581 43.4531 312.867C43.7292 313.154 43.9219 313.469 44.0312 313.812C44.1458 314.151 44.2031 314.49 44.2031 314.828C44.2031 315.359 44.112 315.831 43.9297 316.242C43.7526 316.654 43.5 317.003 43.1719 317.289C42.849 317.576 42.4688 317.792 42.0312 317.938C41.5938 318.083 41.1172 318.156 40.6016 318.156C40.1068 318.156 39.6406 318.086 39.2031 317.945C38.7708 317.805 38.388 317.602 38.0547 317.336C37.7214 317.065 37.4609 316.734 37.2734 316.344C37.0859 315.948 36.9922 315.497 36.9922 314.992H38.4375C38.4375 315.388 38.5234 315.734 38.6953 316.031C38.8724 316.328 39.1224 316.56 39.4453 316.727C39.7734 316.888 40.1589 316.969 40.6016 316.969C41.0443 316.969 41.4245 316.893 41.7422 316.742C42.0651 316.586 42.3125 316.352 42.4844 316.039C42.6615 315.727 42.75 315.333 42.75 314.859C42.75 314.385 42.651 313.997 42.4531 313.695C42.2552 313.388 41.974 313.161 41.6094 313.016C41.25 312.865 40.8255 312.789 40.3359 312.789H39.3047Z" fill="#1D1B20"/>
</g>
<g clip-path="url(#clip28_914_3846)">
<path d="M83.1484 316.812V318H75.7031V316.961L79.4297 312.812C79.888 312.302 80.2422 311.87 80.4922 311.516C80.7474 311.156 80.9245 310.836 81.0234 310.555C81.1276 310.268 81.1797 309.977 81.1797 309.68C81.1797 309.305 81.1016 308.966 80.9453 308.664C80.7943 308.357 80.5703 308.112 80.2734 307.93C79.9766 307.747 79.6172 307.656 79.1953 307.656C78.6901 307.656 78.2682 307.755 77.9297 307.953C77.5964 308.146 77.3464 308.417 77.1797 308.766C77.013 309.115 76.9297 309.516 76.9297 309.969H75.4844C75.4844 309.328 75.625 308.742 75.9062 308.211C76.1875 307.68 76.6042 307.258 77.1562 306.945C77.7083 306.628 78.388 306.469 79.1953 306.469C79.9141 306.469 80.5286 306.596 81.0391 306.852C81.5495 307.102 81.9401 307.456 82.2109 307.914C82.487 308.367 82.625 308.898 82.625 309.508C82.625 309.841 82.5677 310.18 82.4531 310.523C82.3438 310.862 82.1901 311.201 81.9922 311.539C81.7995 311.878 81.5729 312.211 81.3125 312.539C81.0573 312.867 80.7839 313.19 80.4922 313.508L77.4453 316.812H83.1484ZM92.8828 314.172V315.359H84.6641V314.508L89.7578 306.625H90.9375L89.6719 308.906L86.3047 314.172H92.8828ZM91.2969 306.625V318H89.8516V306.625H91.2969Z" fill="#1D1B20"/>
</g>
<g clip-path="url(#clip29_914_3846)">
<path d="M131.148 316.812V318H123.703V316.961L127.43 312.812C127.888 312.302 128.242 311.87 128.492 311.516C128.747 311.156 128.924 310.836 129.023 310.555C129.128 310.268 129.18 309.977 129.18 309.68C129.18 309.305 129.102 308.966 128.945 308.664C128.794 308.357 128.57 308.112 128.273 307.93C127.977 307.747 127.617 307.656 127.195 307.656C126.69 307.656 126.268 307.755 125.93 307.953C125.596 308.146 125.346 308.417 125.18 308.766C125.013 309.115 124.93 309.516 124.93 309.969H123.484C123.484 309.328 123.625 308.742 123.906 308.211C124.188 307.68 124.604 307.258 125.156 306.945C125.708 306.628 126.388 306.469 127.195 306.469C127.914 306.469 128.529 306.596 129.039 306.852C129.549 307.102 129.94 307.456 130.211 307.914C130.487 308.367 130.625 308.898 130.625 309.508C130.625 309.841 130.568 310.18 130.453 310.523C130.344 310.862 130.19 311.201 129.992 311.539C129.799 311.878 129.573 312.211 129.312 312.539C129.057 312.867 128.784 313.19 128.492 313.508L125.445 316.812H131.148ZM135.023 312.586L133.867 312.289L134.438 306.625H140.273V307.961H135.664L135.32 311.055C135.529 310.935 135.792 310.823 136.109 310.719C136.432 310.615 136.802 310.562 137.219 310.562C137.745 310.562 138.216 310.654 138.633 310.836C139.049 311.013 139.404 311.268 139.695 311.602C139.992 311.935 140.219 312.336 140.375 312.805C140.531 313.273 140.609 313.797 140.609 314.375C140.609 314.922 140.534 315.424 140.383 315.883C140.237 316.341 140.016 316.742 139.719 317.086C139.422 317.424 139.047 317.688 138.594 317.875C138.146 318.062 137.617 318.156 137.008 318.156C136.549 318.156 136.115 318.094 135.703 317.969C135.297 317.839 134.932 317.643 134.609 317.383C134.292 317.117 134.031 316.789 133.828 316.398C133.63 316.003 133.505 315.539 133.453 315.008H134.828C134.891 315.435 135.016 315.794 135.203 316.086C135.391 316.378 135.635 316.599 135.938 316.75C136.245 316.896 136.602 316.969 137.008 316.969C137.352 316.969 137.656 316.909 137.922 316.789C138.188 316.669 138.411 316.497 138.594 316.273C138.776 316.049 138.914 315.779 139.008 315.461C139.107 315.143 139.156 314.786 139.156 314.391C139.156 314.031 139.107 313.698 139.008 313.391C138.909 313.083 138.76 312.815 138.562 312.586C138.37 312.357 138.133 312.18 137.852 312.055C137.57 311.924 137.247 311.859 136.883 311.859C136.398 311.859 136.031 311.924 135.781 312.055C135.536 312.185 135.284 312.362 135.023 312.586Z" fill="#1D1B20"/>
</g>
<g clip-path="url(#clip30_914_3846)">
<path d="M179.148 316.812V318H171.703V316.961L175.43 312.812C175.888 312.302 176.242 311.87 176.492 311.516C176.747 311.156 176.924 310.836 177.023 310.555C177.128 310.268 177.18 309.977 177.18 309.68C177.18 309.305 177.102 308.966 176.945 308.664C176.794 308.357 176.57 308.112 176.273 307.93C175.977 307.747 175.617 307.656 175.195 307.656C174.69 307.656 174.268 307.755 173.93 307.953C173.596 308.146 173.346 308.417 173.18 308.766C173.013 309.115 172.93 309.516 172.93 309.969H171.484C171.484 309.328 171.625 308.742 171.906 308.211C172.188 307.68 172.604 307.258 173.156 306.945C173.708 306.628 174.388 306.469 175.195 306.469C175.914 306.469 176.529 306.596 177.039 306.852C177.549 307.102 177.94 307.456 178.211 307.914C178.487 308.367 178.625 308.898 178.625 309.508C178.625 309.841 178.568 310.18 178.453 310.523C178.344 310.862 178.19 311.201 177.992 311.539C177.799 311.878 177.573 312.211 177.312 312.539C177.057 312.867 176.784 313.19 176.492 313.508L173.445 316.812H179.148ZM186.742 306.609H186.867V307.836H186.742C185.977 307.836 185.336 307.961 184.82 308.211C184.305 308.456 183.896 308.786 183.594 309.203C183.292 309.615 183.073 310.078 182.938 310.594C182.807 311.109 182.742 311.633 182.742 312.164V313.836C182.742 314.341 182.802 314.789 182.922 315.18C183.042 315.565 183.206 315.891 183.414 316.156C183.622 316.422 183.857 316.622 184.117 316.758C184.383 316.893 184.659 316.961 184.945 316.961C185.279 316.961 185.576 316.898 185.836 316.773C186.096 316.643 186.315 316.464 186.492 316.234C186.674 316 186.812 315.724 186.906 315.406C187 315.089 187.047 314.74 187.047 314.359C187.047 314.021 187.005 313.695 186.922 313.383C186.839 313.065 186.711 312.784 186.539 312.539C186.367 312.289 186.151 312.094 185.891 311.953C185.635 311.807 185.331 311.734 184.977 311.734C184.576 311.734 184.201 311.833 183.852 312.031C183.508 312.224 183.224 312.479 183 312.797C182.781 313.109 182.656 313.451 182.625 313.82L181.859 313.812C181.932 313.229 182.068 312.732 182.266 312.32C182.469 311.904 182.719 311.565 183.016 311.305C183.318 311.039 183.654 310.846 184.023 310.727C184.398 310.602 184.794 310.539 185.211 310.539C185.779 310.539 186.268 310.646 186.68 310.859C187.091 311.073 187.43 311.359 187.695 311.719C187.961 312.073 188.156 312.474 188.281 312.922C188.411 313.365 188.477 313.82 188.477 314.289C188.477 314.826 188.401 315.328 188.25 315.797C188.099 316.266 187.872 316.677 187.57 317.031C187.273 317.385 186.906 317.661 186.469 317.859C186.031 318.057 185.523 318.156 184.945 318.156C184.331 318.156 183.794 318.031 183.336 317.781C182.878 317.526 182.497 317.188 182.195 316.766C181.893 316.344 181.667 315.875 181.516 315.359C181.365 314.844 181.289 314.32 181.289 313.789V313.109C181.289 312.307 181.37 311.521 181.531 310.75C181.693 309.979 181.971 309.281 182.367 308.656C182.768 308.031 183.323 307.534 184.031 307.164C184.74 306.794 185.643 306.609 186.742 306.609Z" fill="#1D1B20"/>
</g>
<g clip-path="url(#clip31_914_3846)">
<path d="M227.148 316.812V318H219.703V316.961L223.43 312.812C223.888 312.302 224.242 311.87 224.492 311.516C224.747 311.156 224.924 310.836 225.023 310.555C225.128 310.268 225.18 309.977 225.18 309.68C225.18 309.305 225.102 308.966 224.945 308.664C224.794 308.357 224.57 308.112 224.273 307.93C223.977 307.747 223.617 307.656 223.195 307.656C222.69 307.656 222.268 307.755 221.93 307.953C221.596 308.146 221.346 308.417 221.18 308.766C221.013 309.115 220.93 309.516 220.93 309.969H219.484C219.484 309.328 219.625 308.742 219.906 308.211C220.188 307.68 220.604 307.258 221.156 306.945C221.708 306.628 222.388 306.469 223.195 306.469C223.914 306.469 224.529 306.596 225.039 306.852C225.549 307.102 225.94 307.456 226.211 307.914C226.487 308.367 226.625 308.898 226.625 309.508C226.625 309.841 226.568 310.18 226.453 310.523C226.344 310.862 226.19 311.201 225.992 311.539C225.799 311.878 225.573 312.211 225.312 312.539C225.057 312.867 224.784 313.19 224.492 313.508L221.445 316.812H227.148ZM236.547 306.625V307.438L231.836 318H230.312L235.016 307.812H228.859V306.625H236.547Z" fill="#1D1B20"/>
</g>
<g clip-path="url(#clip32_914_3846)">
<path d="M275.148 316.812V318H267.703V316.961L271.43 312.812C271.888 312.302 272.242 311.87 272.492 311.516C272.747 311.156 272.924 310.836 273.023 310.555C273.128 310.268 273.18 309.977 273.18 309.68C273.18 309.305 273.102 308.966 272.945 308.664C272.794 308.357 272.57 308.112 272.273 307.93C271.977 307.747 271.617 307.656 271.195 307.656C270.69 307.656 270.268 307.755 269.93 307.953C269.596 308.146 269.346 308.417 269.18 308.766C269.013 309.115 268.93 309.516 268.93 309.969H267.484C267.484 309.328 267.625 308.742 267.906 308.211C268.188 307.68 268.604 307.258 269.156 306.945C269.708 306.628 270.388 306.469 271.195 306.469C271.914 306.469 272.529 306.596 273.039 306.852C273.549 307.102 273.94 307.456 274.211 307.914C274.487 308.367 274.625 308.898 274.625 309.508C274.625 309.841 274.568 310.18 274.453 310.523C274.344 310.862 274.19 311.201 273.992 311.539C273.799 311.878 273.573 312.211 273.312 312.539C273.057 312.867 272.784 313.19 272.492 313.508L269.445 316.812H275.148ZM284.367 314.922C284.367 315.615 284.206 316.203 283.883 316.688C283.565 317.167 283.133 317.531 282.586 317.781C282.044 318.031 281.432 318.156 280.75 318.156C280.068 318.156 279.453 318.031 278.906 317.781C278.359 317.531 277.927 317.167 277.609 316.688C277.292 316.203 277.133 315.615 277.133 314.922C277.133 314.469 277.219 314.055 277.391 313.68C277.568 313.299 277.815 312.969 278.133 312.688C278.456 312.406 278.836 312.19 279.273 312.039C279.716 311.883 280.203 311.805 280.734 311.805C281.432 311.805 282.055 311.94 282.602 312.211C283.148 312.477 283.578 312.844 283.891 313.312C284.208 313.781 284.367 314.318 284.367 314.922ZM282.914 314.891C282.914 314.469 282.823 314.096 282.641 313.773C282.458 313.445 282.203 313.19 281.875 313.008C281.547 312.826 281.167 312.734 280.734 312.734C280.292 312.734 279.909 312.826 279.586 313.008C279.268 313.19 279.021 313.445 278.844 313.773C278.667 314.096 278.578 314.469 278.578 314.891C278.578 315.328 278.664 315.703 278.836 316.016C279.013 316.323 279.263 316.56 279.586 316.727C279.914 316.888 280.302 316.969 280.75 316.969C281.198 316.969 281.583 316.888 281.906 316.727C282.229 316.56 282.477 316.323 282.648 316.016C282.826 315.703 282.914 315.328 282.914 314.891ZM284.102 309.586C284.102 310.138 283.956 310.635 283.664 311.078C283.372 311.521 282.974 311.87 282.469 312.125C281.964 312.38 281.391 312.508 280.75 312.508C280.099 312.508 279.518 312.38 279.008 312.125C278.503 311.87 278.107 311.521 277.82 311.078C277.534 310.635 277.391 310.138 277.391 309.586C277.391 308.924 277.534 308.362 277.82 307.898C278.112 307.435 278.51 307.081 279.016 306.836C279.521 306.591 280.096 306.469 280.742 306.469C281.393 306.469 281.971 306.591 282.477 306.836C282.982 307.081 283.378 307.435 283.664 307.898C283.956 308.362 284.102 308.924 284.102 309.586ZM282.656 309.609C282.656 309.229 282.576 308.893 282.414 308.602C282.253 308.31 282.029 308.081 281.742 307.914C281.456 307.742 281.122 307.656 280.742 307.656C280.362 307.656 280.029 307.737 279.742 307.898C279.461 308.055 279.24 308.279 279.078 308.57C278.922 308.862 278.844 309.208 278.844 309.609C278.844 310 278.922 310.341 279.078 310.633C279.24 310.924 279.464 311.151 279.75 311.312C280.036 311.474 280.37 311.555 280.75 311.555C281.13 311.555 281.461 311.474 281.742 311.312C282.029 311.151 282.253 310.924 282.414 310.633C282.576 310.341 282.656 310 282.656 309.609Z" fill="#1D1B20"/>
</g>
<g clip-path="url(#clip33_914_3846)">
<path d="M323.148 316.812V318H315.703V316.961L319.43 312.812C319.888 312.302 320.242 311.87 320.492 311.516C320.747 311.156 320.924 310.836 321.023 310.555C321.128 310.268 321.18 309.977 321.18 309.68C321.18 309.305 321.102 308.966 320.945 308.664C320.794 308.357 320.57 308.112 320.273 307.93C319.977 307.747 319.617 307.656 319.195 307.656C318.69 307.656 318.268 307.755 317.93 307.953C317.596 308.146 317.346 308.417 317.18 308.766C317.013 309.115 316.93 309.516 316.93 309.969H315.484C315.484 309.328 315.625 308.742 315.906 308.211C316.188 307.68 316.604 307.258 317.156 306.945C317.708 306.628 318.388 306.469 319.195 306.469C319.914 306.469 320.529 306.596 321.039 306.852C321.549 307.102 321.94 307.456 322.211 307.914C322.487 308.367 322.625 308.898 322.625 309.508C322.625 309.841 322.568 310.18 322.453 310.523C322.344 310.862 322.19 311.201 321.992 311.539C321.799 311.878 321.573 312.211 321.312 312.539C321.057 312.867 320.784 313.19 320.492 313.508L317.445 316.812H323.148ZM326.633 316.789H326.781C327.615 316.789 328.292 316.672 328.812 316.438C329.333 316.203 329.734 315.888 330.016 315.492C330.297 315.096 330.49 314.651 330.594 314.156C330.698 313.656 330.75 313.143 330.75 312.617V310.875C330.75 310.359 330.69 309.901 330.57 309.5C330.456 309.099 330.294 308.763 330.086 308.492C329.883 308.221 329.651 308.016 329.391 307.875C329.13 307.734 328.854 307.664 328.562 307.664C328.229 307.664 327.93 307.732 327.664 307.867C327.404 307.997 327.182 308.182 327 308.422C326.823 308.661 326.688 308.943 326.594 309.266C326.5 309.589 326.453 309.94 326.453 310.32C326.453 310.659 326.495 310.987 326.578 311.305C326.661 311.622 326.789 311.909 326.961 312.164C327.133 312.419 327.346 312.622 327.602 312.773C327.862 312.919 328.167 312.992 328.516 312.992C328.839 312.992 329.141 312.93 329.422 312.805C329.708 312.674 329.961 312.5 330.18 312.281C330.404 312.057 330.581 311.805 330.711 311.523C330.846 311.242 330.924 310.948 330.945 310.641H331.633C331.633 311.073 331.547 311.5 331.375 311.922C331.208 312.339 330.974 312.719 330.672 313.062C330.37 313.406 330.016 313.682 329.609 313.891C329.203 314.094 328.76 314.195 328.281 314.195C327.719 314.195 327.232 314.086 326.82 313.867C326.409 313.648 326.07 313.357 325.805 312.992C325.544 312.628 325.349 312.221 325.219 311.773C325.094 311.32 325.031 310.862 325.031 310.398C325.031 309.857 325.107 309.349 325.258 308.875C325.409 308.401 325.633 307.984 325.93 307.625C326.227 307.26 326.594 306.977 327.031 306.773C327.474 306.57 327.984 306.469 328.562 306.469C329.214 306.469 329.768 306.599 330.227 306.859C330.685 307.12 331.057 307.469 331.344 307.906C331.635 308.344 331.849 308.836 331.984 309.383C332.12 309.93 332.188 310.492 332.188 311.07V311.594C332.188 312.182 332.148 312.781 332.07 313.391C331.997 313.995 331.854 314.573 331.641 315.125C331.432 315.677 331.128 316.172 330.727 316.609C330.326 317.042 329.802 317.385 329.156 317.641C328.516 317.891 327.724 318.016 326.781 318.016H326.633V316.789Z" fill="#1D1B20"/>
</g>
<g clip-path="url(#clip34_914_3846)">
<path d="M29.8047 356.602H30.8359C31.3411 356.602 31.7578 356.518 32.0859 356.352C32.4193 356.18 32.6667 355.948 32.8281 355.656C32.9948 355.359 33.0781 355.026 33.0781 354.656C33.0781 354.219 33.0052 353.852 32.8594 353.555C32.7135 353.258 32.4948 353.034 32.2031 352.883C31.9115 352.732 31.5417 352.656 31.0938 352.656C30.6875 352.656 30.3281 352.737 30.0156 352.898C29.7083 353.055 29.4661 353.279 29.2891 353.57C29.1172 353.862 29.0312 354.206 29.0312 354.602H27.5859C27.5859 354.023 27.7318 353.497 28.0234 353.023C28.3151 352.549 28.724 352.172 29.25 351.891C29.7812 351.609 30.3958 351.469 31.0938 351.469C31.7812 351.469 32.3828 351.591 32.8984 351.836C33.4141 352.076 33.8151 352.435 34.1016 352.914C34.388 353.388 34.5312 353.979 34.5312 354.688C34.5312 354.974 34.4635 355.281 34.3281 355.609C34.1979 355.932 33.9922 356.234 33.7109 356.516C33.4349 356.797 33.0755 357.029 32.6328 357.211C32.1901 357.388 31.6589 357.477 31.0391 357.477H29.8047V356.602ZM29.8047 357.789V356.922H31.0391C31.763 356.922 32.362 357.008 32.8359 357.18C33.3099 357.352 33.6823 357.581 33.9531 357.867C34.2292 358.154 34.4219 358.469 34.5312 358.812C34.6458 359.151 34.7031 359.49 34.7031 359.828C34.7031 360.359 34.612 360.831 34.4297 361.242C34.2526 361.654 34 362.003 33.6719 362.289C33.349 362.576 32.9688 362.792 32.5312 362.938C32.0938 363.083 31.6172 363.156 31.1016 363.156C30.6068 363.156 30.1406 363.086 29.7031 362.945C29.2708 362.805 28.888 362.602 28.5547 362.336C28.2214 362.065 27.9609 361.734 27.7734 361.344C27.5859 360.948 27.4922 360.497 27.4922 359.992H28.9375C28.9375 360.388 29.0234 360.734 29.1953 361.031C29.3724 361.328 29.6224 361.56 29.9453 361.727C30.2734 361.888 30.6589 361.969 31.1016 361.969C31.5443 361.969 31.9245 361.893 32.2422 361.742C32.5651 361.586 32.8125 361.352 32.9844 361.039C33.1615 360.727 33.25 360.333 33.25 359.859C33.25 359.385 33.151 358.997 32.9531 358.695C32.7552 358.388 32.474 358.161 32.1094 358.016C31.75 357.865 31.3255 357.789 30.8359 357.789H29.8047ZM44.3359 356.406V358.141C44.3359 359.073 44.2526 359.859 44.0859 360.5C43.9193 361.141 43.6797 361.656 43.3672 362.047C43.0547 362.438 42.6771 362.721 42.2344 362.898C41.7969 363.07 41.3021 363.156 40.75 363.156C40.3125 363.156 39.9089 363.102 39.5391 362.992C39.1693 362.883 38.8359 362.708 38.5391 362.469C38.2474 362.224 37.9974 361.906 37.7891 361.516C37.5807 361.125 37.4219 360.651 37.3125 360.094C37.2031 359.536 37.1484 358.885 37.1484 358.141V356.406C37.1484 355.474 37.2318 354.693 37.3984 354.062C37.5703 353.432 37.8125 352.927 38.125 352.547C38.4375 352.161 38.8125 351.885 39.25 351.719C39.6927 351.552 40.1875 351.469 40.7344 351.469C41.1771 351.469 41.5833 351.523 41.9531 351.633C42.3281 351.737 42.6615 351.906 42.9531 352.141C43.2448 352.37 43.4922 352.677 43.6953 353.062C43.9036 353.443 44.0625 353.909 44.1719 354.461C44.2812 355.013 44.3359 355.661 44.3359 356.406ZM42.8828 358.375V356.164C42.8828 355.654 42.8516 355.206 42.7891 354.82C42.7318 354.43 42.6458 354.096 42.5312 353.82C42.4167 353.544 42.2708 353.32 42.0938 353.148C41.9219 352.977 41.7214 352.852 41.4922 352.773C41.2682 352.69 41.0156 352.648 40.7344 352.648C40.3906 352.648 40.0859 352.714 39.8203 352.844C39.5547 352.969 39.3307 353.169 39.1484 353.445C38.9714 353.721 38.8359 354.083 38.7422 354.531C38.6484 354.979 38.6016 355.523 38.6016 356.164V358.375C38.6016 358.885 38.6302 359.336 38.6875 359.727C38.75 360.117 38.8411 360.456 38.9609 360.742C39.0807 361.023 39.2266 361.255 39.3984 361.438C39.5703 361.62 39.7682 361.755 39.9922 361.844C40.2214 361.927 40.474 361.969 40.75 361.969C41.1042 361.969 41.4141 361.901 41.6797 361.766C41.9453 361.63 42.1667 361.419 42.3438 361.133C42.526 360.841 42.6615 360.469 42.75 360.016C42.8385 359.557 42.8828 359.01 42.8828 358.375Z" fill="#1D1B20"/>
</g>
<path d="M85.1953 351.562V363H83.75V353.367L80.8359 354.43V353.125L84.9688 351.562H85.1953Z" fill="#49454F"/>
<path d="M135.898 361.812V363H128.453V361.961L132.18 357.812C132.638 357.302 132.992 356.87 133.242 356.516C133.497 356.156 133.674 355.836 133.773 355.555C133.878 355.268 133.93 354.977 133.93 354.68C133.93 354.305 133.852 353.966 133.695 353.664C133.544 353.357 133.32 353.112 133.023 352.93C132.727 352.747 132.367 352.656 131.945 352.656C131.44 352.656 131.018 352.755 130.68 352.953C130.346 353.146 130.096 353.417 129.93 353.766C129.763 354.115 129.68 354.516 129.68 354.969H128.234C128.234 354.328 128.375 353.742 128.656 353.211C128.938 352.68 129.354 352.258 129.906 351.945C130.458 351.628 131.138 351.469 131.945 351.469C132.664 351.469 133.279 351.596 133.789 351.852C134.299 352.102 134.69 352.456 134.961 352.914C135.237 353.367 135.375 353.898 135.375 354.508C135.375 354.841 135.318 355.18 135.203 355.523C135.094 355.862 134.94 356.201 134.742 356.539C134.549 356.878 134.323 357.211 134.062 357.539C133.807 357.867 133.534 358.19 133.242 358.508L130.195 361.812H135.898Z" fill="#49454F"/>
<path d="M178.555 356.602H179.586C180.091 356.602 180.508 356.518 180.836 356.352C181.169 356.18 181.417 355.948 181.578 355.656C181.745 355.359 181.828 355.026 181.828 354.656C181.828 354.219 181.755 353.852 181.609 353.555C181.464 353.258 181.245 353.034 180.953 352.883C180.661 352.732 180.292 352.656 179.844 352.656C179.438 352.656 179.078 352.737 178.766 352.898C178.458 353.055 178.216 353.279 178.039 353.57C177.867 353.862 177.781 354.206 177.781 354.602H176.336C176.336 354.023 176.482 353.497 176.773 353.023C177.065 352.549 177.474 352.172 178 351.891C178.531 351.609 179.146 351.469 179.844 351.469C180.531 351.469 181.133 351.591 181.648 351.836C182.164 352.076 182.565 352.435 182.852 352.914C183.138 353.388 183.281 353.979 183.281 354.688C183.281 354.974 183.214 355.281 183.078 355.609C182.948 355.932 182.742 356.234 182.461 356.516C182.185 356.797 181.826 357.029 181.383 357.211C180.94 357.388 180.409 357.477 179.789 357.477H178.555V356.602ZM178.555 357.789V356.922H179.789C180.513 356.922 181.112 357.008 181.586 357.18C182.06 357.352 182.432 357.581 182.703 357.867C182.979 358.154 183.172 358.469 183.281 358.812C183.396 359.151 183.453 359.49 183.453 359.828C183.453 360.359 183.362 360.831 183.18 361.242C183.003 361.654 182.75 362.003 182.422 362.289C182.099 362.576 181.719 362.792 181.281 362.938C180.844 363.083 180.367 363.156 179.852 363.156C179.357 363.156 178.891 363.086 178.453 362.945C178.021 362.805 177.638 362.602 177.305 362.336C176.971 362.065 176.711 361.734 176.523 361.344C176.336 360.948 176.242 360.497 176.242 359.992H177.688C177.688 360.388 177.773 360.734 177.945 361.031C178.122 361.328 178.372 361.56 178.695 361.727C179.023 361.888 179.409 361.969 179.852 361.969C180.294 361.969 180.674 361.893 180.992 361.742C181.315 361.586 181.562 361.352 181.734 361.039C181.911 360.727 182 360.333 182 359.859C182 359.385 181.901 358.997 181.703 358.695C181.505 358.388 181.224 358.161 180.859 358.016C180.5 357.865 180.076 357.789 179.586 357.789H178.555Z" fill="#49454F"/>
<path d="M232.133 359.172V360.359H223.914V359.508L229.008 351.625H230.188L228.922 353.906L225.555 359.172H232.133ZM230.547 351.625V363H229.102V351.625H230.547Z" fill="#49454F"/>
<path d="M274.273 357.586L273.117 357.289L273.688 351.625H279.523V352.961H274.914L274.57 356.055C274.779 355.935 275.042 355.823 275.359 355.719C275.682 355.615 276.052 355.562 276.469 355.562C276.995 355.562 277.466 355.654 277.883 355.836C278.299 356.013 278.654 356.268 278.945 356.602C279.242 356.935 279.469 357.336 279.625 357.805C279.781 358.273 279.859 358.797 279.859 359.375C279.859 359.922 279.784 360.424 279.633 360.883C279.487 361.341 279.266 361.742 278.969 362.086C278.672 362.424 278.297 362.688 277.844 362.875C277.396 363.062 276.867 363.156 276.258 363.156C275.799 363.156 275.365 363.094 274.953 362.969C274.547 362.839 274.182 362.643 273.859 362.383C273.542 362.117 273.281 361.789 273.078 361.398C272.88 361.003 272.755 360.539 272.703 360.008H274.078C274.141 360.435 274.266 360.794 274.453 361.086C274.641 361.378 274.885 361.599 275.188 361.75C275.495 361.896 275.852 361.969 276.258 361.969C276.602 361.969 276.906 361.909 277.172 361.789C277.438 361.669 277.661 361.497 277.844 361.273C278.026 361.049 278.164 360.779 278.258 360.461C278.357 360.143 278.406 359.786 278.406 359.391C278.406 359.031 278.357 358.698 278.258 358.391C278.159 358.083 278.01 357.815 277.812 357.586C277.62 357.357 277.383 357.18 277.102 357.055C276.82 356.924 276.497 356.859 276.133 356.859C275.648 356.859 275.281 356.924 275.031 357.055C274.786 357.185 274.534 357.362 274.273 357.586Z" fill="#49454F"/>
<path d="M325.992 351.609H326.117V352.836H325.992C325.227 352.836 324.586 352.961 324.07 353.211C323.555 353.456 323.146 353.786 322.844 354.203C322.542 354.615 322.323 355.078 322.188 355.594C322.057 356.109 321.992 356.633 321.992 357.164V358.836C321.992 359.341 322.052 359.789 322.172 360.18C322.292 360.565 322.456 360.891 322.664 361.156C322.872 361.422 323.107 361.622 323.367 361.758C323.633 361.893 323.909 361.961 324.195 361.961C324.529 361.961 324.826 361.898 325.086 361.773C325.346 361.643 325.565 361.464 325.742 361.234C325.924 361 326.062 360.724 326.156 360.406C326.25 360.089 326.297 359.74 326.297 359.359C326.297 359.021 326.255 358.695 326.172 358.383C326.089 358.065 325.961 357.784 325.789 357.539C325.617 357.289 325.401 357.094 325.141 356.953C324.885 356.807 324.581 356.734 324.227 356.734C323.826 356.734 323.451 356.833 323.102 357.031C322.758 357.224 322.474 357.479 322.25 357.797C322.031 358.109 321.906 358.451 321.875 358.82L321.109 358.812C321.182 358.229 321.318 357.732 321.516 357.32C321.719 356.904 321.969 356.565 322.266 356.305C322.568 356.039 322.904 355.846 323.273 355.727C323.648 355.602 324.044 355.539 324.461 355.539C325.029 355.539 325.518 355.646 325.93 355.859C326.341 356.073 326.68 356.359 326.945 356.719C327.211 357.073 327.406 357.474 327.531 357.922C327.661 358.365 327.727 358.82 327.727 359.289C327.727 359.826 327.651 360.328 327.5 360.797C327.349 361.266 327.122 361.677 326.82 362.031C326.523 362.385 326.156 362.661 325.719 362.859C325.281 363.057 324.773 363.156 324.195 363.156C323.581 363.156 323.044 363.031 322.586 362.781C322.128 362.526 321.747 362.188 321.445 361.766C321.143 361.344 320.917 360.875 320.766 360.359C320.615 359.844 320.539 359.32 320.539 358.789V358.109C320.539 357.307 320.62 356.521 320.781 355.75C320.943 354.979 321.221 354.281 321.617 353.656C322.018 353.031 322.573 352.534 323.281 352.164C323.99 351.794 324.893 351.609 325.992 351.609Z" fill="#49454F"/>
<path d="M1 65H359V473C359 477.971 354.971 482 350 482H10C5.02944 482 1 477.971 1 473V65Z" stroke="#1C6BA4" stroke-width="2"/>
</g>
<rect x="1" y="1" width="358" height="380" rx="15" stroke="#1C6BA4" stroke-width="2"/>
<defs>
<clipPath id="clip0_914_3846">
<rect width="360" height="382" rx="16" fill="white"/>
</clipPath>
<clipPath id="clip1_914_3846">
<rect x="4" y="10" width="40" height="40" rx="20" fill="white"/>
</clipPath>
<clipPath id="clip2_914_3846">
<rect x="116" y="10" width="40" height="40" rx="20" fill="white"/>
</clipPath>
<clipPath id="clip3_914_3846">
<rect x="197" y="10" width="40" height="40" rx="20" fill="white"/>
</clipPath>
<clipPath id="clip4_914_3846">
<rect x="316" y="10" width="40" height="40" rx="20" fill="white"/>
</clipPath>
<clipPath id="clip5_914_3846">
<rect x="304" y="113" width="40" height="40" rx="20" fill="white"/>
</clipPath>
<clipPath id="clip6_914_3846">
<rect x="16" y="158" width="40" height="40" rx="20" fill="white"/>
</clipPath>
<clipPath id="clip7_914_3846">
<rect x="64" y="158" width="40" height="40" rx="20" fill="white"/>
</clipPath>
<clipPath id="clip8_914_3846">
<rect x="112" y="158" width="40" height="40" rx="20" fill="white"/>
</clipPath>
<clipPath id="clip9_914_3846">
<rect x="160" y="158" width="40" height="40" rx="20" fill="white"/>
</clipPath>
<clipPath id="clip10_914_3846">
<rect x="208" y="158" width="40" height="40" rx="20" fill="white"/>
</clipPath>
<clipPath id="clip11_914_3846">
<rect x="256" y="158" width="40" height="40" rx="20" fill="white"/>
</clipPath>
<clipPath id="clip12_914_3846">
<rect x="304" y="158" width="40" height="40" rx="20" fill="white"/>
</clipPath>
<clipPath id="clip13_914_3846">
<rect x="16" y="203" width="40" height="40" rx="20" fill="white"/>
</clipPath>
<clipPath id="clip14_914_3846">
<rect x="64" y="203" width="40" height="40" rx="20" fill="white"/>
</clipPath>
<clipPath id="clip15_914_3846">
<rect x="112" y="203" width="40" height="40" rx="20" fill="white"/>
</clipPath>
<clipPath id="clip16_914_3846">
<rect x="160" y="203" width="40" height="40" rx="20" fill="white"/>
</clipPath>
<clipPath id="clip17_914_3846">
<rect x="208" y="203" width="40" height="40" rx="20" fill="white"/>
</clipPath>
<clipPath id="clip18_914_3846">
<rect x="256" y="203" width="40" height="40" rx="20" fill="white"/>
</clipPath>
<clipPath id="clip19_914_3846">
<rect x="304" y="203" width="40" height="40" rx="20" fill="white"/>
</clipPath>
<clipPath id="clip20_914_3846">
<rect x="16" y="248" width="40" height="40" rx="20" fill="white"/>
</clipPath>
<clipPath id="clip21_914_3846">
<rect x="64" y="248" width="40" height="40" rx="20" fill="white"/>
</clipPath>
<clipPath id="clip22_914_3846">
<rect x="112" y="248" width="40" height="40" rx="20" fill="white"/>
</clipPath>
<clipPath id="clip23_914_3846">
<rect x="160" y="248" width="40" height="40" rx="20" fill="white"/>
</clipPath>
<clipPath id="clip24_914_3846">
<rect x="208" y="248" width="40" height="40" rx="20" fill="white"/>
</clipPath>
<clipPath id="clip25_914_3846">
<rect x="256" y="248" width="40" height="40" rx="20" fill="white"/>
</clipPath>
<clipPath id="clip26_914_3846">
<rect x="304" y="248" width="40" height="40" rx="20" fill="white"/>
</clipPath>
<clipPath id="clip27_914_3846">
<rect x="16" y="293" width="40" height="40" rx="20" fill="white"/>
</clipPath>
<clipPath id="clip28_914_3846">
<rect x="64" y="293" width="40" height="40" rx="20" fill="white"/>
</clipPath>
<clipPath id="clip29_914_3846">
<rect x="112" y="293" width="40" height="40" rx="20" fill="white"/>
</clipPath>
<clipPath id="clip30_914_3846">
<rect x="160" y="293" width="40" height="40" rx="20" fill="white"/>
</clipPath>
<clipPath id="clip31_914_3846">
<rect x="208" y="293" width="40" height="40" rx="20" fill="white"/>
</clipPath>
<clipPath id="clip32_914_3846">
<rect x="256" y="293" width="40" height="40" rx="20" fill="white"/>
</clipPath>
<clipPath id="clip33_914_3846">
<rect x="304" y="293" width="40" height="40" rx="20" fill="white"/>
</clipPath>
<clipPath id="clip34_914_3846">
<rect x="16" y="338" width="40" height="40" rx="20" fill="white"/>
</clipPath>
</defs>
</svg>
