<svg width="318" height="104" viewBox="0 0 318 104" fill="none" xmlns="http://www.w3.org/2000/svg">
<path d="M21.5018 26.14C20.3351 26.14 19.4438 25.7013 18.8278 24.824C18.2118 23.9373 17.9038 22.6773 17.9038 21.044C17.9038 19.392 18.2118 18.1367 18.8278 17.278C19.4438 16.4193 20.3351 15.99 21.5018 15.99C22.6778 15.99 23.5691 16.4193 24.1758 17.278C24.7918 18.1367 25.0998 19.3873 25.0998 21.03C25.0998 22.6727 24.7918 23.9373 24.1758 24.824C23.5598 25.7013 22.6684 26.14 21.5018 26.14ZM21.5018 24.67C22.1364 24.67 22.6031 24.3807 22.9018 23.802C23.2098 23.214 23.3638 22.29 23.3638 21.03C23.3638 19.7793 23.2098 18.874 22.9018 18.314C22.6031 17.7447 22.1364 17.46 21.5018 17.46C20.8764 17.46 20.4098 17.7447 20.1018 18.314C19.7938 18.874 19.6398 19.7793 19.6398 21.03C19.6398 22.29 19.7938 23.214 20.1018 23.802C20.4098 24.3807 20.8764 24.67 21.5018 24.67ZM29.1403 26.14C28.6176 26.14 28.0996 26.042 27.5863 25.846C27.073 25.6407 26.6296 25.3653 26.2563 25.02L26.8583 23.676C27.1943 23.9933 27.5583 24.2313 27.9503 24.39C28.3516 24.5487 28.753 24.628 29.1543 24.628C29.9756 24.628 30.601 24.3433 31.0303 23.774C31.4596 23.2047 31.6743 22.3553 31.6743 21.226V20.806C31.4876 21.3193 31.175 21.7253 30.7363 22.024C30.2976 22.3133 29.7843 22.458 29.1963 22.458C28.6363 22.458 28.137 22.3227 27.6983 22.052C27.2596 21.7813 26.9096 21.408 26.6483 20.932C26.3963 20.4467 26.2703 19.9007 26.2703 19.294C26.2703 18.65 26.4103 18.0807 26.6903 17.586C26.9703 17.0913 27.353 16.704 27.8383 16.424C28.333 16.1347 28.8976 15.99 29.5323 15.99C30.7643 15.99 31.7116 16.4193 32.3743 17.278C33.037 18.1273 33.3683 19.3313 33.3683 20.89C33.3683 22.5513 32.995 23.844 32.2483 24.768C31.5016 25.6827 30.4656 26.14 29.1403 26.14ZM29.6443 21.03C30.1483 21.03 30.5543 20.8667 30.8623 20.54C31.1796 20.204 31.3383 19.7653 31.3383 19.224C31.3383 18.6827 31.1796 18.244 30.8623 17.908C30.5543 17.572 30.1483 17.404 29.6443 17.404C29.1403 17.404 28.7296 17.572 28.4123 17.908C28.1043 18.244 27.9503 18.6827 27.9503 19.224C27.9503 19.7653 28.1043 20.204 28.4123 20.54C28.7296 20.8667 29.1403 21.03 29.6443 21.03ZM34.8468 21.086V19.154H36.8068V21.086H34.8468ZM34.8468 26V24.054H36.8068V26H34.8468ZM41.5675 26.14C40.8955 26.14 40.2515 26.042 39.6355 25.846C39.0288 25.6407 38.5248 25.3653 38.1235 25.02L38.7115 23.648C39.5515 24.3013 40.4848 24.628 41.5115 24.628C42.7715 24.628 43.4015 24.1333 43.4015 23.144C43.4015 22.6773 43.2428 22.332 42.9255 22.108C42.6175 21.8747 42.1648 21.758 41.5675 21.758H39.9855V20.274H41.3995C41.9221 20.274 42.3375 20.148 42.6455 19.896C42.9535 19.6347 43.1075 19.2753 43.1075 18.818C43.1075 18.3887 42.9628 18.062 42.6735 17.838C42.3935 17.614 41.9828 17.502 41.4415 17.502C40.4708 17.502 39.6168 17.838 38.8795 18.51L38.2915 17.166C38.6835 16.7927 39.1735 16.5033 39.7615 16.298C40.3495 16.0927 40.9608 15.99 41.5955 15.99C42.6221 15.99 43.4201 16.2233 43.9895 16.69C44.5588 17.1473 44.8435 17.7867 44.8435 18.608C44.8435 19.14 44.7081 19.6067 44.4375 20.008C44.1668 20.4093 43.7981 20.6987 43.3315 20.876C43.9008 21.0347 44.3441 21.3287 44.6615 21.758C44.9788 22.178 45.1375 22.6913 45.1375 23.298C45.1375 24.1753 44.8201 24.8707 44.1855 25.384C43.5508 25.888 42.6781 26.14 41.5675 26.14ZM50.158 26.14C48.9913 26.14 48.1 25.7013 47.484 24.824C46.868 23.9373 46.56 22.6773 46.56 21.044C46.56 19.392 46.868 18.1367 47.484 17.278C48.1 16.4193 48.9913 15.99 50.158 15.99C51.334 15.99 52.2253 16.4193 52.832 17.278C53.448 18.1367 53.756 19.3873 53.756 21.03C53.756 22.6727 53.448 23.9373 52.832 24.824C52.216 25.7013 51.3247 26.14 50.158 26.14ZM50.158 24.67C50.7927 24.67 51.2593 24.3807 51.558 23.802C51.866 23.214 52.02 22.29 52.02 21.03C52.02 19.7793 51.866 18.874 51.558 18.314C51.2593 17.7447 50.7927 17.46 50.158 17.46C49.5327 17.46 49.066 17.7447 48.758 18.314C48.45 18.874 48.296 19.7793 48.296 21.03C48.296 22.29 48.45 23.214 48.758 23.802C49.066 24.3807 49.5327 24.67 50.158 24.67ZM58.14 26L62.606 16.13H64.076L68.542 26H66.722L65.742 23.718H60.926L59.96 26H58.14ZM63.32 18.076L61.542 22.29H65.126L63.348 18.076H63.32ZM69.6499 26V16.13H71.1479L74.6479 22.584L78.1339 16.13H79.6039V26H77.9799V19.35L75.1519 24.502H74.1019L71.2739 19.378V26H69.6499Z" fill="white"/>
<rect x="0.5" y="0.5" width="97" height="41" rx="9.5" stroke="#BECADA"/>
<rect x="110" width="98" height="42" rx="10" fill="#E09F1F"/>
<path d="M128.828 26V24.516H131.054V18.174L129.332 19.21L128.632 17.894L131.572 16.13H132.846V24.516H134.932V26H128.828ZM139.896 26.14C138.73 26.14 137.838 25.7013 137.222 24.824C136.606 23.9373 136.298 22.6773 136.298 21.044C136.298 19.392 136.606 18.1367 137.222 17.278C137.838 16.4193 138.73 15.99 139.896 15.99C141.072 15.99 141.964 16.4193 142.57 17.278C143.186 18.1367 143.494 19.3873 143.494 21.03C143.494 22.6727 143.186 23.9373 142.57 24.824C141.954 25.7013 141.063 26.14 139.896 26.14ZM139.896 24.67C140.531 24.67 140.998 24.3807 141.296 23.802C141.604 23.214 141.758 22.29 141.758 21.03C141.758 19.7793 141.604 18.874 141.296 18.314C140.998 17.7447 140.531 17.46 139.896 17.46C139.271 17.46 138.804 17.7447 138.496 18.314C138.188 18.874 138.034 19.7793 138.034 21.03C138.034 22.29 138.188 23.214 138.496 23.802C138.804 24.3807 139.271 24.67 139.896 24.67ZM144.847 21.086V19.154H146.807V21.086H144.847ZM144.847 26V24.054H146.807V26H144.847ZM151.567 26.14C150.895 26.14 150.251 26.042 149.635 25.846C149.029 25.6407 148.525 25.3653 148.123 25.02L148.711 23.648C149.551 24.3013 150.485 24.628 151.511 24.628C152.771 24.628 153.401 24.1333 153.401 23.144C153.401 22.6773 153.243 22.332 152.925 22.108C152.617 21.8747 152.165 21.758 151.567 21.758H149.985V20.274H151.399C151.922 20.274 152.337 20.148 152.645 19.896C152.953 19.6347 153.107 19.2753 153.107 18.818C153.107 18.3887 152.963 18.062 152.673 17.838C152.393 17.614 151.983 17.502 151.441 17.502C150.471 17.502 149.617 17.838 148.879 18.51L148.291 17.166C148.683 16.7927 149.173 16.5033 149.761 16.298C150.349 16.0927 150.961 15.99 151.595 15.99C152.622 15.99 153.42 16.2233 153.989 16.69C154.559 17.1473 154.843 17.7867 154.843 18.608C154.843 19.14 154.708 19.6067 154.437 20.008C154.167 20.4093 153.798 20.6987 153.331 20.876C153.901 21.0347 154.344 21.3287 154.661 21.758C154.979 22.178 155.137 22.6913 155.137 23.298C155.137 24.1753 154.82 24.8707 154.185 25.384C153.551 25.888 152.678 26.14 151.567 26.14ZM160.158 26.14C158.991 26.14 158.1 25.7013 157.484 24.824C156.868 23.9373 156.56 22.6773 156.56 21.044C156.56 19.392 156.868 18.1367 157.484 17.278C158.1 16.4193 158.991 15.99 160.158 15.99C161.334 15.99 162.225 16.4193 162.832 17.278C163.448 18.1367 163.756 19.3873 163.756 21.03C163.756 22.6727 163.448 23.9373 162.832 24.824C162.216 25.7013 161.325 26.14 160.158 26.14ZM160.158 24.67C160.793 24.67 161.259 24.3807 161.558 23.802C161.866 23.214 162.02 22.29 162.02 21.03C162.02 19.7793 161.866 18.874 161.558 18.314C161.259 17.7447 160.793 17.46 160.158 17.46C159.533 17.46 159.066 17.7447 158.758 18.314C158.45 18.874 158.296 19.7793 158.296 21.03C158.296 22.29 158.45 23.214 158.758 23.802C159.066 24.3807 159.533 24.67 160.158 24.67ZM168.14 26L172.606 16.13H174.076L178.542 26H176.722L175.742 23.718H170.926L169.96 26H168.14ZM173.32 18.076L171.542 22.29H175.126L173.348 18.076H173.32ZM179.65 26V16.13H181.148L184.648 22.584L188.134 16.13H189.604V26H187.98V19.35L185.152 24.502H184.102L181.274 19.378V26H179.65Z" fill="white"/>
<path d="M238.828 26V24.516H241.054V18.174L239.332 19.21L238.632 17.894L241.572 16.13H242.846V24.516H244.932V26H238.828ZM247.222 26V24.516H249.448V18.174L247.726 19.21L247.026 17.894L249.966 16.13H251.24V24.516H253.326V26H247.222ZM254.847 21.086V19.154H256.807V21.086H254.847ZM254.847 26V24.054H256.807V26H254.847ZM261.763 26.14C260.597 26.14 259.705 25.7013 259.089 24.824C258.473 23.9373 258.165 22.6773 258.165 21.044C258.165 19.392 258.473 18.1367 259.089 17.278C259.705 16.4193 260.597 15.99 261.763 15.99C262.939 15.99 263.831 16.4193 264.437 17.278C265.053 18.1367 265.361 19.3873 265.361 21.03C265.361 22.6727 265.053 23.9373 264.437 24.824C263.821 25.7013 262.93 26.14 261.763 26.14ZM261.763 24.67C262.398 24.67 262.865 24.3807 263.163 23.802C263.471 23.214 263.625 22.29 263.625 21.03C263.625 19.7793 263.471 18.874 263.163 18.314C262.865 17.7447 262.398 17.46 261.763 17.46C261.138 17.46 260.671 17.7447 260.363 18.314C260.055 18.874 259.901 19.7793 259.901 21.03C259.901 22.29 260.055 23.214 260.363 23.802C260.671 24.3807 261.138 24.67 261.763 24.67ZM270.158 26.14C268.991 26.14 268.1 25.7013 267.484 24.824C266.868 23.9373 266.56 22.6773 266.56 21.044C266.56 19.392 266.868 18.1367 267.484 17.278C268.1 16.4193 268.991 15.99 270.158 15.99C271.334 15.99 272.225 16.4193 272.832 17.278C273.448 18.1367 273.756 19.3873 273.756 21.03C273.756 22.6727 273.448 23.9373 272.832 24.824C272.216 25.7013 271.325 26.14 270.158 26.14ZM270.158 24.67C270.793 24.67 271.259 24.3807 271.558 23.802C271.866 23.214 272.02 22.29 272.02 21.03C272.02 19.7793 271.866 18.874 271.558 18.314C271.259 17.7447 270.793 17.46 270.158 17.46C269.533 17.46 269.066 17.7447 268.758 18.314C268.45 18.874 268.296 19.7793 268.296 21.03C268.296 22.29 268.45 23.214 268.758 23.802C269.066 24.3807 269.533 24.67 270.158 24.67ZM278.14 26L282.606 16.13H284.076L288.542 26H286.722L285.742 23.718H280.926L279.96 26H278.14ZM283.32 18.076L281.542 22.29H285.126L283.348 18.076H283.32ZM289.65 26V16.13H291.148L294.648 22.584L298.134 16.13H299.604V26H297.98V19.35L295.152 24.502H294.102L291.274 19.378V26H289.65Z" fill="white"/>
<rect x="220.5" y="0.5" width="97" height="41" rx="9.5" stroke="#BECADA"/>
<path d="M18.8278 88V86.516H21.0538V80.174L19.3318 81.21L18.6318 79.894L21.5718 78.13H22.8458V86.516H24.9318V88H18.8278ZM27.2223 88V86.516H29.4483V80.174L27.7263 81.21L27.0263 79.894L29.9663 78.13H31.2403V86.516H33.3263V88H27.2223ZM34.8468 83.086V81.154H36.8068V83.086H34.8468ZM34.8468 88V86.054H36.8068V88H34.8468ZM41.5675 88.14C40.8955 88.14 40.2515 88.042 39.6355 87.846C39.0288 87.6407 38.5248 87.3653 38.1235 87.02L38.7115 85.648C39.5515 86.3013 40.4848 86.628 41.5115 86.628C42.7715 86.628 43.4015 86.1333 43.4015 85.144C43.4015 84.6773 43.2428 84.332 42.9255 84.108C42.6175 83.8747 42.1648 83.758 41.5675 83.758H39.9855V82.274H41.3995C41.9221 82.274 42.3375 82.148 42.6455 81.896C42.9535 81.6347 43.1075 81.2753 43.1075 80.818C43.1075 80.3887 42.9628 80.062 42.6735 79.838C42.3935 79.614 41.9828 79.502 41.4415 79.502C40.4708 79.502 39.6168 79.838 38.8795 80.51L38.2915 79.166C38.6835 78.7927 39.1735 78.5033 39.7615 78.298C40.3495 78.0927 40.9608 77.99 41.5955 77.99C42.6221 77.99 43.4201 78.2233 43.9895 78.69C44.5588 79.1473 44.8435 79.7867 44.8435 80.608C44.8435 81.14 44.7081 81.6067 44.4375 82.008C44.1668 82.4093 43.7981 82.6987 43.3315 82.876C43.9008 83.0347 44.3441 83.3287 44.6615 83.758C44.9788 84.178 45.1375 84.6913 45.1375 85.298C45.1375 86.1753 44.8201 86.8707 44.1855 87.384C43.5508 87.888 42.6781 88.14 41.5675 88.14ZM50.158 88.14C48.9913 88.14 48.1 87.7013 47.484 86.824C46.868 85.9373 46.56 84.6773 46.56 83.044C46.56 81.392 46.868 80.1367 47.484 79.278C48.1 78.4193 48.9913 77.99 50.158 77.99C51.334 77.99 52.2253 78.4193 52.832 79.278C53.448 80.1367 53.756 81.3873 53.756 83.03C53.756 84.6727 53.448 85.9373 52.832 86.824C52.216 87.7013 51.3247 88.14 50.158 88.14ZM50.158 86.67C50.7927 86.67 51.2593 86.3807 51.558 85.802C51.866 85.214 52.02 84.29 52.02 83.03C52.02 81.7793 51.866 80.874 51.558 80.314C51.2593 79.7447 50.7927 79.46 50.158 79.46C49.5327 79.46 49.066 79.7447 48.758 80.314C48.45 80.874 48.296 81.7793 48.296 83.03C48.296 84.29 48.45 85.214 48.758 85.802C49.066 86.3807 49.5327 86.67 50.158 86.67ZM58.14 88L62.606 78.13H64.076L68.542 88H66.722L65.742 85.718H60.926L59.96 88H58.14ZM63.32 80.076L61.542 84.29H65.126L63.348 80.076H63.32ZM69.6499 88V78.13H71.1479L74.6479 84.584L78.1339 78.13H79.6039V88H77.9799V81.35L75.1519 86.502H74.1019L71.2739 81.378V88H69.6499Z" fill="white"/>
<rect x="0.5" y="62.5" width="97" height="41" rx="9.5" stroke="#BECADA"/>
<path d="M128.828 88V86.516H131.054V80.174L129.332 81.21L128.632 79.894L131.572 78.13H132.846V86.516H134.932V88H128.828ZM136.816 88V86.67L140.008 83.268C140.438 82.8013 140.746 82.3907 140.932 82.036C141.119 81.672 141.212 81.3033 141.212 80.93C141.212 79.978 140.638 79.502 139.49 79.502C138.594 79.502 137.768 79.838 137.012 80.51L136.41 79.166C136.802 78.8113 137.292 78.5267 137.88 78.312C138.468 78.0973 139.08 77.99 139.714 77.99C140.769 77.99 141.576 78.228 142.136 78.704C142.706 79.18 142.99 79.8613 142.99 80.748C142.99 81.3453 142.846 81.9193 142.556 82.47C142.276 83.0207 141.833 83.6133 141.226 84.248L139.056 86.516H143.368V88H136.816ZM144.847 83.086V81.154H146.807V83.086H144.847ZM144.847 88V86.054H146.807V88H144.847ZM151.763 88.14C150.597 88.14 149.705 87.7013 149.089 86.824C148.473 85.9373 148.165 84.6773 148.165 83.044C148.165 81.392 148.473 80.1367 149.089 79.278C149.705 78.4193 150.597 77.99 151.763 77.99C152.939 77.99 153.831 78.4193 154.437 79.278C155.053 80.1367 155.361 81.3873 155.361 83.03C155.361 84.6727 155.053 85.9373 154.437 86.824C153.821 87.7013 152.93 88.14 151.763 88.14ZM151.763 86.67C152.398 86.67 152.865 86.3807 153.163 85.802C153.471 85.214 153.625 84.29 153.625 83.03C153.625 81.7793 153.471 80.874 153.163 80.314C152.865 79.7447 152.398 79.46 151.763 79.46C151.138 79.46 150.671 79.7447 150.363 80.314C150.055 80.874 149.901 81.7793 149.901 83.03C149.901 84.29 150.055 85.214 150.363 85.802C150.671 86.3807 151.138 86.67 151.763 86.67ZM160.158 88.14C158.991 88.14 158.1 87.7013 157.484 86.824C156.868 85.9373 156.56 84.6773 156.56 83.044C156.56 81.392 156.868 80.1367 157.484 79.278C158.1 78.4193 158.991 77.99 160.158 77.99C161.334 77.99 162.225 78.4193 162.832 79.278C163.448 80.1367 163.756 81.3873 163.756 83.03C163.756 84.6727 163.448 85.9373 162.832 86.824C162.216 87.7013 161.325 88.14 160.158 88.14ZM160.158 86.67C160.793 86.67 161.259 86.3807 161.558 85.802C161.866 85.214 162.02 84.29 162.02 83.03C162.02 81.7793 161.866 80.874 161.558 80.314C161.259 79.7447 160.793 79.46 160.158 79.46C159.533 79.46 159.066 79.7447 158.758 80.314C158.45 80.874 158.296 81.7793 158.296 83.03C158.296 84.29 158.45 85.214 158.758 85.802C159.066 86.3807 159.533 86.67 160.158 86.67ZM168.14 88L172.606 78.13H174.076L178.542 88H176.722L175.742 85.718H170.926L169.96 88H168.14ZM173.32 80.076L171.542 84.29H175.126L173.348 80.076H173.32ZM179.65 88V78.13H181.148L184.648 84.584L188.134 78.13H189.604V88H187.98V81.35L185.152 86.502H184.102L181.274 81.378V88H179.65Z" fill="white"/>
<rect x="110.5" y="62.5" width="97" height="41" rx="9.5" stroke="#BECADA"/>
<path d="M239.47 88V86.516H241.696V80.174L239.974 81.21L239.274 79.894L242.214 78.13H243.488V86.516H245.574V88H239.47ZM247.459 88V86.67L250.651 83.268C251.08 82.8013 251.388 82.3907 251.575 82.036C251.762 81.672 251.855 81.3033 251.855 80.93C251.855 79.978 251.281 79.502 250.133 79.502C249.237 79.502 248.411 79.838 247.655 80.51L247.053 79.166C247.445 78.8113 247.935 78.5267 248.523 78.312C249.111 78.0973 249.722 77.99 250.357 77.99C251.412 77.99 252.219 78.228 252.779 78.704C253.348 79.18 253.633 79.8613 253.633 80.748C253.633 81.3453 253.488 81.9193 253.199 82.47C252.919 83.0207 252.476 83.6133 251.869 84.248L249.699 86.516H254.011V88H247.459ZM255.489 83.086V81.154H257.449V83.086H255.489ZM255.489 88V86.054H257.449V88H255.489ZM262.21 88.14C261.538 88.14 260.894 88.042 260.278 87.846C259.671 87.6407 259.167 87.3653 258.766 87.02L259.354 85.648C260.194 86.3013 261.127 86.628 262.154 86.628C263.414 86.628 264.044 86.1333 264.044 85.144C264.044 84.6773 263.885 84.332 263.568 84.108C263.26 83.8747 262.807 83.758 262.21 83.758H260.628V82.274H262.042C262.565 82.274 262.98 82.148 263.288 81.896C263.596 81.6347 263.75 81.2753 263.75 80.818C263.75 80.3887 263.605 80.062 263.316 79.838C263.036 79.614 262.625 79.502 262.084 79.502C261.113 79.502 260.259 79.838 259.522 80.51L258.934 79.166C259.326 78.7927 259.816 78.5033 260.404 78.298C260.992 78.0927 261.603 77.99 262.238 77.99C263.265 77.99 264.063 78.2233 264.632 78.69C265.201 79.1473 265.486 79.7867 265.486 80.608C265.486 81.14 265.351 81.6067 265.08 82.008C264.809 82.4093 264.441 82.6987 263.974 82.876C264.543 83.0347 264.987 83.3287 265.304 83.758C265.621 84.178 265.78 84.6913 265.78 85.298C265.78 86.1753 265.463 86.8707 264.828 87.384C264.193 87.888 263.321 88.14 262.21 88.14ZM270.801 88.14C269.634 88.14 268.743 87.7013 268.127 86.824C267.511 85.9373 267.203 84.6773 267.203 83.044C267.203 81.392 267.511 80.1367 268.127 79.278C268.743 78.4193 269.634 77.99 270.801 77.99C271.977 77.99 272.868 78.4193 273.475 79.278C274.091 80.1367 274.399 81.3873 274.399 83.03C274.399 84.6727 274.091 85.9373 273.475 86.824C272.859 87.7013 271.967 88.14 270.801 88.14ZM270.801 86.67C271.435 86.67 271.902 86.3807 272.201 85.802C272.509 85.214 272.663 84.29 272.663 83.03C272.663 81.7793 272.509 80.874 272.201 80.314C271.902 79.7447 271.435 79.46 270.801 79.46C270.175 79.46 269.709 79.7447 269.401 80.314C269.093 80.874 268.939 81.7793 268.939 83.03C268.939 84.29 269.093 85.214 269.401 85.802C269.709 86.3807 270.175 86.67 270.801 86.67ZM279.847 88V78.13H284.131C285.213 78.13 286.049 78.4007 286.637 78.942C287.225 79.4833 287.519 80.2393 287.519 81.21C287.519 82.1807 287.225 82.9413 286.637 83.492C286.049 84.0333 285.213 84.304 284.131 84.304H281.639V88H279.847ZM281.639 82.89H283.851C285.139 82.89 285.783 82.33 285.783 81.21C285.783 80.0993 285.139 79.544 283.851 79.544H281.639V82.89ZM289.007 88V78.13H290.505L294.005 84.584L297.491 78.13H298.961V88H297.337V81.35L294.509 86.502H293.459L290.631 81.378V88H289.007Z" fill="white"/>
<rect x="220.5" y="62.5" width="97" height="41" rx="9.5" stroke="#BECADA"/>
</svg>
