<svg width="307" height="56" viewBox="0 0 307 56" fill="none" xmlns="http://www.w3.org/2000/svg">
<rect width="306.24" height="55.1724" rx="14" fill="#1C6BA4"/>
<path d="M132.288 21.2319H137.216V22.7019H132.288V21.2319ZM133.52 24.2279H135.97V25.5859H133.52V24.2279ZM133.52 27.0839H135.97V28.4419H133.52V27.0839ZM132.862 22.0299H134.234V30.8219H132.862V22.0299ZM135.214 22.0159H136.614V33.8459H135.214V22.0159ZM132.036 30.4999C133.044 30.3599 134.5 30.0939 135.928 29.8279L136.04 31.2419C134.766 31.5219 133.45 31.8019 132.344 32.0259L132.036 30.4999ZM136.712 29.5339C137.538 29.3799 138.672 29.1279 139.862 28.8479L140.002 30.0099C139.036 30.3459 138.056 30.6819 137.202 30.9619L136.712 29.5339ZM137.51 22.0719L138.798 22.5619V29.7439H137.51V22.0719ZM139.512 23.3459H140.814V27.7699C140.814 30.1499 140.478 32.3759 138 33.8599C137.804 33.5659 137.37 33.0759 137.062 32.8519C139.246 31.5779 139.512 29.7439 139.512 27.7559V23.3459ZM143.502 21.7499H144.86V29.7859C144.86 30.3319 144.79 30.7099 144.468 30.9479C144.146 31.1719 143.768 31.2139 143.264 31.2139C143.222 30.8499 143.054 30.2479 142.872 29.8979C143.096 29.9119 143.306 29.9119 143.39 29.9119C143.474 29.9119 143.502 29.8699 143.502 29.7579V21.7499ZM139.932 20.7139L141.08 21.6659C140.324 22.2819 139.4 22.9259 138.7 23.3319L137.762 22.4779C138.448 22.0579 139.386 21.2879 139.932 20.7139ZM141.416 21.7499H144.314V23.0939H142.746V33.8459H141.416V21.7499ZM153.96 26.6219C154.758 29.5199 156.508 31.4939 159.798 32.2359C159.406 32.6139 158.902 33.3699 158.636 33.8599C155.066 32.8659 153.344 30.5839 152.308 26.9719L153.96 26.6219ZM147.31 25.9219H158.972V27.6579H147.31V25.9219ZM146.876 21.6239H159.336V23.3599H146.876V21.6239ZM152.084 22.0859H153.89V25.5299C153.89 28.5259 153.162 32.1519 147.534 33.8739C147.352 33.4539 146.848 32.7119 146.498 32.3759C151.496 30.9059 152.084 27.8819 152.084 25.5299V22.0859ZM166.63 28.1759H168.366V32.5579H166.63V28.1759ZM162.948 24.1299H172.174V25.5719H162.948V24.1299ZM161.338 31.9839H173.798V33.4679H161.338V31.9839ZM162.584 29.4639H172.692V30.9059H162.584V29.4639ZM165.188 24.9559L166.98 25.3899C166.434 26.3279 165.818 27.2939 165.342 27.9519L163.956 27.5319C164.39 26.8179 164.908 25.7399 165.188 24.9559ZM162.332 26.9019C164.684 26.8879 168.31 26.8039 171.656 26.7339L171.572 28.1339C168.282 28.2599 164.768 28.3439 162.402 28.3999L162.332 26.9019ZM168.912 26.1599L170.13 25.3479C171.194 26.1039 172.566 27.2239 173.21 28.0359L171.894 28.9319C171.306 28.1479 169.99 26.9719 168.912 26.1599ZM166.63 20.7139H168.366V22.6599H166.63V20.7139ZM161.38 21.6099H173.728V24.5359H172.006V23.1359H163.018V24.5359H161.38V21.6099Z" fill="white"/>
</svg>
