<svg width="332" height="85" viewBox="0 0 332 85" fill="none" xmlns="http://www.w3.org/2000/svg">
<rect width="70.4618" height="84.6232" rx="23.9648" fill="#1C6BA4"/>
<path d="M24.7587 36.9678V34.3925H27.9627V26.1799L25.509 27.6197L24.3126 25.3282L28.8752 22.6718H31.1057V34.3925H34.1069V36.9678H24.7587ZM36.5931 36.9678V34.6358L41.0746 29.9313C41.6423 29.3095 42.0479 28.7687 42.2912 28.3091C42.5481 27.836 42.6765 27.3628 42.6765 26.8896C42.6765 25.673 41.9262 25.0646 40.4257 25.0646C39.8444 25.0646 39.2631 25.1795 38.6818 25.4094C38.1005 25.6257 37.5327 25.9636 36.9784 26.4233L35.9645 24.1116C36.5593 23.5979 37.2893 23.1923 38.1545 22.8949C39.0332 22.5975 39.9322 22.4488 40.8515 22.4488C42.4467 22.4488 43.6634 22.807 44.5015 23.5235C45.3532 24.2265 45.779 25.2336 45.779 26.5449C45.779 27.4101 45.5762 28.2415 45.1707 29.0391C44.7787 29.8232 44.1298 30.6749 43.224 31.5941L40.4662 34.3925H46.3063V36.9678H36.5931Z" fill="white"/>
<path d="M26.4179 53.5255H22.9079V52.2573H31.4763V53.5255H27.9516V62.6543H26.4179V53.5255ZM38.043 55.4575V62.6543H36.5977V61.4892C36.3716 61.9022 36.057 62.2168 35.6539 62.4331C35.2606 62.6494 34.8182 62.7575 34.3266 62.7575C32.5765 62.7575 31.7015 61.794 31.7015 59.867V55.4575H33.191V59.8523C33.191 60.4323 33.309 60.86 33.545 61.1353C33.7809 61.4106 34.1447 61.5482 34.6363 61.5482C35.2164 61.5482 35.6784 61.3614 36.0226 60.9878C36.3765 60.6142 36.5535 60.1177 36.5535 59.4983V55.4575H38.043ZM46.4393 59.3066H41.3514C41.4595 60.8305 42.2166 61.5925 43.6225 61.5925C44.4484 61.5925 45.1956 61.3221 45.8641 60.7814L46.3213 61.8284C45.987 62.1136 45.5741 62.3397 45.0825 62.5068C44.5909 62.674 44.0895 62.7575 43.5783 62.7575C42.428 62.7575 41.5185 62.4282 40.85 61.7694C40.1912 61.1107 39.8619 60.2013 39.8619 59.0411C39.8619 58.3038 40.0044 57.65 40.2896 57.0797C40.5845 56.5095 40.9925 56.067 41.5136 55.7524C42.0445 55.4378 42.6443 55.2805 43.3128 55.2805C44.2862 55.2805 45.0481 55.5951 45.5987 56.2244C46.1591 56.8536 46.4393 57.7237 46.4393 58.8347V59.3066ZM43.3423 56.3718C42.7721 56.3718 42.3149 56.5537 41.9708 56.9175C41.6365 57.2714 41.435 57.7827 41.3661 58.4512H45.1563C45.1268 57.7827 44.9547 57.2714 44.6401 56.9175C44.3353 56.5537 43.9027 56.3718 43.3423 56.3718Z" fill="white"/>
<rect x="80.4619" width="70.4618" height="84.6232" rx="23.9648" fill="#DCEDF9"/>
<path d="M105.221 36.9678V34.3925H108.425V26.1799L105.971 27.6197L104.775 25.3282L109.337 22.6718H111.568V34.3925H114.569V36.9678H105.221ZM121.293 37.1908C120.293 37.1908 119.34 37.0489 118.434 36.765C117.528 36.4811 116.785 36.0958 116.203 35.6092L117.197 33.2366C118.4 34.1289 119.725 34.575 121.171 34.575C122.821 34.575 123.645 33.9599 123.645 32.7297C123.645 31.5941 122.875 31.0263 121.334 31.0263H118.941V28.4916H121.03C121.705 28.4916 122.239 28.3361 122.631 28.0252C123.024 27.7143 123.22 27.2817 123.22 26.7274C123.22 25.6189 122.496 25.0646 121.05 25.0646C119.698 25.0646 118.495 25.5175 117.44 26.4233L116.447 24.1116C117.042 23.5843 117.772 23.1788 118.637 22.8949C119.502 22.5975 120.401 22.4488 121.334 22.4488C122.875 22.4488 124.078 22.7935 124.943 23.483C125.808 24.1724 126.241 25.1187 126.241 26.3219C126.241 27.0654 126.052 27.721 125.673 28.2888C125.295 28.8566 124.767 29.2689 124.091 29.5258C124.903 29.7556 125.531 30.1814 125.977 30.8033C126.437 31.4116 126.667 32.1484 126.667 33.0136C126.667 34.3114 126.187 35.332 125.227 36.0755C124.267 36.8191 122.956 37.1908 121.293 37.1908Z" fill="#253141"/>
<path d="M103.234 62.6543L99.5911 52.2573H101.154L103.942 60.4422L106.803 52.2573H107.968L110.799 60.5306L113.645 52.2573H115.135L111.463 62.6543H110.18L107.363 54.5726L104.517 62.6543H103.234ZM119.203 62.787C118.024 62.787 117.095 62.4577 116.416 61.7989C115.738 61.1304 115.399 60.2209 115.399 59.0706C115.399 58.3333 115.546 57.6844 115.841 57.124C116.146 56.5537 116.564 56.1113 117.095 55.7967C117.625 55.4821 118.235 55.3248 118.923 55.3248C119.916 55.3248 120.698 55.6443 121.268 56.2833C121.838 56.9126 122.124 57.7827 122.124 58.8937V59.3951H116.844C116.952 60.8895 117.743 61.6367 119.218 61.6367C119.631 61.6367 120.034 61.5728 120.428 61.445C120.831 61.3172 121.209 61.1058 121.563 60.8108L122.006 61.8432C121.681 62.1381 121.263 62.3692 120.752 62.5363C120.241 62.7035 119.725 62.787 119.203 62.787ZM118.982 56.3718C118.363 56.3718 117.871 56.5635 117.508 56.947C117.144 57.3304 116.923 57.8417 116.844 58.4807H120.87C120.84 57.8122 120.664 57.296 120.339 56.9322C120.015 56.5586 119.562 56.3718 118.982 56.3718ZM126.638 62.787C126.009 62.787 125.453 62.6395 124.971 62.3446C124.499 62.0398 124.131 61.6072 123.865 61.0468C123.6 60.4864 123.467 59.8228 123.467 59.0559C123.467 58.289 123.6 57.6303 123.865 57.0797C124.131 56.5193 124.499 56.0867 124.971 55.7819C125.443 55.4771 125.999 55.3248 126.638 55.3248C127.179 55.3248 127.66 55.4427 128.083 55.6787C128.506 55.9147 128.821 56.2342 129.027 56.6373V52.2573H130.516V62.6543H129.056V61.4008C128.85 61.8333 128.53 62.1725 128.098 62.4183C127.675 62.6641 127.188 62.787 126.638 62.787ZM127.021 61.6367C127.631 61.6367 128.122 61.4155 128.496 60.9731C128.87 60.5306 129.056 59.8916 129.056 59.0559C129.056 58.2202 128.87 57.586 128.496 57.1535C128.122 56.711 127.631 56.4898 127.021 56.4898C126.402 56.4898 125.905 56.711 125.532 57.1535C125.158 57.586 124.971 58.2202 124.971 59.0559C124.971 59.8916 125.158 60.5306 125.532 60.9731C125.905 61.4155 126.402 61.6367 127.021 61.6367Z" fill="#253141"/>
<rect x="160.924" width="70.4618" height="84.6232" rx="23.9648" fill="#DCEDF9"/>
<path d="M185.682 36.9678V34.3925H188.886V26.1799L186.433 27.6197L185.236 25.3282L189.799 22.6718H192.029V34.3925H195.03V36.9678H185.682ZM202.769 36.9678V34.4128H196.746V32.1619L203.296 22.6718H205.851V31.9388H207.798V34.4128H205.851V36.9678H202.769ZM202.769 31.9388V27.2749L199.605 31.9388H202.769Z" fill="#253141"/>
<path d="M186.4 62.6543V53.5403H182.714V52.2573H191.606V53.5403H187.919V62.6543H186.4ZM192.865 62.6543V52.2573H194.354V56.5783C194.6 56.1654 194.929 55.8557 195.342 55.6492C195.765 55.4329 196.237 55.3248 196.758 55.3248C198.459 55.3248 199.309 56.2883 199.309 58.2153V62.6543H197.82V58.3038C197.82 57.6844 197.697 57.2321 197.451 56.947C197.215 56.6619 196.842 56.5193 196.33 56.5193C195.731 56.5193 195.249 56.711 194.885 57.0945C194.531 57.4681 194.354 57.9646 194.354 58.584V62.6543H192.865ZM204.075 62.787C202.335 62.787 201.465 61.8186 201.465 59.8818V55.4575H202.955V59.8965C202.955 60.4766 203.073 60.9043 203.309 61.1795C203.544 61.4548 203.918 61.5925 204.429 61.5925C204.99 61.5925 205.442 61.4057 205.786 61.0321C206.14 60.6585 206.317 60.157 206.317 59.5278V55.4575H207.807V62.6543H206.361V61.504C206.125 61.9267 205.811 62.2463 205.417 62.4626C205.024 62.6789 204.577 62.787 204.075 62.787Z" fill="#253141"/>
<rect x="241.385" width="70.4618" height="84.6232" rx="23.9648" fill="#DCEDF9"/>
<path d="M266.144 36.9678V34.3925H269.348V26.1799L266.895 27.6197L265.698 25.3282L270.261 22.6718H272.491V34.3925H275.492V36.9678H266.144ZM282.582 37.1908C281.635 37.1908 280.709 37.0489 279.804 36.765C278.911 36.4676 278.188 36.0823 277.634 35.6092L278.628 33.2366C279.844 34.1289 281.142 34.575 282.521 34.575C283.291 34.575 283.886 34.3857 284.305 34.0072C284.738 33.6287 284.954 33.1217 284.954 32.4864C284.954 31.8375 284.745 31.317 284.326 30.925C283.92 30.5329 283.366 30.3369 282.663 30.3369C281.649 30.3369 280.784 30.7222 280.067 31.4927H278.039V22.6718H287.083V25.2471H281.061V28.451C281.723 28.0185 282.521 27.8022 283.454 27.8022C284.359 27.8022 285.15 27.9982 285.826 28.3902C286.502 28.7687 287.029 29.3027 287.408 29.9922C287.786 30.6816 287.976 31.4792 287.976 32.385C287.976 33.3448 287.759 34.1829 287.327 34.8994C286.894 35.6159 286.272 36.1769 285.461 36.5825C284.65 36.9881 283.69 37.1908 282.582 37.1908Z" fill="#253141"/>
<path d="M268.826 62.6543V52.2573H275.433V53.4961H270.36V56.8143H275.123V58.0531H270.36V62.6543H268.826ZM276.833 62.6543V55.4575H278.278V56.7405C278.652 55.8852 279.428 55.4083 280.608 55.31L281.095 55.2805L281.198 56.5488L280.299 56.6373C278.991 56.7651 278.337 57.4386 278.337 58.6577V62.6543H276.833ZM282.349 53.791V52.2425H284.089V53.791H282.349ZM282.482 62.6543V55.4575H283.971V62.6543H282.482Z" fill="#253141"/>
<rect x="321.847" width="70.4618" height="84.6232" rx="23.9648" fill="#DCEDF9"/>
</svg>
