<svg width="27" height="27" viewBox="0 0 27 27" fill="none" xmlns="http://www.w3.org/2000/svg">
<path d="M4.02573 0.66268L13.5 10.1365L22.9252 0.711767C23.1334 0.49018 23.3842 0.312919 23.6625 0.190612C23.9409 0.0683047 24.2411 0.00347132 24.5451 0C25.1961 0 25.8204 0.258584 26.2807 0.718868C26.741 1.17915 26.9996 1.80343 26.9996 2.45437C27.0053 2.75528 26.9495 3.05419 26.8355 3.33274C26.7216 3.6113 26.5519 3.86363 26.3369 4.07425L16.789 13.499L26.3369 23.0465C26.7414 23.4423 26.9786 23.9782 26.9996 24.5437C26.9996 25.1946 26.741 25.8189 26.2807 26.2792C25.8204 26.7395 25.1961 26.9981 24.5451 26.9981C24.2323 27.011 23.9202 26.9588 23.6287 26.8447C23.3371 26.7307 23.0725 26.5572 22.8515 26.3354L13.5 16.8615L4.05028 26.3108C3.84289 26.525 3.59513 26.696 3.32131 26.814C3.04748 26.9319 2.753 26.9945 2.45487 26.9981C1.80391 26.9981 1.1796 26.7395 0.719298 26.2792C0.258995 25.8189 0.000399359 25.1946 0.000399359 24.5437C-0.00532323 24.2428 0.0505084 23.9439 0.164468 23.6653C0.278428 23.3868 0.448113 23.1344 0.663107 22.9238L10.211 13.499L0.663107 3.95153C0.258573 3.55579 0.0213596 3.01989 0.000399359 2.45437C0.000399359 1.80343 0.258995 1.17915 0.719298 0.718868C1.1796 0.258584 1.80391 0 2.45487 0C3.04395 0.00736311 3.60847 0.245437 4.02573 0.66268Z" fill="#EF815E"/>
</svg>
