<svg width="288" height="136" viewBox="0 0 288 136" fill="none" xmlns="http://www.w3.org/2000/svg">
<rect x="5" y="8" width="282.005" height="120.733" rx="28" fill="#1C6BA4"/>
<g filter="url(#filter0_f_767_2553)">
<rect x="18.6914" y="18.8936" width="71.4607" height="99.026" rx="26" fill="#155A96"/>
</g>
<rect x="18.6914" y="18.8936" width="71.4607" height="99.026" rx="26" fill="white" fill-opacity="0.14"/>
<path d="M40.0296 62.4062V59.6122H43.5056V50.7022L40.8436 52.2642L39.5456 49.7782L44.4956 46.8962H46.9156V59.6122H50.1716V62.4062H40.0296ZM52.869 62.4062V59.8762L57.731 54.7722C58.347 54.0976 58.787 53.5109 59.051 53.0122C59.3297 52.4989 59.469 51.9856 59.469 51.4722C59.469 50.1522 58.655 49.4922 57.027 49.4922C56.3963 49.4922 55.7657 49.6169 55.135 49.8662C54.5043 50.1009 53.8883 50.4676 53.287 50.9662L52.187 48.4582C52.8323 47.9009 53.6243 47.4609 54.563 47.1382C55.5163 46.8156 56.4917 46.6542 57.489 46.6542C59.2197 46.6542 60.5397 47.0429 61.449 47.8202C62.373 48.5829 62.835 49.6756 62.835 51.0983C62.835 52.0369 62.615 52.9389 62.175 53.8042C61.7497 54.6549 61.0457 55.5789 60.063 56.5762L57.071 59.6122H63.407V62.4062H52.869Z" fill="white"/>
<path d="M41.8296 80.5022H38.0216V79.1262H47.3176V80.5022H43.4936V90.4062H41.8296V80.5022ZM54.442 82.5982V90.4062H52.874V89.1422C52.6286 89.5902 52.2873 89.9316 51.85 90.1662C51.4233 90.4009 50.9433 90.5183 50.41 90.5183C48.5113 90.5183 47.562 89.4729 47.562 87.3822V82.5982H49.178V87.3662C49.178 87.9956 49.306 88.4596 49.562 88.7582C49.818 89.0569 50.2126 89.2062 50.746 89.2062C51.3753 89.2062 51.8766 89.0036 52.25 88.5982C52.634 88.1929 52.826 87.6542 52.826 86.9822V82.5982H54.442ZM63.5513 86.7742H58.0313C58.1487 88.4276 58.97 89.2542 60.4953 89.2542C61.3913 89.2542 62.202 88.9609 62.9273 88.3742L63.4233 89.5102C63.0607 89.8196 62.6127 90.0649 62.0793 90.2462C61.546 90.4276 61.002 90.5183 60.4473 90.5183C59.1993 90.5183 58.2127 90.1609 57.4873 89.4462C56.7727 88.7316 56.4153 87.7449 56.4153 86.4862C56.4153 85.6862 56.57 84.9769 56.8793 84.3582C57.1993 83.7396 57.642 83.2596 58.2073 82.9182C58.7833 82.5769 59.434 82.4062 60.1593 82.4062C61.2153 82.4062 62.042 82.7476 62.6393 83.4302C63.2473 84.1129 63.5513 85.0569 63.5513 86.2622V86.7742ZM60.1913 83.5902C59.5727 83.5902 59.0767 83.7876 58.7033 84.1822C58.3407 84.5662 58.122 85.1209 58.0473 85.8462H62.1593C62.1273 85.1209 61.9407 84.5662 61.5993 84.1822C61.2687 83.7876 60.7993 83.5902 60.1913 83.5902Z" fill="white"/>
<path d="M111.2 47.126C110.071 47.126 109.212 46.692 108.624 45.824C108.036 44.956 107.742 43.7007 107.742 42.058C107.742 40.406 108.036 39.1507 108.624 38.292C109.212 37.4333 110.071 37.004 111.2 37.004C112.339 37.004 113.197 37.4333 113.776 38.292C114.364 39.1413 114.658 40.392 114.658 42.044C114.658 43.696 114.359 44.956 113.762 45.824C113.174 46.692 112.32 47.126 111.2 47.126ZM111.2 46.132C111.984 46.132 112.563 45.8007 112.936 45.138C113.319 44.4753 113.51 43.444 113.51 42.044C113.51 40.644 113.323 39.622 112.95 38.978C112.577 38.3247 111.993 37.998 111.2 37.998C110.416 37.998 109.833 38.3247 109.45 38.978C109.077 39.6313 108.89 40.6533 108.89 42.044C108.89 43.444 109.077 44.4753 109.45 45.138C109.833 45.8007 110.416 46.132 111.2 46.132ZM119.063 47.126C118.559 47.126 118.05 47.0187 117.537 46.804C117.023 46.5893 116.603 46.3 116.277 45.936L116.711 45.026C117.047 45.39 117.415 45.6607 117.817 45.838C118.227 46.0153 118.647 46.104 119.077 46.104C119.991 46.104 120.696 45.7633 121.191 45.082C121.685 44.4007 121.933 43.388 121.933 42.044V41.344C121.746 41.96 121.41 42.4453 120.925 42.8C120.449 43.1453 119.884 43.318 119.231 43.318C118.652 43.318 118.139 43.1873 117.691 42.926C117.243 42.6553 116.893 42.2867 116.641 41.82C116.389 41.3533 116.263 40.8167 116.263 40.21C116.263 39.5847 116.393 39.034 116.655 38.558C116.925 38.0727 117.294 37.6947 117.761 37.424C118.237 37.144 118.783 37.004 119.399 37.004C120.565 37.004 121.461 37.4287 122.087 38.278C122.721 39.118 123.039 40.2987 123.039 41.82C123.039 43.5187 122.689 44.83 121.989 45.754C121.289 46.6687 120.313 47.126 119.063 47.126ZM119.469 42.352C120.094 42.352 120.603 42.1513 120.995 41.75C121.387 41.3393 121.583 40.812 121.583 40.168C121.583 39.5147 121.387 38.9873 120.995 38.586C120.603 38.1753 120.094 37.97 119.469 37.97C118.853 37.97 118.349 38.1753 117.957 38.586C117.565 38.9873 117.369 39.5147 117.369 40.168C117.369 40.812 117.565 41.3393 117.957 41.75C118.349 42.1513 118.853 42.352 119.469 42.352ZM124.951 41.624V40.196H126.379V41.624H124.951ZM124.951 47V45.572H126.379V47H124.951ZM131.483 47.126C130.829 47.126 130.209 47.028 129.621 46.832C129.033 46.6267 128.538 46.3327 128.137 45.95L128.557 45.04C129.014 45.4133 129.476 45.684 129.943 45.852C130.409 46.02 130.913 46.104 131.455 46.104C132.164 46.104 132.705 45.95 133.079 45.642C133.461 45.3247 133.653 44.8627 133.653 44.256C133.653 43.6773 133.461 43.2387 133.079 42.94C132.696 42.6413 132.141 42.492 131.413 42.492H129.957V41.498H131.315C131.949 41.498 132.449 41.3347 132.813 41.008C133.186 40.672 133.373 40.2147 133.373 39.636C133.373 39.1227 133.2 38.726 132.855 38.446C132.519 38.166 132.038 38.026 131.413 38.026C130.386 38.026 129.49 38.3993 128.725 39.146L128.305 38.25C128.669 37.858 129.131 37.5547 129.691 37.34C130.26 37.116 130.857 37.004 131.483 37.004C132.435 37.004 133.177 37.228 133.709 37.676C134.25 38.124 134.521 38.7447 134.521 39.538C134.521 40.0887 134.381 40.574 134.101 40.994C133.821 41.4047 133.433 41.7033 132.939 41.89C133.527 42.0487 133.984 42.3427 134.311 42.772C134.637 43.192 134.801 43.7147 134.801 44.34C134.801 45.1893 134.502 45.866 133.905 46.37C133.317 46.874 132.509 47.126 131.483 47.126ZM140.129 47.126C139 47.126 138.141 46.692 137.553 45.824C136.965 44.956 136.671 43.7007 136.671 42.058C136.671 40.406 136.965 39.1507 137.553 38.292C138.141 37.4333 139 37.004 140.129 37.004C141.268 37.004 142.126 37.4333 142.705 38.292C143.293 39.1413 143.587 40.392 143.587 42.044C143.587 43.696 143.288 44.956 142.691 45.824C142.103 46.692 141.249 47.126 140.129 47.126ZM140.129 46.132C140.913 46.132 141.492 45.8007 141.865 45.138C142.248 44.4753 142.439 43.444 142.439 42.044C142.439 40.644 142.252 39.622 141.879 38.978C141.506 38.3247 140.922 37.998 140.129 37.998C139.345 37.998 138.762 38.3247 138.379 38.978C138.006 39.6313 137.819 40.6533 137.819 42.044C137.819 43.444 138.006 44.4753 138.379 45.138C138.762 45.8007 139.345 46.132 140.129 46.132ZM148.465 47L152.819 37.13H153.799L158.153 47H156.963L155.871 44.48H150.733L149.655 47H148.465ZM153.295 38.474L151.153 43.514H155.465L153.323 38.474H153.295ZM159.785 47V37.13H160.751L164.545 44.256L168.311 37.13H169.277V47H168.213V39.286L164.923 45.474H164.167L160.835 39.3V47H159.785Z" fill="white"/>
<path d="M110.225 97.5749H118.67V98.6699H110.225V97.5749ZM109.715 92.9399H119.27V99.2999H118.085V94.0199H110.855V99.3299H109.715V92.9399ZM112.73 85.4849L113.96 85.9199C113.06 87.6599 111.8 89.7299 110.795 91.0499L109.82 90.6299C110.81 89.2949 112.04 87.0899 112.73 85.4849ZM116.33 87.9149L117.215 87.2549C118.745 88.4699 120.515 90.2399 121.295 91.4849L120.335 92.2349C119.585 90.9899 117.875 89.1749 116.33 87.9149ZM107.945 90.1349C110.795 90.0599 115.415 89.8649 119.69 89.6699L119.63 90.7499C115.415 90.9749 110.885 91.1699 108.02 91.2899L107.945 90.1349ZM123.05 87.0449H136.265V88.1099H123.05V87.0449ZM126.14 93.0599H133.235V93.9749H126.14V93.0599ZM125.825 95.5049H133.505V96.4499H125.825V95.5049ZM129.05 93.4949H130.13V99.0449H129.05V93.4949ZM123.86 89.6849H134.705V90.7349H124.985V99.3149H123.86V89.6849ZM134.315 89.6849H135.47V98.0249C135.47 98.6849 135.305 98.9999 134.81 99.1649C134.33 99.3299 133.475 99.3449 132.245 99.3449C132.185 99.0449 132.005 98.6099 131.84 98.3249C132.785 98.3699 133.715 98.3699 133.985 98.3549C134.255 98.3399 134.315 98.2649 134.315 98.0249V89.6849ZM126.89 91.2299L127.79 90.9449C128.195 91.4849 128.585 92.2199 128.75 92.7149L127.805 93.0599C127.655 92.5499 127.265 91.7849 126.89 91.2299ZM131.48 90.9299L132.44 91.2149C132.05 91.9949 131.585 92.8349 131.195 93.4049L130.385 93.1349C130.76 92.5199 131.225 91.5749 131.48 90.9299ZM129.02 85.5449H130.265V90.3899H129.02V85.5449ZM144.155 85.4699H145.34V88.2749H144.155V85.4699ZM144.17 88.6349H145.325V99.3749H144.17V88.6349ZM138.05 87.6149H151.565V88.7099H138.05V87.6149ZM139.595 90.7649H149.45V91.8599H140.72V97.4699H139.595V90.7649ZM149.015 90.7649H150.17V96.0449C150.17 96.6899 150.02 97.0349 149.525 97.2299C149 97.4099 148.16 97.4249 146.87 97.4249C146.825 97.0799 146.645 96.6299 146.48 96.3149C147.5 96.3449 148.415 96.3449 148.67 96.3299C148.94 96.3149 149.015 96.2549 149.015 96.0449V90.7649ZM153.425 86.9699H166.535V88.0199H153.425V86.9699ZM159.32 85.5449H160.49V99.3299H159.32V85.5449ZM158.975 94.1399L159.92 94.5599C158.51 96.4499 156.035 98.2049 153.845 99.1049C153.665 98.8199 153.32 98.3849 153.05 98.1599C155.24 97.3949 157.7 95.7899 158.975 94.1399ZM160.865 94.1549C162.155 95.8049 164.66 97.4099 166.88 98.1599C166.61 98.3849 166.265 98.8199 166.085 99.1349C163.865 98.2499 161.36 96.4499 159.95 94.5749L160.865 94.1549ZM155.84 92.4599V93.8999H164.18V92.4599H155.84ZM155.84 90.1799V91.6049H164.18V90.1799H155.84ZM154.745 89.2949H165.32V94.7999H154.745V89.2949ZM174.08 89.0249V90.7499H177.53V89.0249H174.08ZM173.03 88.2149H178.64V91.5599H173.03V88.2149ZM172.34 93.4049V95.6249H174.335V93.4049H172.34ZM171.38 92.5799H175.325V96.4499H171.38V92.5799ZM177.305 93.4049V95.6249H179.405V93.4049H177.305ZM176.345 92.5799H180.395V96.4499H176.345V92.5799ZM168.995 86.1899H181.535V87.1949H170.09V99.3449H168.995V86.1899ZM169.715 97.5749H181.925V98.6099H169.715V97.5749ZM183.68 89.8499H196.865V90.9899H183.68V89.8499ZM190.985 90.2999C191.96 93.9299 194 96.9599 197.12 98.2499C196.835 98.5049 196.46 98.9849 196.265 99.2999C193.025 97.7699 190.985 94.6049 189.86 90.5699L190.985 90.2999ZM189.665 85.5449H190.88C190.82 89.4749 190.79 96.3149 184.235 99.3149C184.055 99.0149 183.695 98.6099 183.38 98.3849C189.755 95.6099 189.635 89.1449 189.665 85.5449ZM198.83 95.4449H211.97V96.3749H198.83V95.4449ZM201.485 92.8049H208.415V93.6599H201.485V92.8049ZM204.83 94.6049H205.94V98.1599C205.94 98.7449 205.82 99.0299 205.325 99.1799C204.875 99.3299 204.095 99.3449 202.895 99.3449C202.835 99.0449 202.67 98.6549 202.52 98.3849C203.435 98.4149 204.29 98.3999 204.53 98.3849C204.77 98.3699 204.83 98.3249 204.83 98.1299V94.6049ZM208.16 92.8049H208.43L208.67 92.7449L209.345 93.3149C208.355 94.1099 206.9 94.8899 205.655 95.3849C205.52 95.2049 205.25 94.9199 205.1 94.7849C206.195 94.3649 207.5 93.5999 208.16 92.9999V92.8049ZM199.01 90.9149H211.82V93.6599H210.71V91.7849H200.09V93.6599H199.01V90.9149ZM199.91 86.1899L201.305 86.5349C201.275 86.6099 201.185 86.6699 201.005 86.6999L201.29 91.3499H200.255L199.91 86.1899ZM209.915 86.0999H210.98C210.89 87.8249 210.74 90.0599 210.59 91.3949H209.51C209.69 90.0299 209.84 87.7799 209.915 86.0999ZM207.455 86.0999H210.335V86.8799H207.455V86.0999ZM202.835 85.6649L203.42 86.2949C202.61 86.6699 201.47 86.9549 200.645 87.1349L200.15 86.5199C200.975 86.3549 202.145 85.9349 202.835 85.6649ZM200.57 87.7049H203.3V88.4699H200.57V87.7049ZM200.645 89.2949H203.375V90.0749H200.645V89.2949ZM207.515 87.7049H210.215V88.4699H207.515V87.7049ZM207.455 89.2949H210.11V90.0749H207.455V89.2949ZM206.09 85.6799L206.885 85.9199C206.195 86.8199 205.085 87.6749 204.08 88.2299C203.945 88.0799 203.615 87.8099 203.435 87.6749C204.455 87.1799 205.49 86.4599 206.09 85.6799ZM203.855 86.3099L204.41 85.8299C205.295 86.2649 206.375 86.9849 206.9 87.5099L206.315 88.0349C205.805 87.5099 204.74 86.7899 203.855 86.3099ZM206.24 88.1699L207.05 88.4099C206.345 89.3549 205.16 90.2549 204.125 90.8249C203.99 90.6899 203.66 90.4049 203.465 90.2699C204.53 89.7599 205.625 88.9949 206.24 88.1699ZM203.96 88.8599L204.515 88.3949C205.415 88.8449 206.51 89.5949 207.05 90.1349L206.45 90.6749C205.94 90.1349 204.86 89.3699 203.96 88.8599ZM221 97.7699H225.95V98.7599H221V97.7699ZM221.735 87.0749H225.695V88.0499H221.735V87.0749ZM220.565 93.8999H226.46V99.2549H225.38V94.8749H221.6V99.2999H220.565V93.8999ZM225.29 87.0749H225.485L225.695 87.0299L226.415 87.3299C225.26 91.0199 222.515 93.4799 219.665 94.6949C219.53 94.4399 219.23 94.0499 219.005 93.8399C221.66 92.8199 224.315 90.4049 225.29 87.2699V87.0749ZM221.99 85.5299L223.07 85.7849C222.395 87.8249 221.285 89.7299 220.04 90.9749C219.86 90.7799 219.425 90.4199 219.155 90.2549C220.385 89.1299 221.42 87.3749 221.99 85.5299ZM221.69 87.6899C222.56 89.8349 224.57 92.4149 227.645 93.5849C227.405 93.7949 227.09 94.2299 226.94 94.5149C223.85 93.1799 221.87 90.4649 220.955 88.3049L221.69 87.6899ZM214.385 92.1899H215.33V97.6349H214.385V92.1899ZM215.39 87.1499V89.7899H218.21V87.1499H215.39ZM214.385 86.1599H219.26V90.7799H214.385V86.1599ZM216.5 90.2849H217.52V97.1399H216.5V90.2849ZM213.605 97.5149C215.09 97.2149 217.34 96.6899 219.5 96.1799L219.605 97.1849C217.55 97.6949 215.39 98.2199 213.815 98.6099L213.605 97.5149ZM216.86 92.9549H219.395V93.9599H216.86V92.9549ZM230.06 98.1299V97.0799H232.475V89.0399L230.57 90.2399L230.045 89.3249L232.82 87.5549H233.705V97.0799H235.97V98.1299H230.06ZM239.654 87.0449V89.3249H241.889V87.0449H239.654ZM238.634 86.0999H242.954V90.2849H238.634V86.0999ZM237.944 91.3349H243.599V92.3249H237.944V91.3349ZM239.354 91.7849H240.389C240.134 93.0299 239.774 94.5899 239.504 95.5799L238.484 95.3849C238.784 94.4249 239.129 92.9249 239.354 91.7849ZM239.474 93.6599H242.264V94.6199H239.219L239.474 93.6599ZM241.844 93.6599H242.894C242.894 93.6599 242.879 93.9599 242.864 94.1249C242.624 97.2599 242.399 98.4899 241.979 98.9399C241.724 99.2099 241.469 99.2999 241.064 99.3449C240.734 99.3599 240.119 99.3599 239.489 99.3299C239.474 99.0449 239.354 98.6099 239.174 98.3399C239.819 98.3999 240.404 98.3999 240.644 98.3999C240.869 98.4149 241.019 98.3849 241.139 98.2499C241.439 97.9499 241.664 96.7949 241.844 93.8399V93.6599ZM247.499 86.5649H251.084V87.4949H247.499V86.5649ZM244.484 88.5149H251.099V89.4299H244.484V88.5149ZM246.959 85.5299H248.039V88.9949H246.959V85.5299ZM244.004 88.5149H245.024V92.3549C245.024 94.4549 244.814 97.4249 243.419 99.4199C243.239 99.2249 242.819 98.9099 242.564 98.8049C243.869 96.8999 244.004 94.2899 244.004 92.3549V88.5149ZM245.384 90.9899L249.824 90.5549L249.929 91.3349L245.489 91.8149L245.384 90.9899ZM247.019 89.5349H248.024V92.2199C248.024 92.5349 248.084 92.5799 248.504 92.5799C248.684 92.5799 249.644 92.5799 249.899 92.5799C250.229 92.5799 250.289 92.4749 250.334 91.6349C250.544 91.7699 250.934 91.9049 251.204 91.9649C251.114 93.1199 250.829 93.4199 250.019 93.4199C249.794 93.4199 248.594 93.4199 248.369 93.4199C247.289 93.4199 247.019 93.1799 247.019 92.2199V89.5349ZM250.784 88.5149H250.949L251.129 88.4699L251.834 88.6499C251.654 89.5649 251.414 90.6449 251.234 91.3199L250.364 91.1099C250.514 90.4799 250.694 89.4599 250.784 88.6649V88.5149ZM246.239 94.0799H247.214C247.109 96.6299 246.674 98.3849 244.844 99.3899C244.709 99.1349 244.409 98.7599 244.184 98.5799C245.819 97.7399 246.149 96.2849 246.239 94.0799ZM248.444 94.0649H249.419V97.7699C249.419 97.8749 249.449 97.9799 249.524 98.0099C249.614 98.0549 249.734 98.0849 249.884 98.0849C250.004 98.0849 250.244 98.0849 250.424 98.0849C250.559 98.0849 250.754 98.0549 250.829 98.0099C250.919 97.9649 250.994 97.8599 251.024 97.6949C251.069 97.4549 251.084 96.8699 251.084 96.1949C251.279 96.3749 251.654 96.5699 251.939 96.6599C251.924 97.3649 251.849 98.1149 251.774 98.3699C251.684 98.6549 251.519 98.8199 251.294 98.9549C251.114 99.0449 250.784 99.1049 250.499 99.1049C250.304 99.1049 249.809 99.1049 249.644 99.1049C249.314 99.1049 248.969 99.0449 248.744 98.8649C248.504 98.6549 248.444 98.4299 248.444 97.7399V94.0649Z" fill="white" fill-opacity="0.65"/>
<path d="M116.234 60.802H125.05V62.968H116.234V60.802ZM119.388 56.85H121.668V74.691H119.388V56.85ZM119.35 61.847L121.003 62.398C120.034 66.008 118.248 69.922 116.082 72.069C115.835 71.404 115.227 70.53 114.809 69.979C116.823 68.06 118.571 64.83 119.35 61.847ZM121.82 61.847C122.58 64.792 124.043 68.003 125.639 69.827C125.088 70.207 124.328 70.986 123.929 71.575C122.371 69.428 121.06 65.685 120.3 62.265L121.82 61.847ZM107.893 60.802H115.645V62.968H107.893V60.802ZM110.933 56.85H113.156V74.691H110.933V56.85ZM110.8 62.227L112.244 62.74C111.541 65.875 110.154 69.523 108.52 71.48C108.292 70.815 107.741 69.865 107.38 69.276C108.862 67.585 110.211 64.678 110.8 62.227ZM113.118 63.253C113.688 63.766 115.626 66.008 116.044 66.521L114.619 68.497C114.03 67.357 112.624 65.343 111.921 64.393L113.118 63.253ZM134.493 57.135H137.001V71.86C137.001 73.266 136.678 73.893 135.804 74.254C134.93 74.634 133.619 74.71 131.757 74.691C131.643 74.026 131.206 72.943 130.845 72.316C132.099 72.392 133.524 72.373 133.923 72.354C134.341 72.354 134.493 72.221 134.493 71.841V57.135ZM139.072 62.132L141.295 61.296C142.853 63.975 144.43 67.452 144.905 69.827L142.416 70.815C142.017 68.516 140.573 64.925 139.072 62.132ZM129.515 61.486L132.118 61.923C131.472 64.792 130.427 68.345 128.831 70.454C128.28 70.036 127.235 69.504 126.608 69.257C128.147 67.319 129.116 63.975 129.515 61.486ZM152.619 71.898H161.131V73.969H152.619V71.898ZM151.669 58.731H158.395V60.745H151.669V58.731ZM152.163 56.755L154.728 57.268C153.113 60.042 150.833 62.588 147.413 64.64C147.09 64.07 146.33 63.234 145.817 62.835C148.952 61.182 151.061 58.864 152.163 56.755ZM157.673 58.731H158.11L158.49 58.617L160.067 59.453C157.844 65.362 152.771 69.238 147.109 71.138C146.824 70.511 146.254 69.58 145.779 69.105C151.023 67.585 155.925 63.899 157.673 59.111V58.731ZM149.18 62.911L150.871 61.429C152.182 62.36 153.911 63.709 154.747 64.697L152.904 66.35C152.182 65.362 150.491 63.899 149.18 62.911ZM160.067 66.103H162.442V74.729H160.067V66.103ZM153.588 66.103H161.207V68.174H153.588V74.691H151.308V67.794L153.037 66.103H153.588ZM175.286 66.407H177.585V71.556C177.585 72.183 177.68 72.259 178.269 72.259C178.535 72.259 179.599 72.259 179.922 72.259C180.492 72.259 180.587 71.917 180.663 69.675C181.138 70.036 182.126 70.416 182.753 70.568C182.525 73.608 181.917 74.425 180.131 74.425C179.694 74.425 178.345 74.425 177.927 74.425C175.78 74.425 175.286 73.703 175.286 71.556V66.407ZM165.596 64.716H182.563V66.92H165.596V64.716ZM168.731 59.434H181.062V61.619H168.731V59.434ZM170.175 66.445H172.569C172.208 70.036 171.315 73.076 166.736 74.805C166.47 74.197 165.824 73.266 165.292 72.81C169.358 71.499 169.89 69.143 170.175 66.445ZM168.712 57.135L171.03 57.591C170.422 59.833 169.453 62.569 168.18 64.241C167.648 63.899 166.717 63.424 166.147 63.215C167.401 61.657 168.294 59.092 168.712 57.135ZM172.93 56.869H175.248V65.4H172.93V56.869ZM187.693 60.308H200.917V62.531H187.693V60.308ZM186.914 65.913H200.195V68.098H186.914V65.913ZM184.71 71.936H201.886V74.159H184.71V71.936ZM192.101 56.869H194.476V73.038H192.101V56.869ZM187.712 57.097L190.068 57.629C189.232 60.574 187.845 63.5 186.363 65.324C185.907 64.925 184.9 64.26 184.311 63.937C185.812 62.341 187.028 59.719 187.712 57.097Z" fill="white"/>
<path d="M250.5 28.8932C250.5 29.2614 250.202 29.5599 249.833 29.5599C249.465 29.5599 249.167 29.2614 249.167 28.8932C249.167 28.525 249.465 28.2266 249.833 28.2266C250.202 28.2266 250.5 28.525 250.5 28.8932Z" stroke="white" stroke-opacity="0.62" stroke-width="2"/>
<path d="M257.167 28.8932C257.167 29.2614 256.868 29.5599 256.5 29.5599C256.132 29.5599 255.833 29.2614 255.833 28.8932C255.833 28.525 256.132 28.2266 256.5 28.2266C256.868 28.2266 257.167 28.525 257.167 28.8932Z" stroke="white" stroke-opacity="0.62" stroke-width="2"/>
<path d="M263.833 28.8932C263.833 29.2614 263.535 29.5599 263.167 29.5599C262.799 29.5599 262.5 29.2614 262.5 28.8932C262.5 28.525 262.799 28.2266 263.167 28.2266C263.535 28.2266 263.833 28.525 263.833 28.8932Z" stroke="white" stroke-opacity="0.62" stroke-width="2"/>
<defs>
<filter id="filter0_f_767_2553" x="0.691406" y="0.893555" width="107.461" height="135.026" filterUnits="userSpaceOnUse" color-interpolation-filters="sRGB">
<feFlood flood-opacity="0" result="BackgroundImageFix"/>
<feBlend mode="normal" in="SourceGraphic" in2="BackgroundImageFix" result="shape"/>
<feGaussianBlur stdDeviation="9" result="effect1_foregroundBlur_767_2553"/>
</filter>
</defs>
</svg>
