<svg width="72" height="72" viewBox="0 0 72 72" fill="none" xmlns="http://www.w3.org/2000/svg">
<rect width="71.41" height="71.41" rx="20" fill="#FAF0DB"/>
<path d="M33.397 23.5565H27.9378L32.6399 18.775C32.8587 18.556 33.1152 18.3782 33.3969 18.25L33.397 23.5565ZM45.602 19.7728V40.2271C45.6033 40.6952 45.419 41.1448 45.0894 41.477C44.7596 41.8093 44.3116 41.9973 43.8435 42H28.759C28.2909 41.9975 27.8427 41.8095 27.5129 41.4773C27.1833 41.1448 26.9988 40.6954 27 40.2271V25.5928C27 25.5264 27.014 25.4632 27.0189 25.3978H34.3176C34.5617 25.398 34.7958 25.3008 34.9686 25.128C35.1412 24.9554 35.2382 24.7212 35.2382 24.4771V18H43.8436C44.3117 18.0027 44.7594 18.1907 45.0892 18.523C45.4188 18.8552 45.6033 19.3047 45.602 19.7728ZM37.0792 24.4771C37.079 24.7212 37.176 24.9555 37.3486 25.1281C37.5214 25.3009 37.7555 25.3979 37.9998 25.3977H40.7615C41.0903 25.3977 41.3941 25.2222 41.5585 24.9374C41.7231 24.6526 41.7231 24.3016 41.5585 24.0168C41.3941 23.732 41.0902 23.5565 40.7615 23.5565H37.9998C37.7555 23.5565 37.5214 23.6535 37.3486 23.8261C37.176 23.9987 37.079 24.233 37.0792 24.4771ZM41.7018 35.5743C41.7032 35.3302 41.6077 35.0953 41.4361 34.9217C41.2643 34.7481 41.0307 34.6499 40.7865 34.6484L31.5609 34.5962C31.3148 34.5882 31.0762 34.6817 30.9011 34.8547C30.7261 35.0278 30.6297 35.2653 30.635 35.5114C30.6334 35.7555 30.7292 35.9904 30.9007 36.164C31.0723 36.3376 31.3059 36.4361 31.5501 36.4373L40.7757 36.4895H40.7812C41.0243 36.4895 41.2577 36.3931 41.4301 36.2218C41.6027 36.0504 41.7003 35.8176 41.7018 35.5743ZM41.7018 30.051C41.7032 29.8069 41.6077 29.572 41.4361 29.3984C41.2643 29.2247 41.0307 29.1265 40.7865 29.1251L31.5609 29.0729H31.5556C31.2266 29.0721 30.9223 29.2465 30.7569 29.5309C30.5917 29.8153 30.5906 30.166 30.7542 30.4515C30.9178 30.7367 31.2213 30.9132 31.55 30.914L40.7756 30.9662H40.7812C41.0243 30.9662 41.2577 30.8698 41.4301 30.6985C41.6027 30.5271 41.7003 30.2943 41.7018 30.051Z" fill="#E09F1F"/>
</svg>
