<svg width="307" height="56" viewBox="0 0 307 56" fill="none" xmlns="http://www.w3.org/2000/svg">
<rect y="0.359375" width="306.24" height="55.1724" rx="14" fill="#1C6BA4"/>
<path d="M132.288 21.5913H137.216V23.0613H132.288V21.5913ZM133.52 24.5873H135.97V25.9453H133.52V24.5873ZM133.52 27.4433H135.97V28.8013H133.52V27.4433ZM132.862 22.3893H134.234V31.1813H132.862V22.3893ZM135.214 22.3753H136.614V34.2053H135.214V22.3753ZM132.036 30.8593C133.044 30.7193 134.5 30.4533 135.928 30.1873L136.04 31.6013C134.766 31.8813 133.45 32.1613 132.344 32.3853L132.036 30.8593ZM136.712 29.8933C137.538 29.7393 138.672 29.4873 139.862 29.2073L140.002 30.3693C139.036 30.7053 138.056 31.0413 137.202 31.3213L136.712 29.8933ZM137.51 22.4313L138.798 22.9213V30.1033H137.51V22.4313ZM139.512 23.7053H140.814V28.1293C140.814 30.5093 140.478 32.7353 138 34.2193C137.804 33.9253 137.37 33.4353 137.062 33.2113C139.246 31.9373 139.512 30.1033 139.512 28.1153V23.7053ZM143.502 22.1093H144.86V30.1453C144.86 30.6913 144.79 31.0693 144.468 31.3073C144.146 31.5313 143.768 31.5733 143.264 31.5733C143.222 31.2093 143.054 30.6073 142.872 30.2573C143.096 30.2713 143.306 30.2713 143.39 30.2713C143.474 30.2713 143.502 30.2293 143.502 30.1173V22.1093ZM139.932 21.0733L141.08 22.0253C140.324 22.6413 139.4 23.2853 138.7 23.6913L137.762 22.8373C138.448 22.4173 139.386 21.6473 139.932 21.0733ZM141.416 22.1093H144.314V23.4533H142.746V34.2053H141.416V22.1093ZM153.96 26.9813C154.758 29.8793 156.508 31.8533 159.798 32.5953C159.406 32.9733 158.902 33.7293 158.636 34.2193C155.066 33.2253 153.344 30.9433 152.308 27.3313L153.96 26.9813ZM147.31 26.2813H158.972V28.0173H147.31V26.2813ZM146.876 21.9833H159.336V23.7193H146.876V21.9833ZM152.084 22.4453H153.89V25.8893C153.89 28.8853 153.162 32.5113 147.534 34.2333C147.352 33.8133 146.848 33.0713 146.498 32.7353C151.496 31.2653 152.084 28.2413 152.084 25.8893V22.4453ZM166.63 28.5353H168.366V32.9173H166.63V28.5353ZM162.948 24.4893H172.174V25.9313H162.948V24.4893ZM161.338 32.3433H173.798V33.8273H161.338V32.3433ZM162.584 29.8233H172.692V31.2653H162.584V29.8233ZM165.188 25.3153L166.98 25.7493C166.434 26.6873 165.818 27.6533 165.342 28.3113L163.956 27.8913C164.39 27.1773 164.908 26.0993 165.188 25.3153ZM162.332 27.2613C164.684 27.2473 168.31 27.1633 171.656 27.0933L171.572 28.4933C168.282 28.6193 164.768 28.7033 162.402 28.7593L162.332 27.2613ZM168.912 26.5193L170.13 25.7073C171.194 26.4633 172.566 27.5833 173.21 28.3953L171.894 29.2913C171.306 28.5073 169.99 27.3313 168.912 26.5193ZM166.63 21.0733H168.366V23.0193H166.63V21.0733ZM161.38 21.9693H173.728V24.8953H172.006V23.4953H163.018V24.8953H161.38V21.9693Z" fill="white"/>
</svg>
