<svg width="118" height="42" viewBox="0 0 118 42" fill="none" xmlns="http://www.w3.org/2000/svg">
<rect width="118" height="42" rx="21" fill="#B69B9B"/>
<path d="M43.98 19.8754V26.9554H42.5V21.2754H39.96V19.8754H43.98ZM43.98 26.2954C44.94 27.7954 46.76 28.4554 49.16 28.5554C51.36 28.6354 55.88 28.5754 58.26 28.4154C58.08 28.7754 57.84 29.4954 57.76 29.9554C55.56 30.0354 51.38 30.0754 49.16 29.9954C46.48 29.8954 44.62 29.1954 43.32 27.6154C42.42 28.4754 41.48 29.3354 40.46 30.2154L39.66 28.6954C40.56 28.0354 41.66 27.1554 42.62 26.2954H43.98ZM40.14 13.3354L41.24 12.4554C42.5 13.3554 43.92 14.7154 44.56 15.6954L43.36 16.6554C42.78 15.6754 41.38 14.2754 40.14 13.3354ZM47.38 12.9954H57.46V14.3954H47.38V12.9954ZM47.52 17.1754H55.7V18.5354H47.52V17.1754ZM46.66 12.9954H48.12V17.6154C48.12 20.4154 47.8 24.3554 45.74 27.0354C45.5 26.7554 44.86 26.3354 44.52 26.1754C46.46 23.6754 46.66 20.1954 46.66 17.6154V12.9954ZM55.3 17.1754H55.58L55.86 17.1154L56.8 17.4554C55.52 22.7954 52.12 25.9754 48.16 27.5154C47.98 27.1554 47.58 26.5554 47.28 26.2554C50.92 25.0354 54.18 21.9554 55.3 17.4354V17.1754ZM49.84 18.0754C51.14 22.1754 53.92 25.1954 58.18 26.3954C57.84 26.6954 57.42 27.2754 57.2 27.6954C52.8 26.2354 49.98 23.0154 48.52 18.4154L49.84 18.0754ZM66.48 18.7754V23.3754H71.34V18.7754H66.48ZM65.06 17.4354H72.84V24.6954H65.06V17.4354ZM60.64 12.7954H77.36V30.3554H75.76V14.3154H62.18V30.3554H60.64V12.7954ZM61.5 27.8754H76.68V29.2954H61.5V27.8754Z" fill="white"/>
</svg>
