<svg width="176" height="43" viewBox="0 0 176 43" fill="none" xmlns="http://www.w3.org/2000/svg">
<path d="M0 21.5C0 9.62588 9.62588 0 21.5 0H154.5C166.374 0 176 9.62588 176 21.5V21.5C176 33.3741 166.374 43 154.5 43H21.5C9.62587 43 0 33.3741 0 21.5V21.5Z" fill="#B19191"/>
<path d="M75.55 12.26H76.91V30.6H75.55V12.26ZM76.39 19.82H87.19V21H76.39V19.82ZM76.37 28.62H87.25V29.8H76.37V28.62ZM79.23 12.46L80.21 12.86C79.71 13.76 79.13 14.8 78.65 15.46L77.95 15.14C78.37 14.4 78.93 13.26 79.23 12.46ZM80.83 13.86L81.75 14.28C80.83 15.68 79.61 17.44 78.65 18.52L77.95 18.16C78.91 17.06 80.13 15.16 80.83 13.86ZM77.33 15L77.85 14.26C78.55 14.88 79.35 15.7 79.73 16.22L79.21 17.08C78.83 16.48 78.03 15.6 77.33 15ZM80.21 16.88L80.97 16.5C81.51 17.26 82.09 18.28 82.29 18.94L81.51 19.4C81.29 18.72 80.75 17.66 80.21 16.88ZM77.25 18.06C78.45 18.04 79.91 18.02 81.53 17.98L81.51 18.84C80.01 18.94 78.63 19.02 77.39 19.08L77.25 18.06ZM84.01 12.46L85.01 12.86C84.47 13.74 83.85 14.78 83.35 15.42L82.65 15.1C83.11 14.38 83.69 13.24 84.01 12.46ZM85.69 13.86L86.63 14.28C85.63 15.7 84.25 17.48 83.19 18.56L82.49 18.2C83.55 17.08 84.93 15.18 85.69 13.86ZM81.93 14.98L82.41 14.24C83.15 14.82 84.03 15.62 84.43 16.16L83.95 17.02C83.53 16.44 82.67 15.56 81.93 14.98ZM84.99 16.82L85.75 16.4C86.39 17.2 87.07 18.28 87.35 19L86.55 19.48C86.29 18.76 85.61 17.64 84.99 16.82ZM82.07 18.06C83.27 18.04 84.79 18.02 86.47 17.96V18.84C84.91 18.94 83.49 19.02 82.23 19.08L82.07 18.06ZM79.23 21.14L80.21 21.52C79.71 22.42 79.17 23.42 78.71 24.08L78.01 23.76C78.41 23.04 78.95 21.88 79.23 21.14ZM80.89 22.48L81.83 22.9C80.87 24.36 79.59 26.2 78.57 27.34L77.89 26.98C78.89 25.82 80.17 23.86 80.89 22.48ZM77.35 23.64L77.87 22.94C78.57 23.54 79.39 24.36 79.75 24.9L79.23 25.74C78.85 25.14 78.05 24.28 77.35 23.64ZM80.21 25.56L80.97 25.18C81.53 25.98 82.13 27.06 82.35 27.74L81.59 28.22C81.35 27.5 80.77 26.38 80.21 25.56ZM77.25 26.82C78.43 26.8 79.93 26.76 81.55 26.72V27.56C80.01 27.68 78.63 27.78 77.37 27.84L77.25 26.82ZM84.09 21.14L85.07 21.52C84.57 22.42 83.97 23.4 83.47 24.06L82.73 23.72C83.19 23.02 83.77 21.88 84.09 21.14ZM85.77 22.5L86.71 22.92C85.69 24.4 84.31 26.22 83.23 27.32L82.55 26.96C83.61 25.82 84.99 23.86 85.77 22.5ZM81.97 23.6L82.47 22.9C83.21 23.5 84.07 24.32 84.47 24.9L83.97 25.74C83.57 25.14 82.73 24.24 81.97 23.6ZM84.97 25.52L85.71 25.08C86.37 25.9 87.07 27.02 87.35 27.72L86.59 28.24C86.31 27.5 85.61 26.36 84.97 25.52ZM82.07 26.82C83.29 26.8 84.79 26.76 86.47 26.7V27.58C84.89 27.7 83.47 27.78 82.19 27.84L82.07 26.82ZM71.55 12.22L72.85 12.68C72.23 14.1 71.45 15.88 70.83 16.96L69.81 16.56C70.43 15.42 71.17 13.54 71.55 12.22ZM73.57 14.52L74.81 15.06C73.61 17.28 71.95 20.12 70.61 21.86L69.71 21.38C71.01 19.62 72.65 16.64 73.57 14.52ZM68.95 16.26L69.63 15.26C70.63 16.24 71.75 17.54 72.19 18.42L71.47 19.6C71.01 18.66 69.91 17.26 68.95 16.26ZM72.79 19.1L73.85 18.7C74.59 19.98 75.29 21.64 75.51 22.72L74.37 23.18C74.17 22.12 73.49 20.4 72.79 19.1ZM68.75 21.06C70.27 21 72.43 20.88 74.65 20.76L74.63 21.96C72.57 22.14 70.51 22.3 68.89 22.4L68.75 21.06ZM73.37 23.9L74.43 23.6C74.91 24.78 75.33 26.32 75.49 27.34L74.37 27.68C74.25 26.66 73.81 25.1 73.37 23.9ZM69.71 23.64L70.91 23.84C70.73 25.72 70.35 27.66 69.83 28.94C69.59 28.78 69.03 28.52 68.73 28.4C69.29 27.18 69.55 25.38 69.71 23.64ZM71.57 21.64H72.85V30.6H71.57V21.64ZM97.99 24.42V25.32H104.45V24.42H97.99ZM97.99 26.12V27.04H104.45V26.12H97.99ZM97.99 22.76V23.64H104.45V22.76H97.99ZM96.67 21.88H105.81V27.9H96.67V21.88ZM102.07 28.68L103.03 27.88C104.49 28.46 106.15 29.22 107.11 29.84L105.81 30.64C104.97 30.06 103.47 29.26 102.07 28.68ZM100.35 12.2H101.83V15.94H100.35V12.2ZM95.49 13.42H106.75V14.44H95.49V13.42ZM96.43 15.38H106.09V16.34H96.43V15.38ZM97.27 18.02V20.12H105.13V18.02H97.27ZM96.05 17.14H106.39V21H96.05V17.14ZM99.57 17.56H100.57C100.43 18.92 99.79 19.54 97.89 19.9C97.81 19.68 97.55 19.36 97.35 19.2C98.97 18.98 99.47 18.58 99.57 17.56ZM101.75 17.5H102.87V18.46C102.87 18.78 102.93 18.82 103.35 18.82C103.53 18.82 104.55 18.82 104.81 18.82C105.09 18.82 105.15 18.8 105.21 18.7C105.43 18.82 105.81 18.9 106.11 18.96C106.03 19.38 105.71 19.52 104.99 19.52C104.77 19.52 103.43 19.52 103.23 19.52C102.03 19.52 101.75 19.34 101.75 18.44V17.5ZM98.93 27.88L100.17 28.62C98.97 29.44 97.05 30.22 95.53 30.62C95.29 30.34 94.83 29.94 94.53 29.7C96.11 29.3 97.99 28.56 98.93 27.88ZM91.69 12.22L92.99 12.68C92.25 14.16 91.29 15.96 90.53 17.08L89.51 16.66C90.23 15.5 91.19 13.54 91.69 12.22ZM93.77 14.5L95.03 15.04C93.75 17.26 91.99 20.12 90.59 21.84L89.67 21.36C91.05 19.58 92.79 16.6 93.77 14.5ZM88.59 16.42L89.39 15.44C90.43 16.4 91.63 17.72 92.11 18.62L91.27 19.74C90.79 18.8 89.63 17.4 88.59 16.42ZM92.99 18.96L94.05 18.58C94.81 19.9 95.55 21.6 95.77 22.68L94.65 23.14C94.43 22.04 93.73 20.3 92.99 18.96ZM88.53 21.14C90.15 21.08 92.45 20.96 94.81 20.86V22.06C92.59 22.22 90.39 22.34 88.69 22.44L88.53 21.14ZM93.51 23.88L94.57 23.58C94.99 24.6 95.39 25.94 95.55 26.8L94.43 27.18C94.31 26.28 93.93 24.92 93.51 23.88ZM89.53 23.64L90.77 23.86C90.51 25.74 90.07 27.68 89.47 28.96C89.23 28.78 88.65 28.52 88.33 28.4C88.97 27.18 89.33 25.38 89.53 23.64ZM91.63 21.64H92.91V30.6H91.63V21.64Z" fill="white"/>
</svg>
