<svg width="85" height="31" viewBox="0 0 85 31" fill="none" xmlns="http://www.w3.org/2000/svg">
<path d="M15.5 0.5H69.5C77.7843 0.5 84.5 7.21573 84.5 15.5C84.5 23.7843 77.7843 30.5 69.5 30.5H15.5C7.21573 30.5 0.5 23.7843 0.5 15.5C0.5 7.21573 7.21573 0.5 15.5 0.5Z" fill="white" stroke="#D3D3D3"/>
<path d="M12.9028 21V6.45455H21.6244V8.01705H14.6641V12.9318H20.971V14.4943H14.6641V21H12.9028ZM27.8069 21.2273C26.7557 21.2273 25.849 20.9953 25.0867 20.5312C24.3291 20.0625 23.7444 19.4091 23.3324 18.571C22.9252 17.7282 22.7216 16.7481 22.7216 15.6307C22.7216 14.5133 22.9252 13.5284 23.3324 12.6761C23.7444 11.8191 24.3173 11.1515 25.0512 10.6733C25.7898 10.1903 26.6516 9.94886 27.6364 9.94886C28.2046 9.94886 28.7657 10.0436 29.3196 10.233C29.8736 10.4223 30.3779 10.7301 30.8324 11.1562C31.287 11.5777 31.6492 12.1364 31.9191 12.8324C32.189 13.5284 32.3239 14.3854 32.3239 15.4034V16.1136H23.9148V14.6648H30.6194C30.6194 14.0492 30.4963 13.5 30.25 13.017C30.0086 12.5341 29.6629 12.1529 29.2131 11.8736C28.768 11.5942 28.2425 11.4545 27.6364 11.4545C26.9688 11.4545 26.3911 11.6203 25.9035 11.9517C25.4205 12.2784 25.0488 12.7045 24.7884 13.2301C24.528 13.7557 24.3978 14.3191 24.3978 14.9205V15.8864C24.3978 16.7102 24.5398 17.4086 24.8239 17.9815C25.1127 18.5497 25.5128 18.983 26.0242 19.2812C26.5356 19.5748 27.1298 19.7216 27.8069 19.7216C28.2472 19.7216 28.6449 19.66 29 19.5369C29.3599 19.4091 29.67 19.2197 29.9304 18.9688C30.1909 18.7131 30.3921 18.3958 30.5341 18.017L32.1535 18.4716C31.983 19.0208 31.6965 19.5038 31.2941 19.9205C30.8916 20.3324 30.3945 20.6544 29.8026 20.8864C29.2107 21.1136 28.5455 21.2273 27.8069 21.2273ZM34.4936 21V10.0909H36.1129V11.7955H36.255C36.4823 11.2131 36.8492 10.7609 37.3558 10.4389C37.8625 10.1122 38.4709 9.94886 39.1811 9.94886C39.9008 9.94886 40.4998 10.1122 40.978 10.4389C41.461 10.7609 41.8374 11.2131 42.1073 11.7955H42.2209C42.5003 11.232 42.9193 10.7846 43.478 10.4531C44.0367 10.117 44.7067 9.94886 45.4879 9.94886C46.4633 9.94886 47.2611 10.2543 47.8814 10.8651C48.5017 11.4711 48.8118 12.4157 48.8118 13.6989V21H47.1357V13.6989C47.1357 12.8939 46.9155 12.3187 46.4752 11.973C46.0348 11.6274 45.5164 11.4545 44.9198 11.4545C44.1527 11.4545 43.5585 11.6866 43.1371 12.1506C42.7157 12.6098 42.505 13.1922 42.505 13.8977V21H40.8004V13.5284C40.8004 12.9081 40.5992 12.4086 40.1967 12.0298C39.7943 11.6463 39.2758 11.4545 38.6413 11.4545C38.2057 11.4545 37.7985 11.5705 37.4198 11.8026C37.0457 12.0346 36.7427 12.3565 36.5107 12.7685C36.2834 13.1757 36.1698 13.6468 36.1698 14.1818V21H34.4936ZM54.7067 21.2557C54.0154 21.2557 53.388 21.1255 52.8246 20.8651C52.2611 20.5999 51.8137 20.2188 51.4822 19.7216C51.1508 19.2197 50.9851 18.6136 50.9851 17.9034C50.9851 17.2784 51.1082 16.7718 51.3544 16.3835C51.6006 15.9905 51.9297 15.6828 52.3416 15.4602C52.7535 15.2377 53.2081 15.072 53.7052 14.9631C54.2071 14.8494 54.7114 14.7595 55.218 14.6932C55.8809 14.608 56.4183 14.544 56.8302 14.5014C57.2469 14.4541 57.5499 14.3759 57.7393 14.267C57.9335 14.1581 58.0305 13.9687 58.0305 13.6989V13.642C58.0305 12.9413 57.8388 12.3968 57.4552 12.0085C57.0765 11.6203 56.5012 11.4261 55.7294 11.4261C54.9292 11.4261 54.3018 11.6013 53.8473 11.9517C53.3927 12.3021 53.0731 12.6761 52.8885 13.0739L51.2976 12.5057C51.5817 11.8428 51.9605 11.3267 52.4339 10.9574C52.9122 10.5833 53.433 10.3229 53.9964 10.1761C54.5646 10.0246 55.1233 9.94886 55.6726 9.94886C56.023 9.94886 56.4254 9.99148 56.88 10.0767C57.3392 10.1572 57.7819 10.3253 58.2081 10.581C58.639 10.8366 58.9964 11.2225 59.2805 11.7386C59.5646 12.2547 59.7067 12.946 59.7067 13.8125V21H58.0305V19.5227H57.9453C57.8317 19.7595 57.6423 20.0128 57.3771 20.2827C57.112 20.5526 56.7592 20.7822 56.3189 20.9716C55.8785 21.161 55.3411 21.2557 54.7067 21.2557ZM54.9623 19.75C55.6252 19.75 56.1839 19.6198 56.6385 19.3594C57.0978 19.099 57.4434 18.7628 57.6754 18.3509C57.9122 17.9389 58.0305 17.5057 58.0305 17.0511V15.517C57.9595 15.6023 57.8033 15.6804 57.5618 15.7514C57.325 15.8177 57.0504 15.8769 56.7379 15.929C56.4301 15.9763 56.1295 16.0189 55.8359 16.0568C55.5471 16.09 55.3127 16.1184 55.1328 16.142C54.6972 16.1989 54.29 16.2912 53.9112 16.419C53.5372 16.5421 53.2341 16.7292 53.0021 16.9801C52.7748 17.2263 52.6612 17.5625 52.6612 17.9886C52.6612 18.571 52.8766 19.0114 53.3075 19.3097C53.7431 19.6032 54.2947 19.75 54.9623 19.75ZM64.0621 6.45455V21H62.386V6.45455H64.0621ZM71.3259 21.2273C70.2748 21.2273 69.3681 20.9953 68.6058 20.5312C67.8482 20.0625 67.2634 19.4091 66.8515 18.571C66.4443 17.7282 66.2407 16.7481 66.2407 15.6307C66.2407 14.5133 66.4443 13.5284 66.8515 12.6761C67.2634 11.8191 67.8363 11.1515 68.5702 10.6733C69.3089 10.1903 70.1706 9.94886 71.1555 9.94886C71.7237 9.94886 72.2847 10.0436 72.8387 10.233C73.3927 10.4223 73.8969 10.7301 74.3515 11.1562C74.806 11.5777 75.1683 12.1364 75.4381 12.8324C75.708 13.5284 75.843 14.3854 75.843 15.4034V16.1136H67.4339V14.6648H74.1384C74.1384 14.0492 74.0153 13.5 73.7691 13.017C73.5276 12.5341 73.182 12.1529 72.7322 11.8736C72.2871 11.5942 71.7615 11.4545 71.1555 11.4545C70.4879 11.4545 69.9102 11.6203 69.4225 11.9517C68.9396 12.2784 68.5679 12.7045 68.3075 13.2301C68.047 13.7557 67.9168 14.3191 67.9168 14.9205V15.8864C67.9168 16.7102 68.0589 17.4086 68.343 17.9815C68.6318 18.5497 69.0319 18.983 69.5433 19.2812C70.0546 19.5748 70.6488 19.7216 71.3259 19.7216C71.7663 19.7216 72.164 19.66 72.5191 19.5369C72.879 19.4091 73.1891 19.2197 73.4495 18.9688C73.7099 18.7131 73.9112 18.3958 74.0532 18.017L75.6725 18.4716C75.5021 19.0208 75.2156 19.5038 74.8131 19.9205C74.4107 20.3324 73.9135 20.6544 73.3217 20.8864C72.7298 21.1136 72.0646 21.2273 71.3259 21.2273Z" fill="#C8B4B4"/>
</svg>
