<svg width="85" height="31" viewBox="0 0 85 31" fill="none" xmlns="http://www.w3.org/2000/svg">
<path d="M15.5 0.5H69.5C77.7843 0.5 84.5 7.21573 84.5 15.5C84.5 23.7843 77.7843 30.5 69.5 30.5H15.5C7.21573 30.5 0.5 23.7843 0.5 15.5C0.5 7.21573 7.21573 0.5 15.5 0.5Z" fill="white" stroke="#D3D3D3"/>
<path d="M22.6068 6.45455H24.709L29.6522 18.5284H29.8227L34.7658 6.45455H36.8681V21H35.2204V9.94886H35.0783L30.5329 21H28.942L24.3965 9.94886H24.2545V21H22.6068V6.45455ZM43.0027 21.2557C42.3114 21.2557 41.684 21.1255 41.1206 20.8651C40.5571 20.5999 40.1097 20.2188 39.7782 19.7216C39.4468 19.2197 39.2811 18.6136 39.2811 17.9034C39.2811 17.2784 39.4042 16.7718 39.6504 16.3835C39.8966 15.9905 40.2257 15.6828 40.6376 15.4602C41.0496 15.2377 41.5041 15.072 42.0013 14.9631C42.5032 14.8494 43.0074 14.7595 43.514 14.6932C44.1769 14.608 44.7143 14.544 45.1263 14.5014C45.5429 14.4541 45.846 14.3759 46.0353 14.267C46.2295 14.1581 46.3265 13.9687 46.3265 13.6989V13.642C46.3265 12.9413 46.1348 12.3968 45.7513 12.0085C45.3725 11.6203 44.7972 11.4261 44.0254 11.4261C43.2252 11.4261 42.5978 11.6013 42.1433 11.9517C41.6888 12.3021 41.3692 12.6761 41.1845 13.0739L39.5936 12.5057C39.8777 11.8428 40.2565 11.3267 40.73 10.9574C41.2082 10.5833 41.729 10.3229 42.2925 10.1761C42.8606 10.0246 43.4193 9.94886 43.9686 9.94886C44.319 9.94886 44.7214 9.99148 45.176 10.0767C45.6353 10.1572 46.078 10.3253 46.5041 10.581C46.935 10.8366 47.2925 11.2225 47.5765 11.7386C47.8606 12.2547 48.0027 12.946 48.0027 13.8125V21H46.3265V19.5227H46.2413C46.1277 19.7595 45.9383 20.0128 45.6731 20.2827C45.408 20.5526 45.0552 20.7822 44.6149 20.9716C44.1746 21.161 43.6371 21.2557 43.0027 21.2557ZM43.2584 19.75C43.9212 19.75 44.48 19.6198 44.9345 19.3594C45.3938 19.099 45.7394 18.7628 45.9714 18.3509C46.2082 17.9389 46.3265 17.5057 46.3265 17.0511V15.517C46.2555 15.6023 46.0993 15.6804 45.8578 15.7514C45.621 15.8177 45.3464 15.8769 45.0339 15.929C44.7262 15.9763 44.4255 16.0189 44.1319 16.0568C43.8431 16.09 43.6087 16.1184 43.4288 16.142C42.9932 16.1989 42.586 16.2912 42.2072 16.419C41.8332 16.5421 41.5301 16.7292 41.2981 16.9801C41.0709 17.2263 40.9572 17.5625 40.9572 17.9886C40.9572 18.571 41.1727 19.0114 41.6035 19.3097C42.0391 19.6032 42.5907 19.75 43.2584 19.75ZM52.3581 6.45455V21H50.682V6.45455H52.3581ZM59.6219 21.2273C58.5708 21.2273 57.6641 20.9953 56.9018 20.5312C56.1442 20.0625 55.5594 19.4091 55.1475 18.571C54.7403 17.7282 54.5367 16.7481 54.5367 15.6307C54.5367 14.5133 54.7403 13.5284 55.1475 12.6761C55.5594 11.8191 56.1324 11.1515 56.8663 10.6733C57.6049 10.1903 58.4666 9.94886 59.4515 9.94886C60.0197 9.94886 60.5807 10.0436 61.1347 10.233C61.6887 10.4223 62.193 10.7301 62.6475 11.1562C63.1021 11.5777 63.4643 12.1364 63.7342 12.8324C64.004 13.5284 64.139 14.3854 64.139 15.4034V16.1136H55.7299V14.6648H62.4344C62.4344 14.0492 62.3113 13.5 62.0651 13.017C61.8236 12.5341 61.478 12.1529 61.0282 11.8736C60.5831 11.5942 60.0575 11.4545 59.4515 11.4545C58.7839 11.4545 58.2062 11.6203 57.7185 11.9517C57.2356 12.2784 56.8639 12.7045 56.6035 13.2301C56.3431 13.7557 56.2128 14.3191 56.2128 14.9205V15.8864C56.2128 16.7102 56.3549 17.4086 56.639 17.9815C56.9278 18.5497 57.3279 18.983 57.8393 19.2812C58.3506 19.5748 58.9449 19.7216 59.6219 19.7216C60.0623 19.7216 60.46 19.66 60.8151 19.5369C61.175 19.4091 61.4851 19.2197 61.7455 18.9688C62.0059 18.7131 62.2072 18.3958 62.3492 18.017L63.9685 18.4716C63.7981 19.0208 63.5116 19.5038 63.1092 19.9205C62.7067 20.3324 62.2095 20.6544 61.6177 20.8864C61.0258 21.1136 60.3606 21.2273 59.6219 21.2273Z" fill="#C8B4B4"/>
</svg>
