<svg width="287" height="136" viewBox="0 0 287 136" fill="none" xmlns="http://www.w3.org/2000/svg">
<rect x="4.33008" y="7.79297" width="282.005" height="120.733" rx="28" fill="#1C6BA4"/>
<g filter="url(#filter0_f_793_3905)">
<rect x="18.0215" y="18.6865" width="71.4607" height="99.026" rx="26" fill="#155A96"/>
</g>
<rect x="18.0215" y="18.6865" width="71.4607" height="99.026" rx="26" fill="white" fill-opacity="0.14"/>
<path d="M39.3592 62.1992V59.4052H42.8352V50.4952L40.1732 52.0572L38.8752 49.5712L43.8252 46.6892H46.2452V59.4052H49.5012V62.1992H39.3592ZM52.1986 62.1992V59.6692L57.0606 54.5652C57.6766 53.8906 58.1166 53.3039 58.3806 52.8052C58.6593 52.2919 58.7986 51.7786 58.7986 51.2652C58.7986 49.9452 57.9846 49.2852 56.3566 49.2852C55.7259 49.2852 55.0953 49.4099 54.4646 49.6592C53.8339 49.8939 53.2179 50.2606 52.6166 50.7592L51.5166 48.2512C52.1619 47.6939 52.9539 47.2539 53.8926 46.9312C54.8459 46.6086 55.8213 46.4472 56.8186 46.4472C58.5493 46.4472 59.8693 46.8359 60.7786 47.6132C61.7026 48.3759 62.1646 49.4686 62.1646 50.8912C62.1646 51.8299 61.9446 52.7319 61.5046 53.5972C61.0793 54.4479 60.3753 55.3719 59.3926 56.3692L56.4006 59.4052H62.7366V62.1992H52.1986Z" fill="white"/>
<path d="M41.1592 80.2952H37.3512V78.9192H46.6472V80.2952H42.8232V90.1992H41.1592V80.2952ZM53.7716 82.3912V90.1992H52.2036V88.9352C51.9582 89.3832 51.6169 89.7246 51.1796 89.9592C50.7529 90.1939 50.2729 90.3112 49.7396 90.3112C47.8409 90.3112 46.8916 89.2659 46.8916 87.1752V82.3912H48.5076V87.1592C48.5076 87.7886 48.6356 88.2526 48.8916 88.5512C49.1476 88.8499 49.5422 88.9992 50.0756 88.9992C50.7049 88.9992 51.2062 88.7966 51.5796 88.3912C51.9636 87.9859 52.1556 87.4472 52.1556 86.7752V82.3912H53.7716ZM62.8809 86.5672H57.3609C57.4783 88.2206 58.2996 89.0472 59.8249 89.0472C60.7209 89.0472 61.5316 88.7539 62.2569 88.1672L62.7529 89.3032C62.3903 89.6126 61.9423 89.8579 61.4089 90.0392C60.8756 90.2206 60.3316 90.3112 59.7769 90.3112C58.5289 90.3112 57.5423 89.9539 56.8169 89.2392C56.1023 88.5246 55.7449 87.5379 55.7449 86.2792C55.7449 85.4792 55.8996 84.7699 56.2089 84.1512C56.5289 83.5326 56.9716 83.0526 57.5369 82.7112C58.1129 82.3699 58.7636 82.1992 59.4889 82.1992C60.5449 82.1992 61.3716 82.5406 61.9689 83.2232C62.5769 83.9059 62.8809 84.8499 62.8809 86.0552V86.5672ZM59.5209 83.3832C58.9023 83.3832 58.4063 83.5806 58.0329 83.9752C57.6703 84.3592 57.4516 84.9139 57.3769 85.6392H61.4889C61.4569 84.9139 61.2703 84.3592 60.9289 83.9752C60.5983 83.5806 60.1289 83.3832 59.5209 83.3832Z" fill="white"/>
<path d="M110.53 46.919C109.401 46.919 108.542 46.485 107.954 45.617C107.366 44.749 107.072 43.4936 107.072 41.851C107.072 40.199 107.366 38.9436 107.954 38.085C108.542 37.2263 109.401 36.797 110.53 36.797C111.669 36.797 112.527 37.2263 113.106 38.085C113.694 38.9343 113.988 40.185 113.988 41.837C113.988 43.489 113.689 44.749 113.092 45.617C112.504 46.485 111.65 46.919 110.53 46.919ZM110.53 45.925C111.314 45.925 111.893 45.5936 112.266 44.931C112.649 44.2683 112.84 43.237 112.84 41.837C112.84 40.437 112.653 39.415 112.28 38.771C111.907 38.1176 111.323 37.791 110.53 37.791C109.746 37.791 109.163 38.1176 108.78 38.771C108.407 39.4243 108.22 40.4463 108.22 41.837C108.22 43.237 108.407 44.2683 108.78 44.931C109.163 45.5936 109.746 45.925 110.53 45.925ZM118.393 46.919C117.889 46.919 117.38 46.8116 116.867 46.597C116.353 46.3823 115.933 46.093 115.607 45.729L116.041 44.819C116.377 45.183 116.745 45.4536 117.147 45.631C117.557 45.8083 117.977 45.897 118.407 45.897C119.321 45.897 120.026 45.5563 120.521 44.875C121.015 44.1936 121.263 43.181 121.263 41.837V41.137C121.076 41.753 120.74 42.2383 120.255 42.593C119.779 42.9383 119.214 43.111 118.561 43.111C117.982 43.111 117.469 42.9803 117.021 42.719C116.573 42.4483 116.223 42.0796 115.971 41.613C115.719 41.1463 115.593 40.6096 115.593 40.003C115.593 39.3776 115.723 38.827 115.985 38.351C116.255 37.8656 116.624 37.4876 117.091 37.217C117.567 36.937 118.113 36.797 118.729 36.797C119.895 36.797 120.791 37.2216 121.417 38.071C122.051 38.911 122.369 40.0916 122.369 41.613C122.369 43.3116 122.019 44.623 121.319 45.547C120.619 46.4616 119.643 46.919 118.393 46.919ZM118.799 42.145C119.424 42.145 119.933 41.9443 120.325 41.543C120.717 41.1323 120.913 40.605 120.913 39.961C120.913 39.3076 120.717 38.7803 120.325 38.379C119.933 37.9683 119.424 37.763 118.799 37.763C118.183 37.763 117.679 37.9683 117.287 38.379C116.895 38.7803 116.699 39.3076 116.699 39.961C116.699 40.605 116.895 41.1323 117.287 41.543C117.679 41.9443 118.183 42.145 118.799 42.145ZM124.281 41.417V39.989H125.709V41.417H124.281ZM124.281 46.793V45.365H125.709V46.793H124.281ZM130.813 46.919C130.159 46.919 129.539 46.821 128.951 46.625C128.363 46.4196 127.868 46.1256 127.467 45.743L127.887 44.833C128.344 45.2063 128.806 45.477 129.273 45.645C129.739 45.813 130.243 45.897 130.785 45.897C131.494 45.897 132.035 45.743 132.409 45.435C132.791 45.1176 132.983 44.6556 132.983 44.049C132.983 43.4703 132.791 43.0316 132.409 42.733C132.026 42.4343 131.471 42.285 130.743 42.285H129.287V41.291H130.645C131.279 41.291 131.779 41.1276 132.143 40.801C132.516 40.465 132.703 40.0076 132.703 39.429C132.703 38.9156 132.53 38.519 132.185 38.239C131.849 37.959 131.368 37.819 130.743 37.819C129.716 37.819 128.82 38.1923 128.055 38.939L127.635 38.043C127.999 37.651 128.461 37.3476 129.021 37.133C129.59 36.909 130.187 36.797 130.813 36.797C131.765 36.797 132.507 37.021 133.039 37.469C133.58 37.917 133.851 38.5376 133.851 39.331C133.851 39.8816 133.711 40.367 133.431 40.787C133.151 41.1976 132.763 41.4963 132.269 41.683C132.857 41.8416 133.314 42.1356 133.641 42.565C133.967 42.985 134.131 43.5076 134.131 44.133C134.131 44.9823 133.832 45.659 133.235 46.163C132.647 46.667 131.839 46.919 130.813 46.919ZM139.459 46.919C138.33 46.919 137.471 46.485 136.883 45.617C136.295 44.749 136.001 43.4936 136.001 41.851C136.001 40.199 136.295 38.9436 136.883 38.085C137.471 37.2263 138.33 36.797 139.459 36.797C140.598 36.797 141.457 37.2263 142.035 38.085C142.623 38.9343 142.917 40.185 142.917 41.837C142.917 43.489 142.619 44.749 142.021 45.617C141.433 46.485 140.579 46.919 139.459 46.919ZM139.459 45.925C140.243 45.925 140.822 45.5936 141.195 44.931C141.578 44.2683 141.769 43.237 141.769 41.837C141.769 40.437 141.583 39.415 141.209 38.771C140.836 38.1176 140.253 37.791 139.459 37.791C138.675 37.791 138.092 38.1176 137.709 38.771C137.336 39.4243 137.149 40.4463 137.149 41.837C137.149 43.237 137.336 44.2683 137.709 44.931C138.092 45.5936 138.675 45.925 139.459 45.925ZM147.795 46.793L152.149 36.923H153.129L157.483 46.793H156.293L155.201 44.273H150.063L148.985 46.793H147.795ZM152.625 38.267L150.483 43.307H154.795L152.653 38.267H152.625ZM159.115 46.793V36.923H160.081L163.875 44.049L167.641 36.923H168.607V46.793H167.543V39.079L164.253 45.267H163.497L160.165 39.093V46.793H159.115Z" fill="white"/>
<path d="M108.49 86.1329H109.615V90.5129C109.615 93.0329 109.405 96.7079 107.8 99.1529C107.59 98.9579 107.095 98.6729 106.81 98.5529C108.355 96.2129 108.49 92.8979 108.49 90.5129V86.1329ZM109.225 86.1329H119.545V89.8079H109.225V88.8029H118.42V87.1379H109.225V86.1329ZM109.96 91.4729H120.46V92.5079H109.96V91.4729ZM111.34 97.5929H118.75V98.5979H111.34V97.5929ZM114.415 89.7329H115.525V94.6379H114.415V89.7329ZM110.815 94.2629H119.35V99.0929H118.225V95.2679H111.91V99.1229H110.815V94.2629ZM128.38 85.3379H129.535V87.3329H128.38V85.3379ZM122.785 86.6729H135.25V89.6579H134.11V87.7079H123.88V89.6579H122.785V86.6729ZM124.705 89.2079H133.15V90.1979H124.705V89.2079ZM126.67 91.4579L127.51 90.9329C130.84 93.3929 130.915 97.5779 129.37 98.6579C128.86 99.0629 128.44 99.1679 127.765 99.1679C127.405 99.1679 126.925 99.1529 126.46 99.1229C126.43 98.8229 126.325 98.3579 126.13 98.0429C126.685 98.1029 127.195 98.1179 127.54 98.1179C127.945 98.1179 128.275 98.0879 128.575 97.8329C129.64 97.0679 129.58 93.6779 126.67 91.4579ZM128.92 89.4329L129.85 89.8379C128.305 91.3379 125.635 92.4929 123.295 93.1679C123.175 92.9579 122.875 92.4929 122.68 92.2829C124.975 91.7279 127.555 90.7079 128.92 89.4329ZM127.855 92.2979L128.605 92.8079C127.36 93.8279 125.11 94.9979 123.385 95.6129C123.25 95.3579 123.01 94.9679 122.785 94.7429C124.48 94.2779 126.745 93.2129 127.855 92.2979ZM128.965 93.8429L129.745 94.4129C128.185 95.9879 125.26 97.6379 122.86 98.4329C122.725 98.1479 122.47 97.7429 122.26 97.4879C124.645 96.8579 127.555 95.2979 128.965 93.8429ZM130.345 89.5979C131.17 92.9729 132.97 95.8379 135.82 96.9779C135.565 97.2029 135.22 97.6379 135.04 97.9529C132.085 96.6029 130.315 93.5579 129.415 89.7929L130.345 89.5979ZM134.2 90.7079L135.07 91.4579C134.05 92.2829 132.64 93.2129 131.575 93.7829L130.87 93.0929C131.89 92.4929 133.345 91.4729 134.2 90.7079ZM137.38 86.3129H145.075V87.3329H137.38V86.3129ZM137.83 93.4529H144.64V94.4729H137.83V93.4529ZM140.695 91.6679H141.805V97.5479L140.695 97.7129V91.6679ZM137.215 97.5479C139.165 97.3379 142.21 96.9329 145.105 96.5429L145.135 97.5929C142.345 97.9829 139.39 98.4029 137.395 98.6729L137.215 97.5479ZM137.35 90.3929C139.06 90.3329 141.7 90.2129 144.28 90.0779L144.25 91.0679C141.79 91.2179 139.225 91.3529 137.44 91.4579L137.35 90.3929ZM142.135 88.5629L142.975 88.0979C143.89 89.1479 144.94 90.5579 145.375 91.4579L144.475 91.9979C144.04 91.0829 143.035 89.6279 142.135 88.5629ZM139.975 86.8529L141.19 87.0929C140.665 88.4129 140.02 90.0629 139.465 91.0979L138.475 90.8579C139 89.7929 139.645 88.0379 139.975 86.8529ZM145.735 87.1379H146.815V95.4479H145.735V87.1379ZM149.275 85.7579H150.385V97.6079C150.385 98.3879 150.205 98.7329 149.71 98.9129C149.215 99.1079 148.3 99.1379 147.085 99.1379C147.025 98.8229 146.86 98.2979 146.695 97.9529C147.7 97.9979 148.63 97.9829 148.93 97.9829C149.2 97.9679 149.275 97.8929 149.275 97.6229V85.7579ZM158.725 90.6779H166.075V91.7129H158.725V90.6779ZM159.085 93.1679L160 92.7779C160.72 93.6929 161.44 94.9079 161.77 95.7179L160.81 96.1679C160.495 95.3579 159.775 94.0829 159.085 93.1679ZM163.21 88.4879H164.32V97.7729C164.32 98.4629 164.155 98.7929 163.675 98.9729C163.195 99.1529 162.4 99.1679 161.14 99.1679C161.095 98.8679 160.93 98.3879 160.78 98.0879C161.725 98.1179 162.61 98.1029 162.88 98.1029C163.12 98.0879 163.21 98.0129 163.21 97.7579V88.4879ZM157.69 88.3679L158.8 88.6829C157.99 90.6029 156.64 92.6879 155.02 94.0229C154.84 93.7829 154.525 93.3929 154.3 93.1979C155.8 91.9979 157.075 90.0329 157.69 88.3679ZM159.13 85.3379H160.285V87.6479H159.13V85.3379ZM154.06 87.0029H166.03V88.0679H154.06V87.0029ZM153.475 87.0029H154.57V91.1729C154.57 93.4829 154.39 96.8879 153.16 99.1679C152.95 98.9729 152.47 98.6579 152.2 98.5379C153.37 96.3779 153.475 93.3479 153.475 91.1729V87.0029ZM156.55 91.3529L157.54 90.3629L157.615 90.3929V99.1079H156.55V91.3529Z" fill="white" fill-opacity="0.65"/>
<path d="M107.793 72.793V59.398H113.607C115.076 59.398 116.21 59.7653 117.008 60.5C117.806 61.2346 118.205 62.2606 118.205 63.578C118.205 64.8953 117.806 65.9276 117.008 66.675C116.21 67.4096 115.076 67.777 113.607 67.777H110.225V72.793H107.793ZM110.225 65.858H113.227C114.975 65.858 115.849 65.098 115.849 63.578C115.849 62.0706 114.975 61.317 113.227 61.317H110.225V65.858ZM122.763 72.983C122.092 72.983 121.49 72.8563 120.958 72.603C120.439 72.337 120.027 71.9823 119.723 71.539C119.432 71.0956 119.286 70.5953 119.286 70.038C119.286 69.354 119.464 68.8156 119.818 68.423C120.173 68.0176 120.749 67.7263 121.547 67.549C122.345 67.3716 123.416 67.283 124.758 67.283H125.423V66.884C125.423 66.2506 125.284 65.7946 125.005 65.516C124.727 65.2373 124.258 65.098 123.599 65.098C123.08 65.098 122.548 65.1803 122.003 65.345C121.459 65.497 120.908 65.7376 120.35 66.067L119.666 64.452C119.996 64.224 120.382 64.0276 120.825 63.863C121.281 63.6856 121.756 63.5526 122.25 63.464C122.757 63.3626 123.232 63.312 123.675 63.312C125.031 63.312 126.038 63.6286 126.696 64.262C127.355 64.8826 127.684 65.8516 127.684 67.169V72.793H125.461V71.311C125.246 71.8303 124.904 72.242 124.435 72.546C123.967 72.8373 123.409 72.983 122.763 72.983ZM123.257 71.349C123.878 71.349 124.391 71.1336 124.796 70.703C125.214 70.2723 125.423 69.7276 125.423 69.069V68.651H124.777C123.587 68.651 122.757 68.746 122.288 68.936C121.832 69.1133 121.604 69.4426 121.604 69.924C121.604 70.342 121.75 70.684 122.041 70.95C122.333 71.216 122.738 71.349 123.257 71.349ZM133.648 72.983C131.368 72.983 130.228 71.7036 130.228 69.145V63.502H132.603V69.183C132.603 69.8416 132.736 70.3293 133.002 70.646C133.268 70.9626 133.692 71.121 134.275 71.121C134.908 71.121 135.428 70.9056 135.833 70.475C136.238 70.0316 136.441 69.449 136.441 68.727V63.502H138.816V72.793H136.498V71.406C135.877 72.4573 134.927 72.983 133.648 72.983ZM144.708 72.983C143.606 72.983 142.789 72.6853 142.257 72.09C141.738 71.482 141.478 70.5953 141.478 69.43V59.398H143.853V69.316C143.853 70.456 144.334 71.026 145.297 71.026C145.436 71.026 145.576 71.0196 145.715 71.007C145.854 70.9943 145.987 70.969 146.114 70.931L146.076 72.812C145.62 72.926 145.164 72.983 144.708 72.983ZM161.615 56.662L163.667 57.061C162.983 60.215 161.729 63.236 160.19 65.136C159.829 64.794 158.936 64.148 158.461 63.863C159.981 62.191 161.045 59.474 161.615 56.662ZM167.999 59.626H170.146C170.146 59.626 170.127 60.367 170.108 60.652C169.747 69.183 169.405 72.299 168.683 73.249C168.246 73.895 167.828 74.123 167.201 74.237C166.669 74.351 165.871 74.351 165.035 74.313C164.978 73.667 164.75 72.698 164.408 72.071C165.111 72.147 165.757 72.166 166.118 72.166C166.403 72.166 166.574 72.071 166.802 71.805C167.334 71.14 167.695 68.195 167.999 60.12V59.626ZM162.185 59.626H168.968V61.735H161.14L162.185 59.626ZM163.515 60.31L165.168 61.127C164.408 64.395 162.736 68.157 160.665 70.095C160.228 69.658 159.506 69.126 158.917 68.803C161.121 67.074 162.793 63.502 163.515 60.31ZM166.156 60.519L167.923 61.336C167.011 66.276 164.997 71.444 161.862 74.066C161.425 73.61 160.627 73.04 160 72.736C163.325 70.361 165.282 65.402 166.156 60.519ZM152.305 67.017C154.167 66.599 156.941 65.82 159.563 65.079L159.867 67.093C157.473 67.834 154.87 68.613 152.856 69.202L152.305 67.017ZM155.725 56.662H157.815V74.503H155.725V56.662ZM153.217 57.745L155.117 58.068C154.87 60.576 154.414 63.236 153.73 64.927C153.388 64.661 152.571 64.129 152.115 63.901C152.723 62.381 153.046 60.006 153.217 57.745ZM153.73 60.329H159.392V62.514H153.312L153.73 60.329ZM180.748 62.78V64.414H186.505V62.78H180.748ZM180.748 59.398V60.994H186.505V59.398H180.748ZM178.696 57.46H188.671V66.333H178.696V57.46ZM178.563 67.967H188.88V70.019H178.563V67.967ZM177.233 71.843H189.507V73.895H177.233V71.843ZM171.666 57.745H177.974V59.873H171.666V57.745ZM171.856 63.217H177.651V65.326H171.856V63.217ZM171.457 70.437C173.091 70.019 175.523 69.259 177.803 68.518L178.202 70.703C176.074 71.425 173.794 72.166 171.97 72.755L171.457 70.437ZM173.775 58.581H175.941V70.266L173.775 70.608V58.581ZM182.705 58.277H184.624V65.44H184.833V72.812H182.496V65.44H182.705V58.277ZM198.513 71.634H205.904V73.724H198.513V71.634ZM197.449 66.542H207.025V74.427H204.707V68.651H199.653V74.503H197.449V66.542ZM195.872 62.989C198.627 62.875 202.883 62.628 206.778 62.4L206.759 64.509C202.997 64.813 198.969 65.079 196.157 65.269L195.872 62.989ZM202.978 60.367L204.992 59.379C206.493 61.089 208.051 63.388 208.773 64.965L206.645 66.143C205.999 64.547 204.422 62.115 202.978 60.367ZM199.976 56.624L202.617 57.213C201.667 59.683 200.413 62.476 199.387 64.281L197.354 63.692C198.342 61.773 199.425 58.847 199.976 56.624ZM191.863 58.429L193.117 56.7C194.352 57.156 195.967 57.973 196.765 58.638L195.416 60.538C194.694 59.854 193.117 58.961 191.863 58.429ZM190.704 63.597L191.958 61.849C193.193 62.267 194.827 63.046 195.663 63.673L194.333 65.611C193.592 64.965 191.977 64.091 190.704 63.597ZM191.369 72.736C192.357 71.311 193.782 68.936 194.903 66.751L196.613 68.252C195.625 70.247 194.447 72.413 193.326 74.275L191.369 72.736ZM215.347 61.298H227.507V63.008H215.347V61.298ZM215.157 64.11L216.316 63.103C217 63.521 217.893 64.167 218.349 64.604L217.114 65.725C216.696 65.269 215.841 64.585 215.157 64.11ZM223.099 71.235L224.828 70.38C225.797 71.235 226.975 72.451 227.545 73.306L225.683 74.275C225.208 73.439 224.068 72.147 223.099 71.235ZM218.729 68.024V68.765H223.631V68.024H218.729ZM218.729 66.048V66.77H223.631V66.048H218.729ZM216.829 64.718H225.626V70.095H216.829V64.718ZM216.715 70.323L218.767 70.893C218.083 72.166 216.943 73.458 215.86 74.256C215.499 73.876 214.682 73.23 214.188 72.945C215.195 72.299 216.164 71.311 216.715 70.323ZM226.158 62.97L227.469 63.92C226.861 64.528 226.101 65.079 225.531 65.44L224.391 64.566C224.942 64.167 225.721 63.426 226.158 62.97ZM223.346 62.02C224.239 63.673 226.006 65.212 227.963 65.934C227.526 66.314 226.937 67.036 226.652 67.53C224.543 66.561 222.719 64.68 221.655 62.552L223.346 62.02ZM220.078 69.411H222.282V72.546C222.282 73.477 222.111 73.952 221.408 74.237C220.743 74.522 219.888 74.541 218.729 74.541C218.615 73.971 218.292 73.211 218.026 72.698C218.729 72.736 219.527 72.717 219.774 72.717C220.002 72.717 220.078 72.66 220.078 72.47V69.411ZM219.736 60.006L221.845 60.272C220.914 63.179 219.128 65.82 215.689 67.625C215.404 67.131 214.777 66.447 214.321 66.143C217.494 64.642 219.128 62.305 219.736 60.006ZM213.694 58.182H227.678V60.101H213.694V58.182ZM212.611 58.182H214.701V64.319C214.701 67.378 214.283 71.824 211.87 74.503C211.547 74.066 210.711 73.268 210.274 72.983C212.421 70.589 212.611 67.036 212.611 64.319V58.182ZM218.577 56.662H220.99V59.341H218.577V56.662ZM209.894 60.595L211.509 59.93C212.06 61.127 212.554 62.685 212.668 63.654L210.92 64.452C210.825 63.445 210.388 61.83 209.894 60.595ZM209.704 67.188C210.597 66.808 211.832 66.181 213.143 65.516L213.656 67.245C212.573 67.929 211.433 68.613 210.35 69.24L209.704 67.188ZM230.775 59.474H235.981V65.25H230.775V63.331H233.967V61.393H230.775V59.474ZM230.832 66.485H236.171V72.622H230.832V70.722H234.157V68.404H230.832V66.485ZM229.939 59.474H231.953V73.838H229.939V59.474ZM236.494 57.536H246.849V59.607H236.494V57.536ZM232.067 56.643L234.594 56.89C234.157 58.106 233.625 59.417 233.188 60.291L231.402 59.949C231.668 58.98 231.972 57.631 232.067 56.643ZM240.598 58.524H242.745V74.484H240.598V58.524ZM237.14 61.317H245.348V63.35H239.211V71.558H237.14V61.317ZM244.246 61.317H246.355V69.544C246.355 70.437 246.222 70.988 245.671 71.33C245.139 71.672 244.455 71.691 243.505 71.691C243.448 71.121 243.182 70.285 242.916 69.734C243.391 69.753 243.866 69.753 244.018 69.753C244.189 69.753 244.246 69.696 244.246 69.506V61.317Z" fill="white"/>
<path d="M249.83 28.6862C249.83 29.0544 249.532 29.3529 249.164 29.3529C248.796 29.3529 248.497 29.0544 248.497 28.6862C248.497 28.318 248.796 28.0195 249.164 28.0195C249.532 28.0195 249.83 28.318 249.83 28.6862Z" stroke="white" stroke-opacity="0.62" stroke-width="2"/>
<path d="M256.497 28.6862C256.497 29.0544 256.199 29.3529 255.83 29.3529C255.462 29.3529 255.164 29.0544 255.164 28.6862C255.164 28.318 255.462 28.0195 255.83 28.0195C256.199 28.0195 256.497 28.318 256.497 28.6862Z" stroke="white" stroke-opacity="0.62" stroke-width="2"/>
<path d="M263.164 28.6862C263.164 29.0544 262.865 29.3529 262.497 29.3529C262.129 29.3529 261.83 29.0544 261.83 28.6862C261.83 28.318 262.129 28.0195 262.497 28.0195C262.865 28.0195 263.164 28.318 263.164 28.6862Z" stroke="white" stroke-opacity="0.62" stroke-width="2"/>
<defs>
<filter id="filter0_f_793_3905" x="0.0214844" y="0.686523" width="107.461" height="135.026" filterUnits="userSpaceOnUse" color-interpolation-filters="sRGB">
<feFlood flood-opacity="0" result="BackgroundImageFix"/>
<feBlend mode="normal" in="SourceGraphic" in2="BackgroundImageFix" result="shape"/>
<feGaussianBlur stdDeviation="9" result="effect1_foregroundBlur_793_3905"/>
</filter>
</defs>
</svg>
