<svg width="26" height="48" viewBox="0 0 26 48" fill="none" xmlns="http://www.w3.org/2000/svg">
<path d="M13.5206 0.192595C13.221 -0.0641982 12.779 -0.0641982 12.4794 0.192595L1 10.0321V21.6C1 22.9255 2.07452 24 3.4 24H9.8C10.2418 24 10.6 23.6418 10.6 23.2V18.4C10.6 17.0745 11.6745 16 13 16C14.3255 16 15.4 17.0745 15.4 18.4V23.2C15.4 23.6418 15.7582 24 16.2 24H22.6C23.9255 24 25 22.9255 25 21.6V10.0321L13.5206 0.192595Z" fill="#1C6BA4"/>
<path d="M3.212 39.524H9.812V40.256H3.212V39.524ZM3.212 41.492H9.812V42.212H3.212V41.492ZM3.212 43.472H9.848V44.276H3.212V43.472ZM1.136 35.588H11.876V36.428H1.136V35.588ZM2.504 37.544H10.484V44.96H9.56V38.336H3.404V44.96H2.504V37.544ZM6.056 36.02L7.16 36.092C6.932 36.8 6.644 37.556 6.428 38.072L5.552 37.94C5.756 37.4 5.96 36.584 6.056 36.02ZM8.912 33.908L9.908 34.172C9.476 34.82 8.948 35.492 8.516 35.948L7.736 35.696C8.144 35.204 8.636 34.448 8.912 33.908ZM3.224 34.232L4.016 33.884C4.46 34.304 4.928 34.904 5.168 35.312L4.328 35.744C4.124 35.324 3.644 34.688 3.224 34.232ZM15.668 38.972V40.076H21.728V38.972H15.668ZM15.668 40.772V41.876H21.728V40.772H15.668ZM15.668 37.196V38.276H21.728V37.196H15.668ZM14.732 36.476H22.688V42.596H14.732V36.476ZM19.508 43.388L20.144 42.8C21.56 43.268 23.096 43.892 24.032 44.36L23.192 44.972C22.34 44.504 20.912 43.868 19.508 43.388ZM13.592 34.544H23.612V35.372H13.592V34.544ZM18.164 34.892L19.22 35.024C19.016 35.708 18.788 36.44 18.596 36.932L17.744 36.776C17.912 36.248 18.092 35.444 18.164 34.892ZM16.928 42.74L17.744 43.328C16.7 43.964 15.068 44.6 13.784 44.96C13.64 44.768 13.364 44.456 13.16 44.264C14.456 43.916 16.1 43.292 16.928 42.74Z" fill="#1C6BA4"/>
</svg>
