<svg width="72" height="72" viewBox="0 0 72 72" fill="none" xmlns="http://www.w3.org/2000/svg">
<rect x="0.330078" width="71.4116" height="71.4116" rx="20" fill="#DCEDF9"/>
<path d="M42.8558 32.6085V41.8416C43.7365 42.1552 44.3713 42.9874 44.3713 43.9754C44.3713 45.2303 43.3528 46.2488 42.0979 46.2488C40.8432 46.2488 39.8248 45.2303 39.8248 43.9754C39.8248 42.9872 40.4598 42.1553 41.3403 41.8416V32.6085H39.8248C39.8248 34.2818 38.1289 35.6397 36.0359 35.6397C33.9427 35.6395 32.2468 34.2815 32.2468 32.6085H30.7313V35.7168C32.4592 36.0685 33.7625 37.5977 33.7625 39.4286V42.4598C33.7625 43.5435 33.2866 44.5787 32.4576 45.3046C32.3135 45.4287 32.1362 45.4908 31.9588 45.4908C31.7482 45.4908 31.5374 45.403 31.3889 45.2318C31.1131 44.9166 31.1464 44.4376 31.4618 44.1618C31.9603 43.7267 32.2468 43.1053 32.2468 42.4596V39.4283C32.2468 38.1752 31.2268 37.1552 29.9734 37.1552C28.72 37.1552 27.7 38.1752 27.7 39.4286V42.4598C27.7 43.1055 27.9865 43.7269 28.4866 44.1618C28.8017 44.4376 28.8337 44.9166 28.5594 45.2318C28.2836 45.5469 27.803 45.5773 27.491 45.3046C26.6603 44.5784 26.1846 43.5432 26.1846 42.4596V39.4283C26.1846 37.5974 27.4879 36.0683 29.2158 35.7166L29.2156 32.6084C25.8677 32.6084 23.1533 35.3227 23.1533 38.6706V47.7641H48.9184V38.6706C48.9184 35.3227 46.2038 32.6084 42.8559 32.6084L42.8558 32.6085Z" fill="#1C6BA4"/>
<path d="M33.4155 30.5668C34.2218 30.9032 35.107 31.0925 36.036 31.0925C36.9651 31.0925 37.8501 30.903 38.6564 30.5665C41.1208 29.5392 42.8561 27.1095 42.8561 24.2724V21.999H29.2158V24.2724C29.2158 27.1096 30.9498 29.5392 33.4155 30.5668V30.5668Z" fill="#1C6BA4"/>
<path d="M42.856 15.7954C40.9737 13.8692 38.5049 12.9053 36.0359 12.9053C33.5672 12.9053 31.0997 13.8692 29.2158 15.7954V20.4833H42.856V15.7954ZM38.3093 17.452H36.7938V18.9675H35.2783V17.452H33.7628L33.7626 15.9365H35.2781L35.2783 14.421H36.7938V15.9365H38.3093V17.452Z" fill="#1C6BA4"/>
</svg>
