<svg width="26" height="48" viewBox="0 0 26 48" fill="none" xmlns="http://www.w3.org/2000/svg">
<path d="M12.8462 24C14.2 24 15.3077 22.8923 15.3077 21.5385H10.3846C10.3846 22.8923 11.48 24 12.8462 24ZM20.2308 16.6154V10.4615C20.2308 6.68308 18.2123 3.52 14.6923 2.68308V1.84615C14.6923 0.824615 13.8677 0 12.8462 0C11.8246 0 11 0.824615 11 1.84615V2.68308C7.46769 3.52 5.46154 6.67077 5.46154 10.4615V16.6154L3 19.0769V20.3077H22.6923V19.0769L20.2308 16.6154Z" fill="#7B8D9E"/>
<path d="M6.236 36.596V37.556H10.244V36.596H6.236ZM6.236 35V35.96H10.244V35H6.236ZM5.408 34.316H11.108V38.252H5.408V34.316ZM4.856 39.116H11.768V39.872H4.856V39.116ZM7.808 39.488H8.648V44.396L7.808 44.048V39.488ZM6.2 41.696C6.812 43.688 8.132 43.988 9.8 43.988C10.1 43.988 11.72 43.988 12.14 43.976C12.02 44.168 11.9 44.552 11.876 44.78H9.764C7.76 44.78 6.38 44.348 5.648 41.9L6.2 41.696ZM8.384 41.276H11.168V42.02H8.384V41.276ZM5.648 40.436L6.464 40.532C6.224 42.512 5.6 44 4.52 44.96C4.376 44.816 4.028 44.552 3.848 44.42C4.916 43.568 5.456 42.212 5.648 40.436ZM0.836 40.304C1.772 40.052 3.164 39.62 4.508 39.188L4.64 40.016C3.392 40.424 2.084 40.856 1.064 41.18L0.836 40.304ZM0.968 36.344H4.628V37.184H0.968V36.344ZM2.456 33.932H3.296V43.844C3.296 44.336 3.188 44.576 2.888 44.72C2.612 44.864 2.144 44.888 1.388 44.888C1.352 44.672 1.244 44.3 1.124 44.048C1.652 44.06 2.108 44.06 2.252 44.06C2.408 44.06 2.456 44.012 2.456 43.832V33.932ZM16.604 39.596C16.604 39.764 16.616 39.776 16.772 39.776C16.832 39.776 17.144 39.776 17.228 39.776C17.372 39.776 17.396 39.776 17.42 39.74C17.528 39.848 17.744 39.92 17.912 39.956C17.864 40.232 17.672 40.34 17.324 40.34C17.24 40.34 16.808 40.34 16.712 40.34C16.208 40.34 16.064 40.22 16.064 39.608V37.268H16.604V39.596ZM15.404 38.396C15.404 39.128 15.224 40.064 14.456 40.712C14.36 40.604 14.144 40.412 14.012 40.34C14.732 39.752 14.84 39.02 14.84 38.396V37.268H15.404V38.396ZM16.736 34.7V37.34H16.076V34.7H16.736ZM15.392 34.7V37.34H14.72V34.7H15.392ZM18.248 34.436V35.216H13.196V34.436H18.248ZM17.744 43.352V44.072H13.736V43.352H17.744ZM17.744 41.42V42.14H13.736V41.42H17.744ZM18.128 36.716V44.744H17.396V37.496H14.108V44.9H13.4V36.716H18.128ZM23.828 39.884V40.616H19.016L19.388 39.884H23.828ZM20.06 38.912C19.76 39.968 19.256 41.012 18.692 41.696C18.56 41.576 18.236 41.372 18.056 41.276C18.632 40.64 19.064 39.704 19.328 38.756L20.06 38.912ZM19.64 37.844H22.748V36.824H19.64V37.844ZM19.64 36.152H22.748V35.132H19.64V36.152ZM23.576 34.412V38.576H18.848V34.412H23.576ZM21.668 38.804V44.288H20.864V38.804H21.668ZM23.576 41.804V42.536H18.956V41.804H23.576ZM24.176 43.904V44.66H18.428V43.904H24.176Z" fill="#7B8D9E"/>
</svg>
