<svg width="26" height="48" viewBox="0 0 26 48" fill="none" xmlns="http://www.w3.org/2000/svg">
<path d="M20.1405 12.9404C20.1805 12.6404 20.2005 12.3304 20.2005 12.0004C20.2005 11.6804 20.1805 11.3604 20.1305 11.0604L22.1605 9.48039C22.2479 9.40829 22.3077 9.30809 22.3296 9.19686C22.3515 9.08563 22.3341 8.97026 22.2805 8.87039L20.3605 5.55039C20.3039 5.44996 20.2137 5.37277 20.1057 5.3325C19.9977 5.29224 19.8789 5.29149 19.7705 5.33039L17.3805 6.29039C16.8805 5.91039 16.3505 5.59039 15.7605 5.35039L15.4005 2.81039C15.3827 2.69592 15.3246 2.5916 15.2365 2.51637C15.1484 2.44114 15.0363 2.39999 14.9205 2.40039H11.0805C10.8405 2.40039 10.6505 2.57039 10.6105 2.81039L10.2505 5.35039C9.66045 5.59039 9.12045 5.92039 8.63045 6.29039L6.24045 5.33039C6.02045 5.25039 5.77045 5.33039 5.65045 5.55039L3.74045 8.87039C3.62045 9.08039 3.66045 9.34039 3.86045 9.48039L5.89045 11.0604C5.84045 11.3604 5.80045 11.6904 5.80045 12.0004C5.80045 12.3104 5.82045 12.6404 5.87045 12.9404L3.84045 14.5204C3.75298 14.5925 3.69321 14.6927 3.67132 14.8039C3.64944 14.9152 3.66681 15.0305 3.72045 15.1304L5.64045 18.4504C5.76045 18.6704 6.01045 18.7404 6.23045 18.6704L8.62045 17.7104C9.12045 18.0904 9.65045 18.4104 10.2405 18.6504L10.6005 21.1904C10.6505 21.4304 10.8405 21.6004 11.0805 21.6004H14.9205C15.1605 21.6004 15.3605 21.4304 15.3905 21.1904L15.7505 18.6504C16.3405 18.4104 16.8805 18.0904 17.3705 17.7104L19.7605 18.6704C19.9805 18.7504 20.2305 18.6704 20.3505 18.4504L22.2705 15.1304C22.3905 14.9104 22.3405 14.6604 22.1505 14.5204L20.1405 12.9404ZM13.0005 15.6004C11.0205 15.6004 9.40045 13.9804 9.40045 12.0004C9.40045 10.0204 11.0205 8.40039 13.0005 8.40039C14.9805 8.40039 16.6005 10.0204 16.6005 12.0004C16.6005 13.9804 14.9805 15.6004 13.0005 15.6004Z" fill="#7B8D9E"/>
<path d="M6.452 34.304H7.316V35.768C7.316 36.812 7.052 38.084 5.768 38.936C5.648 38.768 5.3 38.456 5.12 38.336C6.272 37.592 6.452 36.596 6.452 35.756V34.304ZM9.38 34.304H10.232V37.256C10.232 37.52 10.268 37.568 10.46 37.568C10.556 37.568 10.952 37.568 11.072 37.568C11.276 37.568 11.324 37.412 11.348 36.26C11.516 36.392 11.876 36.524 12.104 36.584C12.032 37.988 11.816 38.36 11.168 38.36C11.012 38.36 10.484 38.36 10.328 38.36C9.596 38.36 9.38 38.12 9.38 37.268V34.304ZM7.1 39.968C7.928 42.032 9.716 43.568 12.128 44.18C11.924 44.372 11.66 44.732 11.54 44.96C9.044 44.228 7.256 42.572 6.296 40.22L7.1 39.968ZM10.46 39.128H10.64L10.796 39.092L11.372 39.32C10.52 42.464 8.264 44.192 5.636 44.96C5.54 44.744 5.312 44.36 5.144 44.168C7.568 43.556 9.74 41.936 10.46 39.272V39.128ZM5.672 39.128H10.808V39.944H5.672V39.128ZM6.812 34.304H9.812V35.108H6.812V34.304ZM1.52 37.556H5.096V38.276H1.52V37.556ZM1.58 34.352H5.072V35.072H1.58V34.352ZM1.52 39.164H5.096V39.884H1.52V39.164ZM0.956 35.924H5.516V36.668H0.956V35.924ZM1.952 40.784H5.096V44.288H1.952V43.532H4.304V41.528H1.952V40.784ZM1.508 40.784H2.288V44.84H1.508V40.784ZM15.152 37.592H22.148V38.456H15.152V37.592ZM18.608 40.46H22.652V41.312H18.608V40.46ZM18.128 38.036H19.064V44.108L18.128 43.988V38.036ZM15.284 39.488L16.22 39.584C15.884 42.008 15.128 43.844 13.772 45.02C13.628 44.864 13.244 44.552 13.028 44.42C14.372 43.376 15.02 41.66 15.284 39.488ZM15.848 41.036C16.7 43.484 18.572 43.904 21.008 43.904C21.452 43.904 23.528 43.904 24.116 43.892C23.972 44.108 23.816 44.54 23.78 44.804H20.96C18.104 44.804 16.148 44.24 15.116 41.312L15.848 41.036ZM18.116 33.932H19.064V35.876H18.116V33.932ZM13.604 35.3H23.636V37.916H22.712V36.164H14.492V37.916H13.604V35.3Z" fill="#7B8D9E"/>
</svg>
