<svg width="73" height="72" viewBox="0 0 73 72" fill="none" xmlns="http://www.w3.org/2000/svg">
<rect x="0.835938" width="71.4116" height="71.4116" rx="20" fill="#FAF0DB"/>
<path d="M38.0484 29.59C39.684 28.1278 41.8541 27.2469 44.2311 27.2469C45.6675 27.2469 47.0038 27.5863 48.1993 28.1283L49.7195 26.7453C51.7197 24.636 51.4057 20.8805 48.9063 18.1973C46.4218 15.4819 42.689 14.8829 40.4207 16.7454L31.834 24.6863C33.1198 25.1806 34.351 25.8631 35.4451 26.8273C36.7849 27.8852 37.6301 29.0231 38.0485 29.5896L38.0484 29.59Z" fill="#E09F1F"/>
<path d="M37.1394 30.4893C36.8464 30.0669 35.973 28.8856 34.6438 27.7557C33.4378 26.7444 32.16 26.0445 30.849 25.6357L22.0633 33.7569C19.8533 35.8046 20.1025 39.7296 22.7202 42.4886C25.2624 45.2438 29.1334 45.8216 31.3326 43.7665L35.3844 40.0041C35.0267 38.9826 34.8101 37.8769 34.8101 36.7289C34.8099 34.3314 35.6732 32.1286 37.1397 30.4891L37.1394 30.4893Z" fill="#E09F1F"/>
<path d="M52.1611 34.3096L36.8145 40.3907C38.685 44.1968 43.2166 46.0062 47.2861 44.418C51.3162 42.7993 53.4065 38.4018 52.161 34.3098L52.1611 34.3096Z" fill="#E09F1F"/>
<path d="M41.2012 28.9978C37.1574 30.5835 35.0447 35.0072 36.2912 39.0908L51.6483 33.0096C49.7661 29.2003 45.2351 27.3983 41.2012 28.9977V28.9978Z" fill="#E09F1F"/>
</svg>
