<svg width="26" height="48" viewBox="0 0 26 48" fill="none" xmlns="http://www.w3.org/2000/svg">
<g clip-path="url(#clip0_793_3959)">
<path d="M24.2133 7.21333L17.7733 0.773333C17.28 0.28 16.6 0 15.8933 0H3.66667C2.2 0 1 1.2 1 2.66667V21.3333C1 22.8 2.2 24 3.66667 24H22.3333C23.8 24 25 22.8 25 21.3333V9.10667C25 8.4 24.72 7.72 24.2133 7.21333ZM6.33333 5.33333H15.6667V8H6.33333V5.33333ZM19.6667 18.6667H6.33333V16H19.6667V18.6667ZM19.6667 13.3333H6.33333V10.6667H19.6667V13.3333Z" fill="#7B8D9E"/>
</g>
<path d="M7.172 38.564H11.096V39.308H7.172V38.564ZM6.716 34.484H11.012V35.288H7.544V44.972H6.716V34.484ZM10.58 34.484H11.42V36.8C11.42 37.244 11.324 37.484 10.952 37.616C10.58 37.748 9.98 37.76 9.056 37.76C9.02 37.52 8.9 37.196 8.78 36.968C9.524 36.992 10.148 36.992 10.34 36.98C10.532 36.968 10.58 36.92 10.58 36.788V34.484ZM8.348 39.056C8.996 41.3 10.352 43.352 12.152 44.228C11.948 44.408 11.672 44.732 11.528 44.96C9.68 43.916 8.348 41.732 7.64 39.236L8.348 39.056ZM10.82 38.564H10.988L11.144 38.516L11.696 38.72C11.228 41.324 10.04 43.688 8.12 44.984C7.988 44.78 7.724 44.528 7.52 44.372C9.32 43.196 10.448 40.952 10.82 38.756V38.564ZM1.424 35.156H5.876V35.936H1.424V35.156ZM1.28 41.72H6.032V42.5H1.28V41.72ZM0.992 37.136H6.332V37.916H0.992V37.136ZM1.16 39.632H6.188V40.412H1.16V39.632ZM3.272 33.944H4.112V37.412H3.272V33.944ZM3.272 39.956H4.112V44.936H3.272V39.956ZM4.892 37.868L5.66 38.072C5.42 38.648 5.192 39.272 4.964 39.692L4.292 39.488C4.496 39.044 4.76 38.336 4.892 37.868ZM1.832 38.06L2.516 37.892C2.78 38.396 3.02 39.08 3.08 39.5L2.36 39.704C2.3 39.272 2.072 38.588 1.832 38.06ZM13.34 38.372H23.924V39.224H13.34V38.372ZM15.284 35.66H23.036V36.488H15.284V35.66ZM15.32 43.556H22.04V44.396H15.32V43.556ZM18.404 33.92H19.352V38.864H18.404V33.92ZM14.828 40.412H22.52V45.056H21.584V41.252H15.74V45.068H14.828V40.412ZM15.596 34.028L16.484 34.244C15.968 35.72 15.14 37.16 14.3 38.108C14.12 37.976 13.712 37.736 13.484 37.616C14.372 36.752 15.128 35.384 15.596 34.028Z" fill="#7B8D9E"/>
<defs>
<clipPath id="clip0_793_3959">
<rect width="24" height="24" fill="white" transform="translate(1)"/>
</clipPath>
</defs>
</svg>
