<svg width="26" height="48" viewBox="0 0 26 48" fill="none" xmlns="http://www.w3.org/2000/svg">
<path d="M18.8 10.8H6.8V13.2H18.8V10.8ZM21.2 2.4H20V0H17.6V2.4H8V0H5.6V2.4H4.4C3.068 2.4 2.012 3.48 2.012 4.8L2 21.6C2 22.92 3.068 24 4.4 24H21.2C22.52 24 23.6 22.92 23.6 21.6V4.8C23.6 3.48 22.52 2.4 21.2 2.4ZM21.2 21.6H4.4V8.4H21.2V21.6ZM15.2 15.6H6.8V18H15.2V15.6Z" fill="#7B8D9E"/>
<path d="M5.552 35.36H11.552V36.152H5.552V35.36ZM5.036 37.688H12.068V38.492H5.036V37.688ZM5.096 39.86H11.936V40.664H5.096V39.86ZM8.072 33.92H8.96V38.18H8.072V33.92ZM9.656 38.372H10.532V43.892C10.532 44.408 10.412 44.672 10.04 44.804C9.668 44.936 9.056 44.948 8.096 44.948C8.06 44.708 7.916 44.348 7.784 44.108C8.528 44.132 9.2 44.132 9.392 44.12C9.596 44.108 9.656 44.06 9.656 43.88V38.372ZM5.828 41.504L6.548 41.072C7.172 41.696 7.844 42.548 8.132 43.136L7.352 43.616C7.088 43.028 6.44 42.128 5.828 41.504ZM1.832 34.712H4.832V42.596H1.832V41.78H3.992V35.528H1.832V34.712ZM1.868 38.204H4.388V39.008H1.868V38.204ZM1.4 34.712H2.252V43.58H1.4V34.712ZM20.348 39.584H21.236V44.384H20.348V39.584ZM17.708 39.26H23.912V40.052H17.708V39.26ZM17.192 43.844H24.176V44.648H17.192V43.844ZM17.996 41.492H23.636V42.272H17.996V41.492ZM19.004 35.204V37.424H22.616V35.204H19.004ZM18.164 34.424H23.492V38.204H18.164V34.424ZM15.164 34.916H16.04V44.936H15.164V34.916ZM13.196 37.304H17.552V38.156H13.196V37.304ZM15.212 37.628L15.776 37.868C15.296 39.56 14.336 41.66 13.412 42.776C13.328 42.524 13.112 42.152 12.956 41.948C13.82 40.988 14.78 39.116 15.212 37.628ZM16.94 34.1L17.576 34.796C16.472 35.24 14.792 35.576 13.4 35.768C13.352 35.564 13.232 35.276 13.124 35.072C14.48 34.844 16.064 34.508 16.94 34.1ZM16.004 38.852C16.304 39.116 17.432 40.256 17.672 40.556L17.144 41.264C16.856 40.772 15.956 39.632 15.584 39.212L16.004 38.852Z" fill="#7B8D9E"/>
</svg>
