<svg width="72" height="72" viewBox="0 0 72 72" fill="none" xmlns="http://www.w3.org/2000/svg">
<rect x="0.341797" width="71.4116" height="71.4116" rx="20" fill="#D6F6FF"/>
<path d="M38.7647 29.3545L37.285 27.1797L35.8222 30.4169C35.7404 30.6006 35.5825 30.7095 35.4027 30.7095L35.4009 30.7098C35.2212 30.7098 35.0635 30.602 34.9814 30.4192L33.9459 28.1647L33.3258 29.3109C33.2109 29.5256 32.9612 29.6743 32.7176 29.6743H30.0786C29.8699 29.6743 29.7021 29.843 29.7021 30.0508C29.7021 30.2586 29.8699 30.4282 30.0786 30.4282H32.567C33.306 31.2619 34.4024 32.0169 35.9679 32.5571C37.9959 31.8581 39.2422 30.8027 39.931 29.6743H39.3688C39.1413 29.6762 38.8917 29.5445 38.7648 29.3546L38.7647 29.3545Z" fill="#009DC7"/>
<path d="M42.3221 28.1788H40.5336C40.9241 26.3386 40.1003 24.625 38.975 24.2226C36.9551 23.5006 35.9674 25.3271 35.9674 25.3271C35.9674 25.3271 34.9809 23.5007 32.9598 24.2226C31.6828 24.6789 30.7951 26.8218 31.6237 28.9226H32.6792L33.551 27.309C33.643 27.1383 33.8027 27.0385 33.9804 27.0445C34.1581 27.0505 34.3118 27.1594 34.3939 27.3371L35.3983 29.526L36.7983 26.4296C36.8742 26.2598 37.0229 26.149 37.1937 26.134C37.3675 26.1161 37.5311 26.203 37.6341 26.3577L39.3856 28.9318H42.3213C42.5279 28.9318 42.6978 28.7619 42.6978 28.5544C42.6975 28.3466 42.5288 28.1788 42.3222 28.1788L42.3221 28.1788Z" fill="#009DC7"/>
<path d="M46.112 18.6036H41.8841L41.8843 17.7897C41.8843 17.1585 41.371 16.6464 40.7399 16.6464H39.7494C39.0555 15.4022 37.7275 14.5596 36.2017 14.5596C34.675 14.5596 33.3469 15.4024 32.6519 16.6464H31.6614C31.0293 16.6464 30.517 17.1587 30.517 17.7897V18.6024L26.2873 18.6027C25.1368 18.6027 24.2004 19.5393 24.2004 20.6895L24.2002 44.4264C24.2002 45.5768 25.1368 46.5132 26.287 46.5132H46.1121C47.2625 46.5132 48.1989 45.5766 48.1989 44.4264L48.1992 20.6901C48.1992 19.539 47.2625 18.6033 46.1121 18.6033L46.112 18.6036ZM26.2875 44.4264V20.6901H30.5154V21.8295C30.5154 22.4616 31.0287 22.9728 31.6598 22.9728H40.7386C41.3707 22.9728 41.883 22.4616 41.883 21.8295L41.8825 20.6901H46.1105L46.1125 44.4264H26.2875Z" fill="#009DC7"/>
<path d="M37.7142 35.7221C37.7142 35.8448 37.6144 35.9448 37.4914 35.9448L29.17 35.9446C29.0473 35.9446 28.9473 35.8448 28.9473 35.7219V34.8321C28.9473 34.7094 29.047 34.6094 29.17 34.6094H37.492C37.6148 34.6094 37.7148 34.7091 37.7148 34.8321L37.7142 35.7221Z" fill="#009DC7"/>
<path d="M41.2706 36.6645C41.029 36.6645 40.8042 36.5496 40.6504 36.3471L38.9189 34.0776L39.8726 33.3496L41.2296 35.1289L43.4474 31.4883L44.471 32.1123L41.9337 36.2811C41.7928 36.5107 41.5673 36.6505 41.3096 36.6645C41.2956 36.6634 41.2846 36.6645 41.2706 36.6645L41.2706 36.6645Z" fill="#009DC7"/>
<path d="M37.7142 41.7226C37.7142 41.8453 37.6144 41.9441 37.4914 41.9441L29.17 41.9444C29.0473 41.9444 28.9473 41.8455 28.9473 41.7228V40.8321C28.9473 40.7094 29.047 40.6094 29.17 40.6094H37.492C37.6148 40.6094 37.7148 40.7091 37.7148 40.8321L37.7142 41.7226Z" fill="#009DC7"/>
<path d="M41.2706 42.6644C41.029 42.6644 40.8042 42.5495 40.6504 42.347L38.9189 40.0775L39.8726 39.3495L41.2296 41.1279L43.4474 37.4873L44.471 38.1113L41.9337 42.2813C41.7928 42.51 41.5673 42.6507 41.3096 42.6647C41.2956 42.6645 41.2846 42.6645 41.2706 42.6645L41.2706 42.6644Z" fill="#009DC7"/>
</svg>
