<svg width="320" height="85" viewBox="0 0 320 85" fill="none" xmlns="http://www.w3.org/2000/svg">
<rect x="0.5" y="0.5" width="319" height="84" rx="23.5" fill="white" stroke="#D7DEEA"/>
<path d="M290.866 49.3996L297.266 42.9996L290.866 36.5996" stroke="#1C6BA4" stroke-width="1.5" stroke-linecap="square"/>
<path d="M96.627 36.233H107.473V38.086H96.627V36.233ZM98.854 40.942V42.625H105.059V40.942H98.854ZM97.001 39.276H107.014V44.291H97.001V39.276ZM98.599 44.461C100.112 46.909 103.325 48.286 107.728 48.694C107.303 49.136 106.793 49.952 106.538 50.513C101.931 49.884 98.786 48.167 96.933 44.971L98.599 44.461ZM100.928 34.669H102.934V42.438C102.934 45.906 102.067 49.068 97.188 50.53C96.95 50.071 96.355 49.255 95.913 48.83C100.486 47.81 100.928 45.209 100.928 42.421V34.669ZM95.335 34.516L97.239 35.128C96.083 38.018 94.213 41.061 92.275 42.982C92.105 42.506 91.561 41.384 91.221 40.891C92.836 39.361 94.417 36.947 95.335 34.516ZM93.686 39.259L95.607 37.321L95.624 37.338V50.564H93.686V39.259ZM111.74 35.706H122.178V37.644H111.74V35.706ZM111.74 39.616H122.212V41.52H111.74V39.616ZM111.706 43.628H122.28V45.549H111.706V43.628ZM110.567 35.706H112.59V41.826C112.59 44.529 112.25 48.354 110.159 50.632C109.836 50.241 109.003 49.561 108.561 49.306C110.414 47.249 110.567 44.206 110.567 41.809V35.706ZM121.464 35.706H123.487V48.133C123.487 49.221 123.249 49.765 122.569 50.088C121.855 50.411 120.835 50.445 119.288 50.428C119.203 49.884 118.897 49 118.625 48.473C119.594 48.541 120.716 48.524 121.022 48.524C121.345 48.507 121.464 48.405 121.464 48.116V35.706ZM115.803 36.471H117.877V50.326H115.803V36.471ZM126.649 49V37.015H134.486V38.749H128.825V42.132H134.129V43.866H128.825V49H126.649ZM138.566 49.17C137.965 49.17 137.427 49.0567 136.951 48.83C136.486 48.592 136.118 48.2747 135.846 47.878C135.585 47.4813 135.455 47.0337 135.455 46.535C135.455 45.923 135.614 45.4413 135.931 45.09C136.248 44.7273 136.764 44.4667 137.478 44.308C138.192 44.1493 139.15 44.07 140.351 44.07H140.946V43.713C140.946 43.1463 140.821 42.7383 140.572 42.489C140.323 42.2397 139.903 42.115 139.314 42.115C138.849 42.115 138.373 42.1887 137.886 42.336C137.399 42.472 136.906 42.6873 136.407 42.982L135.795 41.537C136.09 41.333 136.435 41.1573 136.832 41.01C137.24 40.8513 137.665 40.7323 138.107 40.653C138.56 40.5623 138.985 40.517 139.382 40.517C140.595 40.517 141.496 40.8003 142.085 41.367C142.674 41.9223 142.969 42.7893 142.969 43.968V49H140.98V47.674C140.787 48.1387 140.481 48.507 140.062 48.779C139.643 49.0397 139.144 49.17 138.566 49.17ZM139.008 47.708C139.563 47.708 140.022 47.5153 140.385 47.13C140.759 46.7447 140.946 46.2573 140.946 45.668V45.294H140.368C139.303 45.294 138.56 45.379 138.141 45.549C137.733 45.7077 137.529 46.0023 137.529 46.433C137.529 46.807 137.659 47.113 137.92 47.351C138.181 47.589 138.543 47.708 139.008 47.708ZM149.138 49.17C148.265 49.17 147.506 48.9943 146.86 48.643C146.214 48.2803 145.715 47.7703 145.364 47.113C145.012 46.4557 144.837 45.685 144.837 44.801C144.837 43.917 145.012 43.1577 145.364 42.523C145.715 41.877 146.214 41.384 146.86 41.044C147.506 40.6927 148.265 40.517 149.138 40.517C149.67 40.517 150.197 40.602 150.719 40.772C151.24 40.942 151.671 41.18 152.011 41.486L151.382 42.965C151.087 42.7043 150.753 42.506 150.379 42.37C150.016 42.234 149.665 42.166 149.325 42.166C148.588 42.166 148.016 42.3983 147.608 42.863C147.211 43.3163 147.013 43.968 147.013 44.818C147.013 45.6567 147.211 46.3197 147.608 46.807C148.016 47.283 148.588 47.521 149.325 47.521C149.653 47.521 150.005 47.453 150.379 47.317C150.753 47.181 151.087 46.977 151.382 46.705L152.011 48.201C151.671 48.4957 151.234 48.7337 150.702 48.915C150.18 49.085 149.659 49.17 149.138 49.17ZM157.415 49.17C156.475 49.17 155.664 48.9943 154.984 48.643C154.304 48.2917 153.777 47.793 153.403 47.147C153.041 46.501 152.859 45.736 152.859 44.852C152.859 43.9907 153.035 43.237 153.386 42.591C153.749 41.945 154.242 41.4407 154.865 41.078C155.5 40.704 156.22 40.517 157.024 40.517C158.203 40.517 159.132 40.891 159.812 41.639C160.504 42.387 160.849 43.407 160.849 44.699V45.328H154.899C155.058 46.8127 155.908 47.555 157.449 47.555C157.914 47.555 158.379 47.487 158.843 47.351C159.308 47.2037 159.733 46.977 160.118 46.671L160.713 48.099C160.317 48.4277 159.818 48.6883 159.217 48.881C158.617 49.0737 158.016 49.17 157.415 49.17ZM157.109 41.962C156.486 41.962 155.982 42.1547 155.596 42.54C155.211 42.9253 154.979 43.4467 154.899 44.104H159.081C159.036 43.4127 158.843 42.8857 158.503 42.523C158.175 42.149 157.71 41.962 157.109 41.962ZM167.496 49.17C166.884 49.17 166.334 49.034 165.847 48.762C165.371 48.49 165.014 48.1217 164.776 47.657V49H162.702V37.015H164.827V41.911C165.076 41.4917 165.433 41.1573 165.898 40.908C166.374 40.6473 166.907 40.517 167.496 40.517C168.233 40.517 168.873 40.6927 169.417 41.044C169.961 41.3953 170.386 41.894 170.692 42.54C170.998 43.1747 171.151 43.9397 171.151 44.835C171.151 45.719 170.998 46.4897 170.692 47.147C170.386 47.793 169.955 48.2917 169.4 48.643C168.856 48.9943 168.221 49.17 167.496 49.17ZM166.901 47.555C167.536 47.555 168.046 47.3283 168.431 46.875C168.816 46.4103 169.009 45.7303 169.009 44.835C169.009 43.9283 168.816 43.254 168.431 42.812C168.046 42.3587 167.536 42.132 166.901 42.132C166.266 42.132 165.756 42.3587 165.371 42.812C164.986 43.254 164.793 43.9283 164.793 44.835C164.793 45.7303 164.986 46.4103 165.371 46.875C165.756 47.3283 166.266 47.555 166.901 47.555ZM176.857 49.17C175.995 49.17 175.247 48.9943 174.613 48.643C173.978 48.2917 173.485 47.793 173.134 47.147C172.782 46.4897 172.607 45.719 172.607 44.835C172.607 43.951 172.782 43.186 173.134 42.54C173.485 41.894 173.978 41.3953 174.613 41.044C175.247 40.6927 175.995 40.517 176.857 40.517C177.718 40.517 178.466 40.6927 179.101 41.044C179.735 41.3953 180.228 41.894 180.58 42.54C180.931 43.186 181.107 43.951 181.107 44.835C181.107 45.719 180.931 46.4897 180.58 47.147C180.228 47.793 179.735 48.2917 179.101 48.643C178.466 48.9943 177.718 49.17 176.857 49.17ZM176.857 47.555C177.491 47.555 178.001 47.3283 178.387 46.875C178.772 46.4103 178.965 45.7303 178.965 44.835C178.965 43.9283 178.772 43.254 178.387 42.812C178.001 42.3587 177.491 42.132 176.857 42.132C176.222 42.132 175.712 42.3587 175.327 42.812C174.941 43.254 174.749 43.9283 174.749 44.835C174.749 45.7303 174.941 46.4103 175.327 46.875C175.712 47.3283 176.222 47.555 176.857 47.555ZM186.821 49.17C185.96 49.17 185.212 48.9943 184.577 48.643C183.943 48.2917 183.45 47.793 183.098 47.147C182.747 46.4897 182.571 45.719 182.571 44.835C182.571 43.951 182.747 43.186 183.098 42.54C183.45 41.894 183.943 41.3953 184.577 41.044C185.212 40.6927 185.96 40.517 186.821 40.517C187.683 40.517 188.431 40.6927 189.065 41.044C189.7 41.3953 190.193 41.894 190.544 42.54C190.896 43.186 191.071 43.951 191.071 44.835C191.071 45.719 190.896 46.4897 190.544 47.147C190.193 47.793 189.7 48.2917 189.065 48.643C188.431 48.9943 187.683 49.17 186.821 49.17ZM186.821 47.555C187.456 47.555 187.966 47.3283 188.351 46.875C188.737 46.4103 188.929 45.7303 188.929 44.835C188.929 43.9283 188.737 43.254 188.351 42.812C187.966 42.3587 187.456 42.132 186.821 42.132C186.187 42.132 185.677 42.3587 185.291 42.812C184.906 43.254 184.713 43.9283 184.713 44.835C184.713 45.7303 184.906 46.4103 185.291 46.875C185.677 47.3283 186.187 47.555 186.821 47.555ZM192.995 49V37.015H195.12V44.223H195.154L198.503 40.687H201.07L197.296 44.665L201.308 49H198.707L195.154 45.294H195.12V49H192.995ZM206.547 39.106H212.837V40.806H206.547V39.106ZM202.365 48.524H217.053V50.19H202.365V48.524ZM203.351 35.196H208.111V36.845H203.351V35.196ZM207.465 35.196H207.805L208.162 35.111L209.488 35.774C208.23 39.106 205.544 41.537 202.688 42.914C202.416 42.489 201.872 41.792 201.464 41.435C203.997 40.364 206.53 38.052 207.465 35.536V35.196ZM211.341 34.618C212.514 37.389 214.894 39.854 217.852 40.976C217.376 41.384 216.781 42.149 216.475 42.676C213.347 41.248 211.018 38.528 209.607 35.162L211.341 34.618ZM202.535 38.256L203.623 37.134C204.388 37.559 205.323 38.222 205.765 38.732L204.626 39.973C204.184 39.463 203.266 38.732 202.535 38.256ZM213.959 34.72L215.489 35.808C214.554 36.607 213.449 37.44 212.599 37.984L211.375 37.032C212.191 36.454 213.313 35.468 213.959 34.72ZM215.88 36.709L217.376 37.763C216.407 38.613 215.234 39.497 214.333 40.058L213.109 39.106C213.993 38.494 215.183 37.491 215.88 36.709ZM206.7 43.407V44.903H212.514V43.407H206.7ZM204.711 41.775H214.622V46.518H204.711V41.775ZM205.697 46.739L207.567 46.263C208.009 46.875 208.383 47.742 208.536 48.32L206.581 48.881C206.462 48.303 206.088 47.402 205.697 46.739ZM211.766 46.246L213.738 46.671C213.313 47.504 212.922 48.269 212.582 48.813L210.797 48.405C211.137 47.81 211.562 46.892 211.766 46.246ZM222.238 35.519H227.049V37.593H222.238V35.519ZM226.046 35.519H228.154C228.154 38.749 228.613 45.005 234.92 48.694C234.444 49.068 233.628 49.969 233.271 50.479C226.794 46.586 226.046 38.987 226.046 35.519ZM225.315 39.242L227.661 39.667C226.471 44.716 224.21 48.371 220.657 50.513C220.283 50.071 219.331 49.221 218.804 48.847C222.357 47.045 224.397 43.747 225.315 39.242Z" fill="#0E1012"/>
<g clip-path="url(#clip0_1004_4618)">
<path d="M79 41C79 25.5361 66.4639 13 51 13C35.5361 13 23 25.5359 23 41C23 54.9755 33.2392 66.5594 46.625 68.6598V49.0937H39.5156V41H46.625V34.8312C46.625 27.8137 50.8053 23.9375 57.2009 23.9375C60.2645 23.9375 63.4688 24.4844 63.4688 24.4844V31.375H59.9381C56.4596 31.375 55.375 33.5334 55.375 35.7478V41H63.1406L61.8992 49.0937H55.375V68.6598C68.7608 66.5594 79 54.9757 79 41Z" fill="#1877F2"/>
<path d="M61.8992 49.0938L63.1406 41H55.375V35.7478C55.375 33.5332 56.4598 31.375 59.9381 31.375H63.4688V24.4844C63.4688 24.4844 60.2645 23.9375 57.2009 23.9375C50.8053 23.9375 46.625 27.8138 46.625 34.8313V41H39.5156V49.0938H46.625V68.6598C48.0723 68.8867 49.535 69.0004 51 69C52.465 69.0004 53.9277 68.8867 55.375 68.6598V49.0938H61.8992Z" fill="white"/>
</g>
<defs>
<clipPath id="clip0_1004_4618">
<rect width="56" height="56" fill="white" transform="translate(23 13)"/>
</clipPath>
</defs>
</svg>
