<svg width="320" height="85" viewBox="0 0 320 85" fill="none" xmlns="http://www.w3.org/2000/svg">
<rect x="0.5" y="0.5" width="319" height="84" rx="23.5" fill="white" stroke="#D7DEEA"/>
<path d="M290.866 49.3996L297.266 42.9996L290.866 36.5996" stroke="#1C6BA4" stroke-width="1.5" stroke-linecap="square"/>
<path d="M96.627 36.233H107.473V38.086H96.627V36.233ZM98.854 40.942V42.625H105.059V40.942H98.854ZM97.001 39.276H107.014V44.291H97.001V39.276ZM98.599 44.461C100.112 46.909 103.325 48.286 107.728 48.694C107.303 49.136 106.793 49.952 106.538 50.513C101.931 49.884 98.786 48.167 96.933 44.971L98.599 44.461ZM100.928 34.669H102.934V42.438C102.934 45.906 102.067 49.068 97.188 50.53C96.95 50.071 96.355 49.255 95.913 48.83C100.486 47.81 100.928 45.209 100.928 42.421V34.669ZM95.335 34.516L97.239 35.128C96.083 38.018 94.213 41.061 92.275 42.982C92.105 42.506 91.561 41.384 91.221 40.891C92.836 39.361 94.417 36.947 95.335 34.516ZM93.686 39.259L95.607 37.321L95.624 37.338V50.564H93.686V39.259ZM111.74 35.706H122.178V37.644H111.74V35.706ZM111.74 39.616H122.212V41.52H111.74V39.616ZM111.706 43.628H122.28V45.549H111.706V43.628ZM110.567 35.706H112.59V41.826C112.59 44.529 112.25 48.354 110.159 50.632C109.836 50.241 109.003 49.561 108.561 49.306C110.414 47.249 110.567 44.206 110.567 41.809V35.706ZM121.464 35.706H123.487V48.133C123.487 49.221 123.249 49.765 122.569 50.088C121.855 50.411 120.835 50.445 119.288 50.428C119.203 49.884 118.897 49 118.625 48.473C119.594 48.541 120.716 48.524 121.022 48.524C121.345 48.507 121.464 48.405 121.464 48.116V35.706ZM115.803 36.471H117.877V50.326H115.803V36.471ZM132.412 49.17C131.086 49.17 129.964 48.9207 129.046 48.422C128.139 47.9233 127.448 47.215 126.972 46.297C126.496 45.379 126.258 44.291 126.258 43.033C126.258 41.7637 126.502 40.67 126.989 39.752C127.476 38.8227 128.179 38.1087 129.097 37.61C130.015 37.1 131.114 36.845 132.395 36.845C133.234 36.845 134.021 36.9697 134.758 37.219C135.495 37.457 136.107 37.7913 136.594 38.222L135.863 39.922C135.33 39.5027 134.786 39.2023 134.231 39.021C133.676 38.8397 133.064 38.749 132.395 38.749C131.126 38.749 130.162 39.1173 129.505 39.854C128.859 40.5907 128.536 41.6503 128.536 43.033C128.536 44.427 128.87 45.4867 129.539 46.212C130.208 46.9373 131.199 47.3 132.514 47.3C132.888 47.3 133.268 47.2717 133.653 47.215C134.05 47.147 134.441 47.0507 134.826 46.926V44.138H132.072V42.523H136.645V48.286C136.09 48.558 135.432 48.7733 134.673 48.932C133.914 49.0907 133.16 49.17 132.412 49.17ZM142.924 49.17C142.062 49.17 141.314 48.9943 140.68 48.643C140.045 48.2917 139.552 47.793 139.201 47.147C138.849 46.4897 138.674 45.719 138.674 44.835C138.674 43.951 138.849 43.186 139.201 42.54C139.552 41.894 140.045 41.3953 140.68 41.044C141.314 40.6927 142.062 40.517 142.924 40.517C143.785 40.517 144.533 40.6927 145.168 41.044C145.802 41.3953 146.295 41.894 146.647 42.54C146.998 43.186 147.174 43.951 147.174 44.835C147.174 45.719 146.998 46.4897 146.647 47.147C146.295 47.793 145.802 48.2917 145.168 48.643C144.533 48.9943 143.785 49.17 142.924 49.17ZM142.924 47.555C143.558 47.555 144.068 47.3283 144.454 46.875C144.839 46.4103 145.032 45.7303 145.032 44.835C145.032 43.9283 144.839 43.254 144.454 42.812C144.068 42.3587 143.558 42.132 142.924 42.132C142.289 42.132 141.779 42.3587 141.394 42.812C141.008 43.254 140.816 43.9283 140.816 44.835C140.816 45.7303 141.008 46.4103 141.394 46.875C141.779 47.3283 142.289 47.555 142.924 47.555ZM152.889 49.17C152.027 49.17 151.279 48.9943 150.645 48.643C150.01 48.2917 149.517 47.793 149.166 47.147C148.814 46.4897 148.639 45.719 148.639 44.835C148.639 43.951 148.814 43.186 149.166 42.54C149.517 41.894 150.01 41.3953 150.645 41.044C151.279 40.6927 152.027 40.517 152.889 40.517C153.75 40.517 154.498 40.6927 155.133 41.044C155.767 41.3953 156.26 41.894 156.612 42.54C156.963 43.186 157.139 43.951 157.139 44.835C157.139 45.719 156.963 46.4897 156.612 47.147C156.26 47.793 155.767 48.2917 155.133 48.643C154.498 48.9943 153.75 49.17 152.889 49.17ZM152.889 47.555C153.523 47.555 154.033 47.3283 154.419 46.875C154.804 46.4103 154.997 45.7303 154.997 44.835C154.997 43.9283 154.804 43.254 154.419 42.812C154.033 42.3587 153.523 42.132 152.889 42.132C152.254 42.132 151.744 42.3587 151.359 42.812C150.973 43.254 150.781 43.9283 150.781 44.835C150.781 45.7303 150.973 46.4103 151.359 46.875C151.744 47.3283 152.254 47.555 152.889 47.555ZM162.938 52.23C162.168 52.23 161.442 52.1393 160.762 51.958C160.094 51.788 159.504 51.5217 158.994 51.159L159.606 49.68C160.082 49.9973 160.592 50.2297 161.136 50.377C161.68 50.5357 162.224 50.615 162.768 50.615C164.287 50.615 165.046 49.884 165.046 48.422V47.283C164.808 47.7477 164.44 48.116 163.941 48.388C163.454 48.66 162.91 48.796 162.309 48.796C161.561 48.796 160.91 48.626 160.354 48.286C159.799 47.9347 159.368 47.4473 159.062 46.824C158.756 46.2007 158.603 45.4753 158.603 44.648C158.603 43.8207 158.756 43.101 159.062 42.489C159.368 41.8657 159.799 41.384 160.354 41.044C160.91 40.6927 161.561 40.517 162.309 40.517C162.933 40.517 163.488 40.6587 163.975 40.942C164.463 41.214 164.82 41.5823 165.046 42.047V40.687H167.12V48.167C167.12 49.5157 166.763 50.53 166.049 51.21C165.335 51.89 164.298 52.23 162.938 52.23ZM162.887 47.181C163.545 47.181 164.066 46.9543 164.451 46.501C164.837 46.0477 165.029 45.43 165.029 44.648C165.029 43.866 164.837 43.254 164.451 42.812C164.066 42.3587 163.545 42.132 162.887 42.132C162.23 42.132 161.709 42.3587 161.323 42.812C160.938 43.254 160.745 43.866 160.745 44.648C160.745 45.43 160.938 46.0477 161.323 46.501C161.709 46.9543 162.23 47.181 162.887 47.181ZM172.382 49.17C171.396 49.17 170.665 48.9037 170.189 48.371C169.725 47.827 169.492 47.0337 169.492 45.991V37.015H171.617V45.889C171.617 46.909 172.048 47.419 172.909 47.419C173.034 47.419 173.159 47.4133 173.283 47.402C173.408 47.3907 173.527 47.368 173.64 47.334L173.606 49.017C173.198 49.119 172.79 49.17 172.382 49.17ZM179.105 49.17C178.164 49.17 177.354 48.9943 176.674 48.643C175.994 48.2917 175.467 47.793 175.093 47.147C174.73 46.501 174.549 45.736 174.549 44.852C174.549 43.9907 174.725 43.237 175.076 42.591C175.439 41.945 175.932 41.4407 176.555 41.078C177.19 40.704 177.909 40.517 178.714 40.517C179.893 40.517 180.822 40.891 181.502 41.639C182.193 42.387 182.539 43.407 182.539 44.699V45.328H176.589C176.748 46.8127 177.598 47.555 179.139 47.555C179.604 47.555 180.068 47.487 180.533 47.351C180.998 47.2037 181.423 46.977 181.808 46.671L182.403 48.099C182.006 48.4277 181.508 48.6883 180.907 48.881C180.306 49.0737 179.706 49.17 179.105 49.17ZM178.799 41.962C178.176 41.962 177.671 42.1547 177.286 42.54C176.901 42.9253 176.668 43.4467 176.589 44.104H180.771C180.726 43.4127 180.533 42.8857 180.193 42.523C179.864 42.149 179.4 41.962 178.799 41.962ZM188.659 39.106H194.949V40.806H188.659V39.106ZM184.477 48.524H199.165V50.19H184.477V48.524ZM185.463 35.196H190.223V36.845H185.463V35.196ZM189.577 35.196H189.917L190.274 35.111L191.6 35.774C190.342 39.106 187.656 41.537 184.8 42.914C184.528 42.489 183.984 41.792 183.576 41.435C186.109 40.364 188.642 38.052 189.577 35.536V35.196ZM193.453 34.618C194.626 37.389 197.006 39.854 199.964 40.976C199.488 41.384 198.893 42.149 198.587 42.676C195.459 41.248 193.13 38.528 191.719 35.162L193.453 34.618ZM184.647 38.256L185.735 37.134C186.5 37.559 187.435 38.222 187.877 38.732L186.738 39.973C186.296 39.463 185.378 38.732 184.647 38.256ZM196.071 34.72L197.601 35.808C196.666 36.607 195.561 37.44 194.711 37.984L193.487 37.032C194.303 36.454 195.425 35.468 196.071 34.72ZM197.992 36.709L199.488 37.763C198.519 38.613 197.346 39.497 196.445 40.058L195.221 39.106C196.105 38.494 197.295 37.491 197.992 36.709ZM188.812 43.407V44.903H194.626V43.407H188.812ZM186.823 41.775H196.734V46.518H186.823V41.775ZM187.809 46.739L189.679 46.263C190.121 46.875 190.495 47.742 190.648 48.32L188.693 48.881C188.574 48.303 188.2 47.402 187.809 46.739ZM193.878 46.246L195.85 46.671C195.425 47.504 195.034 48.269 194.694 48.813L192.909 48.405C193.249 47.81 193.674 46.892 193.878 46.246ZM204.35 35.519H209.161V37.593H204.35V35.519ZM208.158 35.519H210.266C210.266 38.749 210.725 45.005 217.032 48.694C216.556 49.068 215.74 49.969 215.383 50.479C208.906 46.586 208.158 38.987 208.158 35.519ZM207.427 39.242L209.773 39.667C208.583 44.716 206.322 48.371 202.769 50.513C202.395 50.071 201.443 49.221 200.916 48.847C204.469 47.045 206.509 43.747 207.427 39.242Z" fill="#0E1012"/>
<path d="M70.8798 38.4305H69.0003V38.3337H48.0003V47.667H61.1872C59.2633 53.1002 54.0938 57.0003 48.0003 57.0003C40.2688 57.0003 34.0003 50.7318 34.0003 43.0003C34.0003 35.2688 40.2688 29.0003 48.0003 29.0003C51.5692 29.0003 54.816 30.3467 57.2882 32.5458L63.888 25.946C59.7207 22.0622 54.1463 19.667 48.0003 19.667C35.1145 19.667 24.667 30.1145 24.667 43.0003C24.667 55.8862 35.1145 66.3337 48.0003 66.3337C60.8862 66.3337 71.3337 55.8862 71.3337 43.0003C71.3337 41.4358 71.1727 39.9087 70.8798 38.4305Z" fill="#FFC107"/>
<path d="M27.3574 32.1398L35.0236 37.762C37.0979 32.6263 42.1216 29.0003 48.0004 29.0003C51.5693 29.0003 54.8161 30.3467 57.2883 32.5458L63.8881 25.946C59.7208 22.0622 54.1464 19.667 48.0004 19.667C39.0381 19.667 31.2658 24.7268 27.3574 32.1398Z" fill="#FF3D00"/>
<path d="M48 66.3332C54.027 66.3332 59.5034 64.0267 63.6439 60.2758L56.4222 54.1648C54.0008 56.0063 51.0421 57.0022 48 56.9998C41.931 56.9998 36.7779 53.13 34.8365 47.7295L27.2275 53.592C31.0892 61.1485 38.9315 66.3332 48 66.3332Z" fill="#4CAF50"/>
<path d="M70.8795 38.4298H69V38.333H48V47.6663H61.1868C60.2666 50.2522 58.6089 52.5117 56.4187 54.1658L56.4222 54.1635L63.6438 60.2745C63.1328 60.7388 71.3333 54.6663 71.3333 42.9997C71.3333 41.4352 71.1723 39.908 70.8795 38.4298Z" fill="#1976D2"/>
</svg>
