<svg width="176" height="43" viewBox="0 0 176 43" fill="none" xmlns="http://www.w3.org/2000/svg">
<path d="M0 21.5C0 9.62588 9.62588 0 21.5 0H154.5C166.374 0 176 9.62588 176 21.5V21.5C176 33.3741 166.374 43 154.5 43H21.5C9.62587 43 0 33.3741 0 21.5V21.5Z" fill="#B19191"/>
<path d="M70.23 12.94H75.49V14.14H70.23V12.94ZM70.03 18.34H75.67V19.54H70.03V18.34ZM70.03 21.02H75.67V22.22H70.03V21.02ZM68.99 15.58H76.73V16.84H68.99V15.58ZM77.01 16.16H87.01V17.58H77.01V16.16ZM76.43 28.56H87.39V29.98H76.43V28.56ZM77.35 22.06H86.71V23.46H77.35V22.06ZM70.67 23.7H75.83V29.32H70.67V28.14H74.41V24.88H70.67V23.7ZM69.91 23.7H71.29V30.3H69.91V23.7ZM81.15 12.26H82.65V16.84H81.15V12.26ZM81.15 16.64H82.65V29.3H81.15V16.64ZM90.57 13.44H104.55V14.92H92.05V30.66H90.57V13.44ZM103.77 13.44H105.27V28.82C105.27 29.62 105.11 30.06 104.59 30.32C104.09 30.58 103.31 30.62 102.13 30.62C102.09 30.22 101.87 29.54 101.65 29.14C102.47 29.18 103.23 29.16 103.45 29.16C103.69 29.16 103.77 29.06 103.77 28.8V13.44ZM88.61 20.68H107.05V22.14H88.61V20.68ZM94.91 13.94H96.31V30.4H94.91V13.94ZM99.31 13.94H100.73V30.4H99.31V13.94Z" fill="white"/>
</svg>
