<svg width="123" height="46" viewBox="0 0 123 46" fill="none" xmlns="http://www.w3.org/2000/svg">
<path d="M0 22C0 9.84974 9.84974 0 22 0H101C113.15 0 123 9.84974 123 22V24C123 36.1503 113.15 46 101 46H22C9.84974 46 0 36.1503 0 24V22Z" fill="#C8AFAF"/>
<path d="M50.6702 20.7243C50.6134 20.22 50.379 19.8294 49.9671 19.5524C49.5552 19.2718 49.0367 19.1316 48.4117 19.1316C47.9642 19.1316 47.5772 19.2026 47.2505 19.3446C46.9238 19.4831 46.6699 19.6749 46.4887 19.9199C46.3112 20.1614 46.2224 20.4366 46.2224 20.7456C46.2224 21.0048 46.2828 21.2285 46.4035 21.4167C46.5278 21.6049 46.6894 21.763 46.8882 21.8908C47.0907 22.0151 47.3073 22.1199 47.5381 22.2051C47.7689 22.2868 47.9909 22.3542 48.2039 22.4075L49.2693 22.6845C49.6173 22.7697 49.9742 22.8851 50.34 23.0307C50.7057 23.1763 51.0449 23.3681 51.3574 23.606C51.6699 23.8439 51.922 24.1387 52.1137 24.4902C52.3091 24.8418 52.4067 25.2626 52.4067 25.7527C52.4067 26.3706 52.2469 26.9192 51.9273 27.3986C51.6113 27.878 51.1514 28.2562 50.5477 28.5332C49.9476 28.8102 49.2213 28.9487 48.3691 28.9487C47.5523 28.9487 46.8456 28.8191 46.249 28.5598C45.6525 28.3006 45.1855 27.9331 44.8481 27.4572C44.5108 26.9778 44.3243 26.4096 44.2888 25.7527H45.9401C45.9721 26.1468 46.0999 26.4753 46.3236 26.7381C46.5509 26.9973 46.8403 27.1909 47.1919 27.3187C47.547 27.443 47.9358 27.5051 48.3584 27.5051C48.8236 27.5051 49.2373 27.4324 49.5995 27.2868C49.9653 27.1376 50.253 26.9316 50.4625 26.6689C50.672 26.4025 50.7767 26.0918 50.7767 25.7367C50.7767 25.4135 50.6844 25.149 50.4998 24.943C50.3186 24.737 50.0718 24.5666 49.7593 24.4316C49.4504 24.2967 49.1006 24.1777 48.71 24.0748L47.4209 23.7232C46.5473 23.4853 45.8549 23.1355 45.3435 22.6738C44.8357 22.2122 44.5818 21.6014 44.5818 20.8414C44.5818 20.2129 44.7522 19.6642 45.0932 19.1955C45.4341 18.7267 45.8957 18.3627 46.4781 18.1035C47.0605 17.8407 47.7174 17.7093 48.449 17.7093C49.1876 17.7093 49.8392 17.839 50.4039 18.0982C50.9721 18.3574 51.4195 18.7143 51.7462 19.1689C52.0729 19.6199 52.2434 20.1383 52.2576 20.7243H50.6702ZM57.487 28.9327C56.6809 28.9327 55.9867 28.7605 55.4043 28.416C54.8255 28.068 54.378 27.5797 54.062 26.9512C53.7495 26.3191 53.5932 25.5787 53.5932 24.7299C53.5932 23.8919 53.7495 23.1532 54.062 22.514C54.378 21.8748 54.8184 21.3759 55.383 21.0172C55.9512 20.6586 56.6152 20.4792 57.3752 20.4792C57.8368 20.4792 58.2843 20.5556 58.7175 20.7083C59.1507 20.861 59.5396 21.1007 59.8841 21.4274C60.2285 21.7541 60.5002 22.1784 60.699 22.7005C60.8979 23.2189 60.9973 23.8493 60.9973 24.5914V25.1561H54.4934V23.9629H59.4366C59.4366 23.5439 59.3514 23.1728 59.1809 22.8496C59.0105 22.5229 58.7708 22.2654 58.4618 22.0772C58.1564 21.889 57.7978 21.7949 57.3858 21.7949C56.9384 21.7949 56.5478 21.905 56.214 22.1252C55.8837 22.3418 55.628 22.6259 55.4469 22.9775C55.2694 23.3255 55.1806 23.7037 55.1806 24.112V25.0442C55.1806 25.5911 55.2765 26.0563 55.4682 26.4398C55.6635 26.8233 55.9352 27.1163 56.2832 27.3187C56.6312 27.5176 57.0378 27.617 57.503 27.617C57.8049 27.617 58.0801 27.5744 58.3287 27.4892C58.5772 27.4004 58.7921 27.269 58.9732 27.095C59.1543 26.921 59.2928 26.7061 59.3887 26.4505L60.8961 26.7221C60.7754 27.166 60.5588 27.5549 60.2463 27.8887C59.9373 28.2189 59.5485 28.4764 59.0797 28.661C58.6145 28.8422 58.0836 28.9327 57.487 28.9327ZM64.0722 23.9096V28.7676H62.4795V20.5858H64.0082V21.9174H64.1094C64.2977 21.4842 64.5924 21.1362 64.9937 20.8734C65.3985 20.6106 65.9081 20.4792 66.5224 20.4792C67.08 20.4792 67.5683 20.5964 67.9873 20.8308C68.4063 21.0616 68.7312 21.4061 68.9621 21.8642C69.1929 22.3223 69.3083 22.8887 69.3083 23.5634V28.7676H67.7156V23.7551C67.7156 23.1621 67.5611 22.6987 67.2522 22.3649C66.9433 22.0275 66.5189 21.8588 65.9791 21.8588C65.6098 21.8588 65.2813 21.9387 64.9937 22.0985C64.7096 22.2583 64.4841 22.4927 64.3172 22.8017C64.1538 23.1071 64.0722 23.4764 64.0722 23.9096ZM74.2222 28.9274C73.5617 28.9274 72.9722 28.7587 72.4537 28.4213C71.9388 28.0804 71.534 27.5957 71.2392 26.9672C70.948 26.335 70.8024 25.5769 70.8024 24.6926C70.8024 23.8084 70.9498 23.052 71.2445 22.4235C71.5428 21.7949 71.9512 21.3137 72.4697 20.9799C72.9881 20.6461 73.5759 20.4792 74.2328 20.4792C74.7406 20.4792 75.149 20.5645 75.458 20.7349C75.7705 20.9018 76.0119 21.0971 76.1824 21.3208C76.3564 21.5446 76.4913 21.7417 76.5872 21.9121H76.6831V17.8585H78.2758V28.7676H76.7204V27.4945H76.5872C76.4913 27.6685 76.3529 27.8674 76.1717 28.0911C75.9942 28.3148 75.7492 28.5101 75.4367 28.677C75.1242 28.8439 74.7193 28.9274 74.2222 28.9274ZM74.5737 27.5691C75.0318 27.5691 75.4189 27.4483 75.735 27.2069C76.0546 26.9618 76.296 26.6227 76.4594 26.1895C76.6263 25.7562 76.7097 25.252 76.7097 24.6767C76.7097 24.1085 76.6281 23.6113 76.4647 23.1852C76.3014 22.7591 76.0617 22.427 75.7456 22.1891C75.4296 21.9512 75.0389 21.8322 74.5737 21.8322C74.0943 21.8322 73.6948 21.9565 73.3752 22.2051C73.0556 22.4537 72.8141 22.7928 72.6508 23.2225C72.491 23.6522 72.4111 24.1369 72.4111 24.6767C72.4111 25.2235 72.4928 25.7154 72.6561 26.1522C72.8195 26.589 73.0609 26.9352 73.3805 27.1909C73.7037 27.443 74.1014 27.5691 74.5737 27.5691Z" fill="white"/>
</svg>
