<svg width="335" height="68" viewBox="0 0 335 68" fill="none" xmlns="http://www.w3.org/2000/svg">
<path fill-rule="evenodd" clip-rule="evenodd" d="M0 12C0 5.37258 5.37258 0 12 0H323C329.627 0 335 5.37258 335 12V56C335 62.6274 329.627 68 323 68H12C5.37259 68 0 62.6274 0 56V12Z" fill="white"/>
<path d="M32 44C37.5228 44 42 39.5228 42 34C42 28.4772 37.5228 24 32 24C26.4772 24 22 28.4772 22 34C22 39.5228 26.4772 44 32 44Z" stroke="#4A545E" stroke-width="2" stroke-linecap="round" stroke-linejoin="round"/>
<path d="M36.24 29.7598L34.12 36.1198L27.76 38.2398L29.88 31.8798L36.24 29.7598Z" stroke="#4A545E" stroke-width="2" stroke-linecap="round" stroke-linejoin="round"/>
<path d="M70.272 31.54V34.654H73.458V31.54H70.272ZM68.238 29.65H75.618V36.526H68.238V29.65ZM64.278 25.33H79.722V41.62H77.382V27.526H66.51V41.62H64.278V25.33ZM65.538 38.632H78.714V40.648H65.538V38.632ZM81.918 25.852H91.098V27.778H81.918V25.852ZM82.458 34.42H90.54V36.346H82.458V34.42ZM85.446 32.674H87.588V39.46L85.446 39.784V32.674ZM81.72 39.046C84.114 38.83 87.768 38.398 91.134 38.002L91.188 40.018C87.966 40.45 84.51 40.9 82.044 41.206L81.72 39.046ZM81.882 30.496C83.952 30.46 87.084 30.37 90.09 30.262L90.036 32.116C87.174 32.278 84.168 32.404 82.008 32.494L81.882 30.496ZM87.408 28.93L89.01 28.084C90.018 29.308 91.17 30.964 91.62 32.098L89.91 33.07C89.496 31.954 88.398 30.208 87.408 28.93ZM84.474 27.022L86.814 27.508C86.184 29.038 85.482 30.766 84.888 31.882L83.07 31.396C83.592 30.208 84.186 28.354 84.474 27.022ZM91.764 26.914H93.834V37.102H91.764V26.914ZM95.868 25.222H97.974V39.046C97.974 40.27 97.74 40.864 97.02 41.206C96.3 41.548 95.13 41.62 93.6 41.62C93.51 41.008 93.204 40.036 92.898 39.424C93.978 39.478 95.076 39.46 95.436 39.46C95.76 39.442 95.868 39.352 95.868 39.028V25.222ZM107.532 33.088H114.66V34.906H107.532V33.088ZM107.514 36.256H114.66V38.056H107.514V36.256ZM114.48 25.132L116.586 25.87C115.992 27.13 115.326 28.408 114.768 29.272L112.896 28.57C113.436 27.652 114.12 26.23 114.48 25.132ZM105.534 26.068L107.352 25.258C108.072 26.248 108.846 27.58 109.116 28.498L107.172 29.416C106.938 28.498 106.236 27.112 105.534 26.068ZM106.092 29.74H114.696V31.756H108.216V41.602H106.092V29.74ZM113.688 29.74H115.794V39.28C115.794 40.306 115.596 40.882 114.93 41.224C114.246 41.548 113.274 41.566 111.924 41.566C111.834 40.99 111.546 40.108 111.276 39.55C112.104 39.586 113.058 39.586 113.328 39.586C113.598 39.568 113.688 39.496 113.688 39.262V29.74ZM109.926 24.7H112.104V31.09H109.926V24.7ZM100.692 26.374L101.952 24.862C103.068 25.402 104.49 26.248 105.192 26.932L103.842 28.588C103.212 27.922 101.808 26.968 100.692 26.374ZM99.864 31.162L101.088 29.632C102.222 30.154 103.68 31.018 104.4 31.702L103.104 33.394C102.438 32.71 101.016 31.756 99.864 31.162ZM100.368 40.144C101.25 38.776 102.492 36.49 103.464 34.384L105.048 35.68C104.238 37.624 103.23 39.712 102.258 41.53L100.368 40.144ZM120.726 27.49H131.436V26.788H119.43V25.51H133.398V28.768H120.726V27.49ZM120.096 27.49H122.112C121.734 28.66 121.284 29.992 120.924 30.892L118.962 30.766C119.358 29.866 119.79 28.57 120.096 27.49ZM120.294 29.452H133.236V30.73H119.898L120.294 29.452ZM132.534 29.452H134.55C134.55 29.452 134.532 29.812 134.532 30.028C134.442 31.198 134.334 31.828 134.028 32.17C133.758 32.458 133.362 32.584 132.984 32.62C132.624 32.638 131.976 32.638 131.274 32.602C131.256 32.242 131.076 31.666 130.896 31.306C131.346 31.36 131.706 31.378 131.904 31.378C132.066 31.378 132.174 31.36 132.282 31.252C132.408 31.09 132.462 30.676 132.534 29.686V29.452ZM123.534 24.718H125.496V28.444C125.496 31 124.632 32.944 119.286 33.736C119.106 33.268 118.62 32.458 118.26 32.08C122.886 31.468 123.534 30.172 123.534 28.39V24.718ZM127.512 24.718H129.564V31.972H127.512V24.718ZM122.724 35.014V35.752H130.5V35.014H122.724ZM122.724 36.904V37.642H130.5V36.904H122.724ZM122.724 33.142V33.862H130.5V33.142H122.724ZM120.636 31.918H132.696V38.866H120.636V31.918ZM127.53 39.73L129.276 38.65C131.202 39.244 133.452 40.054 134.748 40.612L132.336 41.656C131.292 41.098 129.402 40.342 127.53 39.73ZM123.57 38.65L125.496 39.532C124.02 40.414 121.698 41.224 119.862 41.692C119.502 41.26 118.764 40.486 118.296 40.126C120.204 39.82 122.346 39.28 123.57 38.65ZM136.602 30.172H152.802V32.08H136.602V30.172ZM138.168 26.662H148.464V28.534H138.168V26.662ZM141.336 36.454H149.382V38.074H141.336V36.454ZM141.336 39.28H149.382V41.098H141.336V39.28ZM142.416 24.718H144.54V31.234H142.416V24.718ZM150.336 25.24L152.19 26.194C148.662 31.108 143.172 34.726 137.34 36.868C137.088 36.4 136.44 35.5 136.044 35.068C141.894 33.196 147.186 29.758 150.336 25.24ZM140.13 33.52H150.75V41.566H148.5V35.284H142.29V41.638H140.13V33.52ZM162.828 26.878C161.424 29.182 158.67 31.666 155.646 33.268C155.376 32.728 154.764 31.918 154.296 31.468C157.5 29.938 160.308 27.058 161.55 24.664H163.89C165.744 27.706 168.606 30.082 171.558 31.216C171 31.792 170.514 32.53 170.118 33.196C167.238 31.738 164.286 29.218 162.828 26.878ZM164.826 31.306H167.076V41.62H164.826V31.306ZM158.616 31.396H160.83V33.628C160.83 36.184 160.47 39.406 156.924 41.62C156.546 41.152 155.7 40.432 155.124 40.09C158.292 38.2 158.616 35.662 158.616 33.574V31.396ZM178.56 32.656H183.186V34.348H178.56V32.656ZM178.56 35.68H183.204V37.372H178.56V35.68ZM175.068 38.722H187.218V40.702H175.068V38.722ZM173.718 29.416H188.424V41.62H186.228V31.396H175.788V41.62H173.718V29.416ZM177.642 30.73H179.568V39.604H177.642V30.73ZM182.34 30.73H184.284V39.586H182.34V30.73ZM179.676 26.68L182.232 27.22C181.8 28.552 181.404 29.956 181.044 30.892L179.064 30.37C179.316 29.326 179.604 27.814 179.676 26.68ZM172.962 25.744H189.234V27.796H172.962V25.744Z" fill="#0E1012"/>
</svg>
