<svg width="25" height="48" viewBox="0 0 25 48" fill="none" xmlns="http://www.w3.org/2000/svg">
<path d="M13.0206 0.192595C12.721 -0.0641982 12.279 -0.0641982 11.9794 0.192595L0.5 10.0321V21.6C0.5 22.9255 1.57452 24 2.9 24H9.3C9.74183 24 10.1 23.6418 10.1 23.2V18.4C10.1 17.0745 11.1745 16 12.5 16C13.8255 16 14.9 17.0745 14.9 18.4V23.2C14.9 23.6418 15.2582 24 15.7 24H22.1C23.4255 24 24.5 22.9255 24.5 21.6V10.0321L13.0206 0.192595Z" fill="#7B8D9E"/>
<path d="M2.712 39.524H9.312V40.256H2.712V39.524ZM2.712 41.492H9.312V42.212H2.712V41.492ZM2.712 43.472H9.348V44.276H2.712V43.472ZM0.636 35.588H11.376V36.428H0.636V35.588ZM2.004 37.544H9.984V44.96H9.06V38.336H2.904V44.96H2.004V37.544ZM5.556 36.02L6.66 36.092C6.432 36.8 6.144 37.556 5.928 38.072L5.052 37.94C5.256 37.4 5.46 36.584 5.556 36.02ZM8.412 33.908L9.408 34.172C8.976 34.82 8.448 35.492 8.016 35.948L7.236 35.696C7.644 35.204 8.136 34.448 8.412 33.908ZM2.724 34.232L3.516 33.884C3.96 34.304 4.428 34.904 4.668 35.312L3.828 35.744C3.624 35.324 3.144 34.688 2.724 34.232ZM15.168 38.972V40.076H21.228V38.972H15.168ZM15.168 40.772V41.876H21.228V40.772H15.168ZM15.168 37.196V38.276H21.228V37.196H15.168ZM14.232 36.476H22.188V42.596H14.232V36.476ZM19.008 43.388L19.644 42.8C21.06 43.268 22.596 43.892 23.532 44.36L22.692 44.972C21.84 44.504 20.412 43.868 19.008 43.388ZM13.092 34.544H23.112V35.372H13.092V34.544ZM17.664 34.892L18.72 35.024C18.516 35.708 18.288 36.44 18.096 36.932L17.244 36.776C17.412 36.248 17.592 35.444 17.664 34.892ZM16.428 42.74L17.244 43.328C16.2 43.964 14.568 44.6 13.284 44.96C13.14 44.768 12.864 44.456 12.66 44.264C13.956 43.916 15.6 43.292 16.428 42.74Z" fill="#7B8D9E"/>
</svg>
