<svg width="25" height="48" viewBox="0 0 25 48" fill="none" xmlns="http://www.w3.org/2000/svg">
<path d="M18.3 10.8H6.3V13.2H18.3V10.8ZM20.7 2.4H19.5V0H17.1V2.4H7.5V0H5.1V2.4H3.9C2.568 2.4 1.512 3.48 1.512 4.8L1.5 21.6C1.5 22.92 2.568 24 3.9 24H20.7C22.02 24 23.1 22.92 23.1 21.6V4.8C23.1 3.48 22.02 2.4 20.7 2.4ZM20.7 21.6H3.9V8.4H20.7V21.6ZM14.7 15.6H6.3V18H14.7V15.6Z" fill="#1C6BA4"/>
<path d="M5.052 35.36H11.052V36.152H5.052V35.36ZM4.536 37.688H11.568V38.492H4.536V37.688ZM4.596 39.86H11.436V40.664H4.596V39.86ZM7.572 33.92H8.46V38.18H7.572V33.92ZM9.156 38.372H10.032V43.892C10.032 44.408 9.912 44.672 9.54 44.804C9.168 44.936 8.556 44.948 7.596 44.948C7.56 44.708 7.416 44.348 7.284 44.108C8.028 44.132 8.7 44.132 8.892 44.12C9.096 44.108 9.156 44.06 9.156 43.88V38.372ZM5.328 41.504L6.048 41.072C6.672 41.696 7.344 42.548 7.632 43.136L6.852 43.616C6.588 43.028 5.94 42.128 5.328 41.504ZM1.332 34.712H4.332V42.596H1.332V41.78H3.492V35.528H1.332V34.712ZM1.368 38.204H3.888V39.008H1.368V38.204ZM0.9 34.712H1.752V43.58H0.9V34.712ZM19.848 39.584H20.736V44.384H19.848V39.584ZM17.208 39.26H23.412V40.052H17.208V39.26ZM16.692 43.844H23.676V44.648H16.692V43.844ZM17.496 41.492H23.136V42.272H17.496V41.492ZM18.504 35.204V37.424H22.116V35.204H18.504ZM17.664 34.424H22.992V38.204H17.664V34.424ZM14.664 34.916H15.54V44.936H14.664V34.916ZM12.696 37.304H17.052V38.156H12.696V37.304ZM14.712 37.628L15.276 37.868C14.796 39.56 13.836 41.66 12.912 42.776C12.828 42.524 12.612 42.152 12.456 41.948C13.32 40.988 14.28 39.116 14.712 37.628ZM16.44 34.1L17.076 34.796C15.972 35.24 14.292 35.576 12.9 35.768C12.852 35.564 12.732 35.276 12.624 35.072C13.98 34.844 15.564 34.508 16.44 34.1ZM15.504 38.852C15.804 39.116 16.932 40.256 17.172 40.556L16.644 41.264C16.356 40.772 15.456 39.632 15.084 39.212L15.504 38.852Z" fill="#1C6BA4"/>
</svg>
