<svg width="335" height="68" viewBox="0 0 335 68" fill="none" xmlns="http://www.w3.org/2000/svg">
<path fill-rule="evenodd" clip-rule="evenodd" d="M0 12C0 5.37258 5.37258 0 12 0H323C329.627 0 335 5.37258 335 12V56C335 62.6274 329.627 68 323 68H12C5.37259 68 0 62.6274 0 56V12Z" fill="white"/>
<g clip-path="url(#clip0_1177_5061)">
<path d="M31.9337 33.5331C33.7337 33.5331 35.1337 32.0664 35.1337 30.2664C35.1337 28.4664 33.667 27.0664 31.867 27.0664C30.067 27.0664 28.667 28.5331 28.667 30.2664C28.667 32.0664 30.1337 33.5331 31.9337 33.5331ZM31.867 28.3997C31.9337 28.3997 31.9337 28.3997 31.867 28.3997C32.9337 28.3997 33.8003 29.2664 33.8003 30.3331C33.8003 31.3997 32.9337 32.1997 31.867 32.1997C30.8003 32.1997 30.0003 31.3331 30.0003 30.3331C30.0003 29.2664 30.867 28.3997 31.867 28.3997Z" fill="#4A545E"/>
<path d="M41.8 33.1336C40.5333 32.0003 38.8667 31.4003 37.1333 31.4669H36.6C36.4667 32.0003 36.2667 32.4669 36 32.8669C36.4 32.8003 36.7333 32.8003 37.1333 32.8003C38.4 32.7336 39.6667 33.1336 40.6667 33.8669V38.6669H42V33.3336L41.8 33.1336Z" fill="#4A545E"/>
<path d="M35.6003 27.1995C35.9337 26.3995 36.867 25.9995 37.7337 26.3329C38.5337 26.6662 38.9337 27.5995 38.6003 28.4662C38.3337 29.0662 37.7337 29.4662 37.1337 29.4662C37.0003 29.4662 36.8003 29.4662 36.667 29.3995C36.7337 29.7329 36.7337 30.0662 36.7337 30.3329V30.7329C36.867 30.7329 37.0003 30.7995 37.1337 30.7995C38.8003 30.7995 40.1337 29.4662 40.1337 27.8662C40.1337 26.1995 38.8003 24.8662 37.2003 24.8662C36.1337 24.8662 35.2003 25.3995 34.667 26.3329C35.0003 26.5329 35.3337 26.7995 35.6003 27.1995Z" fill="#4A545E"/>
<path d="M28 32.9333C27.7333 32.5333 27.5333 32.0667 27.4 31.5333H26.8667C25.1333 31.4667 23.4667 32.0667 22.2 33.1333L22 33.3333V38.6667H23.3333V33.8667C24.4 33.1333 25.6 32.7333 26.8667 32.8C27.2667 32.8 27.6667 32.8667 28 32.9333Z" fill="#4A545E"/>
<path d="M26.8662 30.7331C26.9995 30.7331 27.1329 30.7331 27.2662 30.6664V30.2664C27.2662 29.9331 27.2662 29.5998 27.3329 29.3331C27.1995 29.3998 26.9995 29.3998 26.8662 29.3998C25.9995 29.3998 25.2662 28.6664 25.2662 27.7998C25.2662 26.9331 25.9995 26.1998 26.8662 26.1998C27.5329 26.1998 28.1329 26.5998 28.3995 27.1998C28.6662 26.8664 29.0662 26.5331 29.3995 26.2664C28.5329 24.8664 26.7329 24.3998 25.3329 25.2664C23.9329 26.1331 23.4662 27.9331 24.3329 29.3331C24.8662 30.1998 25.7995 30.7331 26.8662 30.7331Z" fill="#4A545E"/>
<path d="M37.4003 37.1333L37.267 36.9333C35.9337 35.4667 34.067 34.6 32.067 34.6667C30.067 34.6 28.1337 35.4667 26.8003 36.9333L26.667 37.1333V42.2C26.667 42.8 27.1337 43.3333 27.8003 43.3333H36.3337C36.9337 43.3333 37.467 42.8 37.467 42.2V37.1333H37.4003ZM36.067 42H28.0003V37.6C29.067 36.5333 30.5337 36 32.067 36C33.5337 35.9333 35.0003 36.5333 36.067 37.6V42Z" fill="#4A545E"/>
</g>
<path d="M74.016 37.912H78.642V40H74.016V37.912ZM63.882 27.94H70.488V30.064H63.882V27.94ZM73.062 26.77H79.614V41.116H77.436V28.858H75.132V41.26H73.062V26.77ZM69.948 27.94H72.036C72.036 27.94 72.036 28.66 72.036 28.93C71.874 36.634 71.748 39.406 71.172 40.252C70.758 40.846 70.38 41.062 69.786 41.17C69.246 41.296 68.436 41.296 67.608 41.26C67.572 40.63 67.338 39.694 66.978 39.082C67.698 39.154 68.346 39.154 68.688 39.154C68.958 39.172 69.12 39.082 69.3 38.83C69.678 38.29 69.822 35.698 69.948 28.426V27.94ZM66.024 24.97H68.148C68.13 32.062 68.058 38.038 64.944 41.62C64.602 41.098 63.882 40.378 63.342 40.036C66.15 36.868 66.006 31.558 66.024 24.97ZM85.302 25.726H90.396V27.922H85.302V25.726ZM89.334 25.726H91.566C91.566 29.146 92.052 35.77 98.73 39.676C98.226 40.072 97.362 41.026 96.984 41.566C90.126 37.444 89.334 29.398 89.334 25.726ZM88.56 29.668L91.044 30.118C89.784 35.464 87.39 39.334 83.628 41.602C83.232 41.134 82.224 40.234 81.666 39.838C85.428 37.93 87.588 34.438 88.56 29.668ZM103.104 40.144H113.67V41.278H103.104V40.144ZM103.104 38.596H113.67V39.658H103.104V38.596ZM100.53 33.394H116.334V34.762H100.53V33.394ZM101.412 35.338H115.434V41.62H113.4V36.454H103.356V41.62H101.412V35.338ZM103.824 26.356L105.048 26.644C104.778 27.4 104.274 28.174 103.752 28.696C103.518 28.516 102.996 28.192 102.69 28.048C103.212 27.58 103.59 26.968 103.824 26.356ZM109.044 28.552H114.228V29.776H109.044V28.552ZM103.878 27.148H107.874V28.12H103.878V27.148ZM102.834 28.66H108.18V29.686H102.834V28.66ZM110.322 25.15H113.526V26.59H110.322V25.15ZM113.85 28.552H114.174L114.48 28.516L115.506 28.858C114.534 31.45 112.23 32.656 109.368 33.25C109.206 32.872 108.846 32.278 108.558 31.954C111.024 31.576 113.112 30.568 113.85 28.75V28.552ZM111.024 29.65C111.942 30.982 113.976 31.72 116.622 31.954C116.244 32.296 115.776 32.998 115.56 33.466C112.626 33.052 110.574 31.954 109.422 30.046L111.024 29.65ZM109.548 25.15H111.186V26.14C111.186 27.202 110.79 28.282 109.116 29.02C108.918 28.66 108.288 27.976 107.982 27.742C109.35 27.256 109.548 26.698 109.548 26.068V25.15ZM112.752 25.15H114.408V26.518C114.408 26.752 114.39 26.878 114.444 26.932C114.48 26.986 114.534 27.004 114.606 27.004C114.678 27.004 114.804 27.004 114.894 27.004C114.966 27.004 115.056 27.004 115.092 26.968C115.146 26.95 115.2 26.914 115.236 26.788C115.272 26.68 115.29 26.428 115.308 26.122C115.596 26.374 116.136 26.644 116.55 26.77C116.496 27.202 116.424 27.634 116.298 27.814C116.19 28.012 115.992 28.156 115.74 28.264C115.542 28.354 115.218 28.372 114.966 28.372C114.75 28.372 114.408 28.372 114.192 28.372C113.814 28.372 113.346 28.264 113.112 27.994C112.86 27.742 112.752 27.418 112.752 26.518V25.15ZM104.922 27.616H106.254V28.84C106.254 29.776 105.84 30.964 103.662 31.72C103.482 31.414 103.104 31 102.798 30.748C104.67 30.298 104.922 29.434 104.922 28.804V27.616ZM105.876 34.186H107.514V35.824C107.514 37.012 106.884 38.128 104.382 38.794C104.166 38.434 103.734 37.912 103.374 37.624C105.516 37.264 105.876 36.49 105.876 35.806V34.186ZM108.99 34.168H110.646V36.67C110.646 37.066 110.736 37.12 111.222 37.12C111.456 37.12 112.626 37.12 112.932 37.12C113.238 37.12 113.346 37.102 113.382 36.994C113.706 37.156 114.282 37.282 114.678 37.336C114.57 37.912 114.138 38.11 113.148 38.11C112.806 38.11 111.33 38.11 110.988 38.11C109.386 38.11 108.99 37.822 108.99 36.652V34.168ZM105.012 30.064L105.804 29.272C106.596 29.686 107.604 30.316 108.126 30.784L107.298 31.648C106.794 31.198 105.804 30.514 105.012 30.064ZM108.45 25.312V26.536H102.582V31.63H108.594V32.854H100.98V25.312H108.45ZM123.192 29.11H134.712V30.73H123.192V29.11ZM123.012 31.774L124.11 30.82C124.758 31.216 125.604 31.828 126.036 32.242L124.866 33.304C124.47 32.872 123.66 32.224 123.012 31.774ZM130.536 38.524L132.174 37.714C133.092 38.524 134.208 39.676 134.748 40.486L132.984 41.404C132.534 40.612 131.454 39.388 130.536 38.524ZM126.396 35.482V36.184H131.04V35.482H126.396ZM126.396 33.61V34.294H131.04V33.61H126.396ZM124.596 32.35H132.93V37.444H124.596V32.35ZM124.488 37.66L126.432 38.2C125.784 39.406 124.704 40.63 123.678 41.386C123.336 41.026 122.562 40.414 122.094 40.144C123.048 39.532 123.966 38.596 124.488 37.66ZM133.434 30.694L134.676 31.594C134.1 32.17 133.38 32.692 132.84 33.034L131.76 32.206C132.282 31.828 133.02 31.126 133.434 30.694ZM130.77 29.794C131.616 31.36 133.29 32.818 135.144 33.502C134.73 33.862 134.172 34.546 133.902 35.014C131.904 34.096 130.176 32.314 129.168 30.298L130.77 29.794ZM127.674 36.796H129.762V39.766C129.762 40.648 129.6 41.098 128.934 41.368C128.304 41.638 127.494 41.656 126.396 41.656C126.288 41.116 125.982 40.396 125.73 39.91C126.396 39.946 127.152 39.928 127.386 39.928C127.602 39.928 127.674 39.874 127.674 39.694V36.796ZM127.35 27.886L129.348 28.138C128.466 30.892 126.774 33.394 123.516 35.104C123.246 34.636 122.652 33.988 122.22 33.7C125.226 32.278 126.774 30.064 127.35 27.886ZM121.626 26.158H134.874V27.976H121.626V26.158ZM120.6 26.158H122.58V31.972C122.58 34.87 122.184 39.082 119.898 41.62C119.592 41.206 118.8 40.45 118.386 40.18C120.42 37.912 120.6 34.546 120.6 31.972V26.158ZM126.252 24.718H128.538V27.256H126.252V24.718ZM118.026 28.444L119.556 27.814C120.078 28.948 120.546 30.424 120.654 31.342L118.998 32.098C118.908 31.144 118.494 29.614 118.026 28.444ZM117.846 34.69C118.692 34.33 119.862 33.736 121.104 33.106L121.59 34.744C120.564 35.392 119.484 36.04 118.458 36.634L117.846 34.69ZM140.22 30.532H149.256V32.422H140.22V30.532ZM140.004 39.082H149.292V40.972H140.004V39.082ZM139.05 34.222H150.516V41.656H148.302V36.13H141.174V41.656H139.05V34.222ZM144.648 26.86C143.172 28.966 140.4 31.342 137.43 32.926C137.142 32.422 136.548 31.63 136.08 31.18C139.194 29.668 142.092 26.95 143.424 24.736H145.674C147.636 27.508 150.534 29.794 153.432 30.964C152.892 31.504 152.388 32.242 152.01 32.908C149.238 31.45 146.214 29.002 144.648 26.86ZM162.756 27.652H171.396V29.704H161.748L162.756 27.652ZM165.132 31.612H170.928V33.574H165.132V31.612ZM165.114 35.59H171.162V37.606H165.114V35.59ZM164.034 28.336H166.248V41.62H164.034V28.336ZM163.17 24.88L165.258 25.438C164.25 28.354 162.63 31.342 160.974 33.214C160.632 32.818 159.804 32.044 159.336 31.702C160.92 30.082 162.342 27.49 163.17 24.88ZM158.418 24.79L160.506 25.456C159.336 28.516 157.446 31.81 155.466 33.862C155.268 33.322 154.656 32.098 154.278 31.558C155.934 29.92 157.5 27.364 158.418 24.79ZM156.6 29.758L158.76 27.58L158.778 27.598V41.602H156.6V29.758ZM172.872 33.754H181.116V35.662H172.872V33.754ZM175.914 34.726L177.336 35.446C176.418 37.462 174.906 39.856 173.304 41.098C173.106 40.486 172.656 39.55 172.332 38.974C173.718 38.002 175.212 36.202 175.914 34.726ZM177.84 35.626C178.56 36.04 180.864 37.732 181.404 38.182L180.126 39.946C179.424 39.028 177.75 37.354 176.85 36.544L177.84 35.626ZM184.014 24.736L185.994 25.078C185.058 26.932 183.708 28.66 181.62 30.064C181.314 29.632 180.684 29.002 180.234 28.732C182.124 27.616 183.366 26.104 184.014 24.736ZM184.338 25.96H187.596V27.616H183.168L184.338 25.96ZM187.056 25.96H187.434L187.812 25.906L189.162 26.41C188.046 30.478 185.4 32.638 181.944 33.844C181.71 33.376 181.224 32.71 180.846 32.35C183.798 31.468 186.21 29.38 187.056 26.284V25.96ZM182.286 28.912L183.726 27.868C184.482 28.354 185.472 29.128 185.958 29.686L184.428 30.838C183.996 30.298 183.06 29.47 182.286 28.912ZM184.626 31.918L186.642 32.278C185.616 34.24 184.068 35.968 181.656 37.336C181.386 36.868 180.774 36.202 180.36 35.896C182.538 34.834 183.924 33.322 184.626 31.918ZM184.41 33.376H187.992V35.104H183.168L184.41 33.376ZM187.506 33.376H187.902L188.28 33.304L189.63 33.79C188.442 38.29 185.508 40.54 181.494 41.674C181.26 41.134 180.774 40.324 180.396 39.91C183.924 39.118 186.606 37.084 187.506 33.682V33.376ZM182.34 36.526L183.834 35.41C184.644 35.986 185.652 36.832 186.156 37.462L184.572 38.668C184.14 38.056 183.15 37.138 182.34 36.526ZM175.122 29.848V30.946H179.136V29.848H175.122ZM175.122 27.166V28.246H179.136V27.166H175.122ZM173.358 25.456H180.972V32.656H173.358V25.456ZM176.238 26.23H177.912V31.702H178.074V41.62H176.058V31.702H176.238V26.23ZM200.736 24.952H202.914V41.62H200.736V24.952ZM196.704 30.406H207.018V32.404H196.704V30.406ZM195.984 34.834H207.756V36.832H195.984V34.834ZM196.65 26.284L198.468 25.618C199.098 26.788 199.746 28.354 199.962 29.38L198.018 30.154C197.838 29.146 197.244 27.526 196.65 26.284ZM205.164 25.474L207.378 26.248C206.712 27.616 205.992 29.092 205.416 30.064L203.652 29.38C204.192 28.318 204.84 26.68 205.164 25.474ZM194.832 24.754L196.848 25.402C195.624 28.462 193.644 31.684 191.592 33.718C191.412 33.214 190.836 32.026 190.476 31.504C192.186 29.884 193.86 27.328 194.832 24.754ZM193.104 29.74L195.138 27.688L195.156 27.706V41.566H193.104V29.74ZM216.288 30.766H226.044V32.908H216.288V30.766ZM220.086 24.79H222.282V41.62H220.086V24.79ZM209.844 30.244H215.658V31.864H209.844V30.244ZM209.952 25.276H215.694V26.914H209.952V25.276ZM209.844 32.692H215.658V34.33H209.844V32.692ZM208.962 27.706H216.378V29.416H208.962V27.706ZM210.834 35.194H215.604V40.666H210.834V38.956H213.714V36.904H210.834V35.194ZM209.79 35.194H211.662V41.386H209.79V35.194ZM234.54 35.086H236.538V38.668H234.54V35.086ZM227.394 39.73H243.846V41.134H227.394V39.73ZM227.484 27.526H243.756V28.696H227.484V27.526ZM227.412 32.854H243.882V34.204H227.412V32.854ZM228.708 31.09H242.64V32.242H228.708V31.09ZM229.374 25.78H241.938V30.478H229.266V29.326H239.76V26.932H229.374V25.78ZM234.414 24.7H236.61V33.52H234.414V24.7ZM231.588 37.444V38.11H239.742V37.444H231.588ZM231.588 35.824V36.454H239.742V35.824H231.588ZM229.464 34.762H241.956V39.154H229.464V34.762ZM246.348 36.238L245.646 27.31H248.418L247.716 36.238H246.348ZM245.772 40V37.498H248.292V40H245.772Z" fill="#0E1012"/>
<defs>
<clipPath id="clip0_1177_5061">
<rect width="24" height="24" fill="white" transform="translate(20 22)"/>
</clipPath>
</defs>
</svg>
