<svg width="67" height="56" viewBox="0 0 67 56" fill="none" xmlns="http://www.w3.org/2000/svg">
<path d="M39.372 10.106H45.662V11.806H39.372V10.106ZM35.19 19.524H49.878V21.19H35.19V19.524ZM36.176 6.196H40.936V7.845H36.176V6.196ZM40.29 6.196H40.63L40.987 6.111L42.313 6.774C41.055 10.106 38.369 12.537 35.513 13.914C35.241 13.489 34.697 12.792 34.289 12.435C36.822 11.364 39.355 9.052 40.29 6.536V6.196ZM44.166 5.618C45.339 8.389 47.719 10.854 50.677 11.976C50.201 12.384 49.606 13.149 49.3 13.676C46.172 12.248 43.843 9.528 42.432 6.162L44.166 5.618ZM35.36 9.256L36.448 8.134C37.213 8.559 38.148 9.222 38.59 9.732L37.451 10.973C37.009 10.463 36.091 9.732 35.36 9.256ZM46.784 5.72L48.314 6.808C47.379 7.607 46.274 8.44 45.424 8.984L44.2 8.032C45.016 7.454 46.138 6.468 46.784 5.72ZM48.705 7.709L50.201 8.763C49.232 9.613 48.059 10.497 47.158 11.058L45.934 10.106C46.818 9.494 48.008 8.491 48.705 7.709ZM39.525 14.407V15.903H45.339V14.407H39.525ZM37.536 12.775H47.447V17.518H37.536V12.775ZM38.522 17.739L40.392 17.263C40.834 17.875 41.208 18.742 41.361 19.32L39.406 19.881C39.287 19.303 38.913 18.402 38.522 17.739ZM44.591 17.246L46.563 17.671C46.138 18.504 45.747 19.269 45.407 19.813L43.622 19.405C43.962 18.81 44.387 17.892 44.591 17.246ZM36.703 46.538H48.331V48.544H36.703V46.538ZM41.327 33.737H43.452V47.762H41.327V33.737ZM35.7 42.288H37.774V49.53H35.7V42.288ZM47.243 42.288H49.368V49.513H47.243V42.288ZM36.38 35.165H38.42V39.398H46.529V35.165H48.688V41.37H36.38V35.165Z" fill="#BECADA"/>
<path d="M9 39H5C4.46957 39 3.96086 38.7893 3.58579 38.4142C3.21071 38.0391 3 37.5304 3 37V23C3 22.4696 3.21071 21.9609 3.58579 21.5858C3.96086 21.2107 4.46957 21 5 21H9" stroke="#BECADA" stroke-width="2" stroke-linecap="round" stroke-linejoin="round"/>
<path d="M16 35L21 30L16 25" stroke="#BECADA" stroke-width="2" stroke-linecap="round" stroke-linejoin="round"/>
<path d="M21 30H9" stroke="#BECADA" stroke-width="2" stroke-linecap="round" stroke-linejoin="round"/>
</svg>
