<svg width="335" height="68" viewBox="0 0 335 68" fill="none" xmlns="http://www.w3.org/2000/svg">
<path fill-rule="evenodd" clip-rule="evenodd" d="M0 12C0 5.37258 5.37258 0 12 0H323C329.627 0 335 5.37258 335 12V56C335 62.6274 329.627 68 323 68H12C5.37259 68 0 62.6274 0 56V12Z" fill="white"/>
<g clip-path="url(#clip0_793_4035)">
<path d="M33 37C34.6569 37 36 35.6569 36 34C36 32.3431 34.6569 31 33 31C31.3431 31 30 32.3431 30 34C30 35.6569 31.3431 37 33 37Z" stroke="#4A545E" stroke-width="2" stroke-linecap="round" stroke-linejoin="round"/>
<path d="M40.4 37C40.2669 37.3016 40.2272 37.6362 40.286 37.9606C40.3448 38.285 40.4995 38.5843 40.73 38.82L40.79 38.88C40.976 39.0657 41.1235 39.2863 41.2241 39.5291C41.3248 39.7719 41.3766 40.0322 41.3766 40.295C41.3766 40.5578 41.3248 40.8181 41.2241 41.0609C41.1235 41.3037 40.976 41.5243 40.79 41.71C40.6043 41.896 40.3837 42.0435 40.1409 42.1441C39.8981 42.2448 39.6378 42.2966 39.375 42.2966C39.1122 42.2966 38.8519 42.2448 38.6091 42.1441C38.3663 42.0435 38.1457 41.896 37.96 41.71L37.9 41.65C37.6643 41.4195 37.365 41.2648 37.0406 41.206C36.7162 41.1472 36.3816 41.1869 36.08 41.32C35.7842 41.4468 35.532 41.6572 35.3543 41.9255C35.1766 42.1938 35.0813 42.5082 35.08 42.83V43C35.08 43.5304 34.8693 44.0391 34.4942 44.4142C34.1191 44.7893 33.6104 45 33.08 45C32.5496 45 32.0409 44.7893 31.6658 44.4142C31.2907 44.0391 31.08 43.5304 31.08 43V42.91C31.0723 42.579 30.9651 42.258 30.7725 41.9887C30.5799 41.7194 30.3107 41.5143 30 41.4C29.6984 41.2669 29.3638 41.2272 29.0394 41.286C28.715 41.3448 28.4157 41.4995 28.18 41.73L28.12 41.79C27.9343 41.976 27.7137 42.1235 27.4709 42.2241C27.2281 42.3248 26.9678 42.3766 26.705 42.3766C26.4422 42.3766 26.1819 42.3248 25.9391 42.2241C25.6963 42.1235 25.4757 41.976 25.29 41.79C25.104 41.6043 24.9565 41.3837 24.8559 41.1409C24.7552 40.8981 24.7034 40.6378 24.7034 40.375C24.7034 40.1122 24.7552 39.8519 24.8559 39.6091C24.9565 39.3663 25.104 39.1457 25.29 38.96L25.35 38.9C25.5805 38.6643 25.7352 38.365 25.794 38.0406C25.8528 37.7162 25.8131 37.3816 25.68 37.08C25.5532 36.7842 25.3428 36.532 25.0745 36.3543C24.8062 36.1766 24.4918 36.0813 24.17 36.08H24C23.4696 36.08 22.9609 35.8693 22.5858 35.4942C22.2107 35.1191 22 34.6104 22 34.08C22 33.5496 22.2107 33.0409 22.5858 32.6658C22.9609 32.2907 23.4696 32.08 24 32.08H24.09C24.421 32.0723 24.742 31.9651 25.0113 31.7725C25.2806 31.5799 25.4857 31.3107 25.6 31C25.7331 30.6984 25.7728 30.3638 25.714 30.0394C25.6552 29.715 25.5005 29.4157 25.27 29.18L25.21 29.12C25.024 28.9343 24.8765 28.7137 24.7759 28.4709C24.6752 28.2281 24.6234 27.9678 24.6234 27.705C24.6234 27.4422 24.6752 27.1819 24.7759 26.9391C24.8765 26.6963 25.024 26.4757 25.21 26.29C25.3957 26.104 25.6163 25.9565 25.8591 25.8559C26.1019 25.7552 26.3622 25.7034 26.625 25.7034C26.8878 25.7034 27.1481 25.7552 27.3909 25.8559C27.6337 25.9565 27.8543 26.104 28.04 26.29L28.1 26.35C28.3357 26.5805 28.635 26.7352 28.9594 26.794C29.2838 26.8528 29.6184 26.8131 29.92 26.68H30C30.2958 26.5532 30.548 26.3428 30.7257 26.0745C30.9034 25.8062 30.9987 25.4918 31 25.17V25C31 24.4696 31.2107 23.9609 31.5858 23.5858C31.9609 23.2107 32.4696 23 33 23C33.5304 23 34.0391 23.2107 34.4142 23.5858C34.7893 23.9609 35 24.4696 35 25V25.09C35.0013 25.4118 35.0966 25.7262 35.2743 25.9945C35.452 26.2628 35.7042 26.4732 36 26.6C36.3016 26.7331 36.6362 26.7728 36.9606 26.714C37.285 26.6552 37.5843 26.5005 37.82 26.27L37.88 26.21C38.0657 26.024 38.2863 25.8765 38.5291 25.7759C38.7719 25.6752 39.0322 25.6234 39.295 25.6234C39.5578 25.6234 39.8181 25.6752 40.0609 25.7759C40.3037 25.8765 40.5243 26.024 40.71 26.21C40.896 26.3957 41.0435 26.6163 41.1441 26.8591C41.2448 27.1019 41.2966 27.3622 41.2966 27.625C41.2966 27.8878 41.2448 28.1481 41.1441 28.3909C41.0435 28.6337 40.896 28.8543 40.71 29.04L40.65 29.1C40.4195 29.3357 40.2648 29.635 40.206 29.9594C40.1472 30.2838 40.1869 30.6184 40.32 30.92V31C40.4468 31.2958 40.6572 31.548 40.9255 31.7257C41.1938 31.9034 41.5082 31.9987 41.83 32H42C42.5304 32 43.0391 32.2107 43.4142 32.5858C43.7893 32.9609 44 33.4696 44 34C44 34.5304 43.7893 35.0391 43.4142 35.4142C43.0391 35.7893 42.5304 36 42 36H41.91C41.5882 36.0013 41.2738 36.0966 41.0055 36.2743C40.7372 36.452 40.5268 36.7042 40.4 37V37Z" stroke="#4A545E" stroke-width="2" stroke-linecap="round" stroke-linejoin="round"/>
</g>
<path d="M66.222 24.718H68.04V41.62H66.222V24.718ZM63.882 28.03H69.624V29.938H65.448V37.876H63.882V28.03ZM68.85 28.03H70.398V35.752C70.398 36.4 70.326 36.976 69.948 37.3C69.552 37.624 69.138 37.678 68.526 37.678C68.508 37.156 68.274 36.346 68.04 35.86C68.346 35.878 68.598 35.878 68.724 35.878C68.814 35.86 68.85 35.824 68.85 35.68V28.03ZM72.396 25.384H79.632V27.112H72.396V25.384ZM72.414 27.922H79.074V29.524H72.414V27.922ZM72.414 30.352H79.074V31.936H72.414V30.352ZM70.578 32.782H80.28V34.564H70.578V32.782ZM69.984 39.55C71.568 39.352 73.926 38.992 76.194 38.632L76.338 40.414C74.268 40.792 72.09 41.152 70.416 41.458L69.984 39.55ZM76.212 33.394C76.806 36.382 78.102 38.758 80.712 39.766C80.244 40.18 79.614 41.062 79.326 41.638C76.446 40.252 75.168 37.444 74.466 33.646L76.212 33.394ZM79.074 34.69L80.478 35.986C79.542 36.814 78.3 37.696 77.4 38.254L76.212 37.048C77.076 36.472 78.354 35.464 79.074 34.69ZM71.604 25.384H73.602V33.664H71.604V25.384ZM71.568 33.7H73.566V39.766L71.568 40.018V33.7ZM85.392 34.132H95.256V36.13H85.392V34.132ZM85.59 29.488H96.534V37.03H94.356V31.486H85.59V29.488ZM94.428 24.736L96.156 26.338C93.15 27.292 88.992 27.958 85.428 28.354C85.338 27.868 85.068 27.076 84.816 26.626C88.272 26.23 92.124 25.528 94.428 24.736ZM84.204 26.122L86.886 26.86C86.868 27.04 86.724 27.13 86.4 27.202V31.414C86.4 34.258 86.04 38.722 83.484 41.638C83.16 41.152 82.296 40.414 81.756 40.162C83.988 37.588 84.204 34.024 84.204 31.378V26.122ZM105.84 27.886C107.262 33.898 110.394 38.056 116.982 39.514C116.478 39.982 115.794 40.972 115.47 41.62C108.576 39.802 105.606 35.266 103.896 28.318L105.84 27.886ZM100.872 25.618H110.538V27.724H100.872V25.618ZM113.598 29.902H114.012L114.39 29.812L115.884 30.406C114.48 36.67 110.736 39.946 105.624 41.62C105.354 41.044 104.814 40.162 104.364 39.694C108.972 38.47 112.482 35.356 113.598 30.298V29.902ZM110.052 25.618H110.322L110.7 25.528L112.374 25.798C111.978 27.94 111.366 30.568 110.808 32.71L108.54 32.386C109.134 30.226 109.764 27.4 110.052 25.852V25.618ZM110.412 29.902H114.048V31.936H109.998L110.412 29.902ZM103.752 26.194H105.966V28.948C105.966 32.458 105.498 37.696 101.358 41.332C101.034 40.774 100.278 39.874 99.792 39.478C103.374 36.418 103.752 31.882 103.752 28.948V26.194ZM123.642 25.636H134.46V41.458H132.408V27.508H125.604V41.602H123.642V25.636ZM126.072 29.722H131.994V31.288H126.072V29.722ZM124.65 38.668H133.398V40.558H124.65V38.668ZM128.142 27.886H129.816V33.664H128.142V27.886ZM128.088 34.348V36.22H129.924V34.348H128.088ZM126.54 32.854H131.562V37.714H126.54V32.854ZM121.41 24.772L123.39 25.366C122.346 28.48 120.618 31.81 118.746 33.934C118.584 33.412 118.044 32.152 117.702 31.594C119.214 29.938 120.6 27.346 121.41 24.772ZM119.934 29.704L121.968 27.67L121.986 27.688V41.638H119.934V29.704ZM143.208 25.15H145.674C145.512 28.174 145.278 36.958 137.916 41.476C137.538 40.918 136.836 40.252 136.098 39.748C143.334 35.734 143.082 27.508 143.208 25.15ZM145.602 25.618C145.656 27.184 146.034 36.166 153.414 39.622C152.73 40.144 152.082 40.864 151.758 41.458C144 37.606 143.658 27.688 143.514 25.834L145.602 25.618ZM155.322 26.446L156.258 24.988C157.464 25.276 159.174 25.852 160.074 26.284L159.102 27.922C158.274 27.472 156.564 26.824 155.322 26.446ZM154.53 29.506C155.862 29.254 157.806 28.786 159.714 28.354L159.912 30.046C158.346 30.514 156.69 31 155.34 31.378L154.53 29.506ZM162.504 25.924H169.416V27.436H161.298L162.504 25.924ZM168.912 25.924H169.218L169.542 25.852L170.964 26.212C170.496 27.202 169.848 28.282 169.254 28.948L167.58 28.444C168.066 27.868 168.606 26.932 168.912 26.158V25.924ZM164.34 26.554H166.284C165.924 29.128 164.916 30.676 160.884 31.486C160.704 31.054 160.254 30.334 159.894 29.956C163.368 29.416 164.07 28.372 164.34 26.554ZM166.158 27.022C166.464 28.354 167.256 29.524 171.342 29.992C170.946 30.424 170.478 31.234 170.28 31.774C165.78 31.054 164.898 29.092 164.43 27.184L166.158 27.022ZM162.45 24.718L164.34 25.024C163.638 26.464 162.756 27.778 161.388 28.894C161.01 28.516 160.272 28.066 159.768 27.868C161.082 26.968 161.964 25.762 162.45 24.718ZM159.066 34.51V35.284H166.896V34.51H159.066ZM159.066 36.508V37.3H166.896V36.508H159.066ZM159.066 32.53V33.286H166.896V32.53H159.066ZM156.978 31.234H169.074V38.578H156.978V31.234ZM163.908 39.514L165.708 38.488C167.598 39.172 169.83 40.072 171.108 40.702L168.588 41.674C167.58 41.062 165.726 40.198 163.908 39.514ZM159.912 38.434L161.892 39.316C160.416 40.27 158.076 41.17 156.24 41.692C155.862 41.26 155.124 40.468 154.638 40.108C156.546 39.748 158.688 39.118 159.912 38.434ZM175.482 24.808H177.48V41.584H175.482V24.808ZM172.764 30.712H180.144V32.728H172.764V30.712ZM175.104 31.792L176.292 32.368C175.716 34.78 174.6 37.912 173.412 39.64C173.214 38.974 172.746 38.02 172.422 37.408C173.502 36.076 174.6 33.574 175.104 31.792ZM177.444 32.836C177.966 33.304 179.712 35.392 180.108 35.896L178.776 37.588C178.308 36.562 177.102 34.564 176.454 33.682L177.444 32.836ZM172.728 26.194L174.24 25.798C174.708 27.112 175.068 28.822 175.158 29.956L173.538 30.388C173.502 29.254 173.16 27.508 172.728 26.194ZM178.668 25.708L180.486 26.104C180.018 27.562 179.478 29.272 179.028 30.334L177.678 29.956C178.038 28.804 178.47 26.986 178.668 25.708ZM185.472 24.7H187.506V41.602H185.472V24.7ZM180.09 35.968L189.342 34.312L189.666 36.31L180.432 37.984L180.09 35.968ZM181.116 27.166L182.178 25.69C183.186 26.302 184.464 27.202 185.058 27.868L183.924 29.506C183.384 28.804 182.124 27.814 181.116 27.166ZM180.306 31.702L181.314 30.154C182.358 30.712 183.708 31.576 184.356 32.242L183.276 33.952C182.664 33.286 181.35 32.314 180.306 31.702ZM198.972 25.24H201.024V27.436C201.024 29.128 200.646 31.216 198.756 32.512C198.45 32.116 197.586 31.396 197.154 31.126C198.792 30.046 198.972 28.606 198.972 27.382V25.24ZM203.022 25.24H205.056V29.272C205.056 29.776 205.074 29.83 205.272 29.83C205.362 29.83 205.632 29.83 205.74 29.83C205.956 29.83 206.028 29.596 206.064 28.03C206.442 28.336 207.288 28.66 207.828 28.786C207.648 31.036 207.144 31.666 205.956 31.666C205.668 31.666 205.182 31.666 204.894 31.666C203.454 31.666 203.022 31.108 203.022 29.308V25.24ZM200.682 34.42C201.906 36.976 204.48 38.92 207.864 39.748C207.378 40.18 206.748 41.062 206.46 41.602C202.86 40.54 200.322 38.254 198.774 35.032L200.682 34.42ZM204.714 32.476H205.11L205.488 32.404L206.892 32.908C205.65 37.732 202.536 40.324 198.324 41.602C198.108 41.062 197.568 40.162 197.172 39.712C200.916 38.794 203.778 36.454 204.714 32.8V32.476ZM198.108 32.476H205.56V34.42H198.108V32.476ZM199.8 25.24H204.12V27.13H199.8V25.24ZM191.664 30.244H197.226V31.864H191.664V30.244ZM191.718 25.276H197.19V26.914H191.718V25.276ZM191.664 32.692H197.226V34.33H191.664V32.692ZM190.782 27.706H197.874V29.416H190.782V27.706ZM192.654 35.194H197.208V40.666H192.654V38.956H195.354V36.904H192.654V35.194ZM191.61 35.194H193.428V41.386H191.61V35.194ZM212.454 30.154H222.408V32.206H212.454V30.154ZM217.422 34.474H223.506V36.49H217.422V34.474ZM216.288 31.342H218.556V40.036L216.288 39.766V31.342ZM211.986 33.214L214.254 33.448C213.786 37.102 212.67 39.964 210.618 41.728C210.258 41.35 209.34 40.576 208.836 40.252C210.78 38.812 211.68 36.31 211.986 33.214ZM213.732 35.464C214.884 38.776 217.404 39.28 220.608 39.28C221.562 39.28 224.568 39.28 225.774 39.244C225.468 39.748 225.108 40.792 225.018 41.44H220.482C216.324 41.44 213.516 40.594 211.968 36.058L213.732 35.464ZM216.252 24.736H218.556V28.03H216.252V24.736ZM209.7 26.554H225.18V31.072H222.948V28.606H211.824V31.072H209.7V26.554Z" fill="#0E1012"/>
<defs>
<clipPath id="clip0_793_4035">
<rect width="24" height="24" fill="white" transform="translate(21 22)"/>
</clipPath>
</defs>
</svg>
