<svg width="335" height="68" viewBox="0 0 335 68" fill="none" xmlns="http://www.w3.org/2000/svg">
<path fill-rule="evenodd" clip-rule="evenodd" d="M0 12C0 5.37258 5.37258 0 12 0H323C329.627 0 335 5.37258 335 12V56C335 62.6274 329.627 68 323 68H12C5.37259 68 0 62.6274 0 56V12Z" fill="white"/>
<path d="M32 44C37.5228 44 42 39.5228 42 34C42 28.4772 37.5228 24 32 24C26.4772 24 22 28.4772 22 34C22 39.5228 26.4772 44 32 44Z" stroke="#4A545E" stroke-width="2" stroke-linecap="round" stroke-linejoin="round"/>
<path d="M36.2398 29.7598L34.1198 36.1198L27.7598 38.2398L29.8798 31.8798L36.2398 29.7598Z" stroke="#4A545E" stroke-width="2" stroke-linecap="round" stroke-linejoin="round"/>
<path d="M75.672 26.32L77.292 25.204C78.282 26.05 79.452 27.256 79.992 28.102L78.246 29.326C77.778 28.462 76.644 27.202 75.672 26.32ZM63.882 29.83H80.136V31.882H63.882V29.83ZM63.54 34.924C65.718 34.6 69.138 34.006 72.288 33.43L72.45 35.392C69.534 36.004 66.402 36.634 64.08 37.102L63.54 34.924ZM67.302 26.932H69.48V39.1C69.48 40.27 69.246 40.864 68.508 41.206C67.788 41.548 66.726 41.62 65.25 41.62C65.16 41.008 64.8 40.036 64.476 39.424C65.502 39.478 66.546 39.478 66.87 39.46C67.194 39.46 67.302 39.37 67.302 39.064V26.932ZM70.992 24.826L72.45 26.662C70.11 27.382 67.032 27.868 64.422 28.156C64.314 27.652 64.044 26.842 63.792 26.356C66.33 26.014 69.138 25.456 70.992 24.826ZM72.756 24.862H75.024C74.898 32.116 76.518 39.496 78.156 39.496C78.534 39.496 78.732 38.614 78.84 36.472C79.29 36.976 80.028 37.48 80.604 37.714C80.262 40.9 79.578 41.692 77.94 41.692C74.214 41.692 72.81 32.944 72.756 24.862ZM77.652 32.476L79.56 33.286C77.688 36.634 74.754 39.316 71.496 41.044C71.172 40.504 70.578 39.784 70.038 39.298C73.116 37.894 76.05 35.446 77.652 32.476ZM82.224 32.404H98.172V34.312H82.224V32.404ZM90.288 35.662H97.02V37.516H90.288V35.662ZM89.28 33.376H91.458V40.036H89.28V33.376ZM86.49 36.256C87.48 38.884 89.766 39.298 92.916 39.316C93.906 39.334 97.38 39.316 98.676 39.28C98.37 39.748 98.046 40.702 97.938 41.332H92.79C88.65 41.332 86.184 40.594 84.708 36.832L86.49 36.256ZM84.924 34.69L87.084 34.996C86.49 37.966 85.194 40.234 83.196 41.656C82.872 41.26 82.044 40.468 81.576 40.144C83.412 39.01 84.51 37.102 84.924 34.69ZM85.986 29.182V30.082H94.248V29.182H85.986ZM85.986 26.86V27.76H94.248V26.86H85.986ZM83.898 25.33H96.444V31.612H83.898V25.33ZM103.104 40.144H113.67V41.278H103.104V40.144ZM103.104 38.596H113.67V39.658H103.104V38.596ZM100.53 33.394H116.334V34.762H100.53V33.394ZM101.412 35.338H115.434V41.62H113.4V36.454H103.356V41.62H101.412V35.338ZM103.824 26.356L105.048 26.644C104.778 27.4 104.274 28.174 103.752 28.696C103.518 28.516 102.996 28.192 102.69 28.048C103.212 27.58 103.59 26.968 103.824 26.356ZM109.044 28.552H114.228V29.776H109.044V28.552ZM103.878 27.148H107.874V28.12H103.878V27.148ZM102.834 28.66H108.18V29.686H102.834V28.66ZM110.322 25.15H113.526V26.59H110.322V25.15ZM113.85 28.552H114.174L114.48 28.516L115.506 28.858C114.534 31.45 112.23 32.656 109.368 33.25C109.206 32.872 108.846 32.278 108.558 31.954C111.024 31.576 113.112 30.568 113.85 28.75V28.552ZM111.024 29.65C111.942 30.982 113.976 31.72 116.622 31.954C116.244 32.296 115.776 32.998 115.56 33.466C112.626 33.052 110.574 31.954 109.422 30.046L111.024 29.65ZM109.548 25.15H111.186V26.14C111.186 27.202 110.79 28.282 109.116 29.02C108.918 28.66 108.288 27.976 107.982 27.742C109.35 27.256 109.548 26.698 109.548 26.068V25.15ZM112.752 25.15H114.408V26.518C114.408 26.752 114.39 26.878 114.444 26.932C114.48 26.986 114.534 27.004 114.606 27.004C114.678 27.004 114.804 27.004 114.894 27.004C114.966 27.004 115.056 27.004 115.092 26.968C115.146 26.95 115.2 26.914 115.236 26.788C115.272 26.68 115.29 26.428 115.308 26.122C115.596 26.374 116.136 26.644 116.55 26.77C116.496 27.202 116.424 27.634 116.298 27.814C116.19 28.012 115.992 28.156 115.74 28.264C115.542 28.354 115.218 28.372 114.966 28.372C114.75 28.372 114.408 28.372 114.192 28.372C113.814 28.372 113.346 28.264 113.112 27.994C112.86 27.742 112.752 27.418 112.752 26.518V25.15ZM104.922 27.616H106.254V28.84C106.254 29.776 105.84 30.964 103.662 31.72C103.482 31.414 103.104 31 102.798 30.748C104.67 30.298 104.922 29.434 104.922 28.804V27.616ZM105.876 34.186H107.514V35.824C107.514 37.012 106.884 38.128 104.382 38.794C104.166 38.434 103.734 37.912 103.374 37.624C105.516 37.264 105.876 36.49 105.876 35.806V34.186ZM108.99 34.168H110.646V36.67C110.646 37.066 110.736 37.12 111.222 37.12C111.456 37.12 112.626 37.12 112.932 37.12C113.238 37.12 113.346 37.102 113.382 36.994C113.706 37.156 114.282 37.282 114.678 37.336C114.57 37.912 114.138 38.11 113.148 38.11C112.806 38.11 111.33 38.11 110.988 38.11C109.386 38.11 108.99 37.822 108.99 36.652V34.168ZM105.012 30.064L105.804 29.272C106.596 29.686 107.604 30.316 108.126 30.784L107.298 31.648C106.794 31.198 105.804 30.514 105.012 30.064ZM108.45 25.312V26.536H102.582V31.63H108.594V32.854H100.98V25.312H108.45ZM123.192 29.11H134.712V30.73H123.192V29.11ZM123.012 31.774L124.11 30.82C124.758 31.216 125.604 31.828 126.036 32.242L124.866 33.304C124.47 32.872 123.66 32.224 123.012 31.774ZM130.536 38.524L132.174 37.714C133.092 38.524 134.208 39.676 134.748 40.486L132.984 41.404C132.534 40.612 131.454 39.388 130.536 38.524ZM126.396 35.482V36.184H131.04V35.482H126.396ZM126.396 33.61V34.294H131.04V33.61H126.396ZM124.596 32.35H132.93V37.444H124.596V32.35ZM124.488 37.66L126.432 38.2C125.784 39.406 124.704 40.63 123.678 41.386C123.336 41.026 122.562 40.414 122.094 40.144C123.048 39.532 123.966 38.596 124.488 37.66ZM133.434 30.694L134.676 31.594C134.1 32.17 133.38 32.692 132.84 33.034L131.76 32.206C132.282 31.828 133.02 31.126 133.434 30.694ZM130.77 29.794C131.616 31.36 133.29 32.818 135.144 33.502C134.73 33.862 134.172 34.546 133.902 35.014C131.904 34.096 130.176 32.314 129.168 30.298L130.77 29.794ZM127.674 36.796H129.762V39.766C129.762 40.648 129.6 41.098 128.934 41.368C128.304 41.638 127.494 41.656 126.396 41.656C126.288 41.116 125.982 40.396 125.73 39.91C126.396 39.946 127.152 39.928 127.386 39.928C127.602 39.928 127.674 39.874 127.674 39.694V36.796ZM127.35 27.886L129.348 28.138C128.466 30.892 126.774 33.394 123.516 35.104C123.246 34.636 122.652 33.988 122.22 33.7C125.226 32.278 126.774 30.064 127.35 27.886ZM121.626 26.158H134.874V27.976H121.626V26.158ZM120.6 26.158H122.58V31.972C122.58 34.87 122.184 39.082 119.898 41.62C119.592 41.206 118.8 40.45 118.386 40.18C120.42 37.912 120.6 34.546 120.6 31.972V26.158ZM126.252 24.718H128.538V27.256H126.252V24.718ZM118.026 28.444L119.556 27.814C120.078 28.948 120.546 30.424 120.654 31.342L118.998 32.098C118.908 31.144 118.494 29.614 118.026 28.444ZM117.846 34.69C118.692 34.33 119.862 33.736 121.104 33.106L121.59 34.744C120.564 35.392 119.484 36.04 118.458 36.634L117.846 34.69ZM143.208 25.15H145.674C145.512 28.174 145.278 36.958 137.916 41.476C137.538 40.918 136.836 40.252 136.098 39.748C143.334 35.734 143.082 27.508 143.208 25.15ZM145.602 25.618C145.656 27.184 146.034 36.166 153.414 39.622C152.73 40.144 152.082 40.864 151.758 41.458C144 37.606 143.658 27.688 143.514 25.834L145.602 25.618ZM159.264 26.968V28.12H166.572V26.968H159.264ZM157.104 25.294H168.876V29.812H157.104V25.294ZM158.436 34.096V34.852H167.274V34.096H158.436ZM158.436 36.238V37.012H167.274V36.238H158.436ZM158.436 31.954V32.71H167.274V31.954H158.436ZM156.276 30.478H169.524V38.47H156.276V30.478ZM159.768 38.11L161.694 39.46C160.254 40.306 157.914 41.188 156.078 41.62C155.682 41.17 154.962 40.486 154.44 40.072C156.33 39.658 158.634 38.812 159.768 38.11ZM163.728 39.568L165.618 38.2C167.526 38.704 169.938 39.55 171.432 40.126L169.542 41.656C168.138 41.008 165.654 40.108 163.728 39.568Z" fill="#0E1012"/>
</svg>
