<svg width="34" height="41" viewBox="0 0 34 41" fill="none" xmlns="http://www.w3.org/2000/svg">
<path d="M0.739258 0.424805H33.7827V40.6965H0.739258V0.424805Z" fill="white" fill-opacity="0.01"/>
<path d="M28.2759 12.1709H6.24693C5.48654 12.1709 4.87012 12.9222 4.87012 13.8489V32.3067C4.87012 33.2335 5.48654 33.9847 6.24693 33.9847H28.2759C29.0363 33.9847 29.6527 33.2335 29.6527 32.3067V13.8489C29.6527 12.9222 29.0363 12.1709 28.2759 12.1709Z" stroke="white" stroke-width="2" stroke-linecap="round" stroke-linejoin="round"/>
<path d="M7.62402 12.1707L9.11559 7.13672H14.3933L15.8849 12.1707H7.62402Z" stroke="white" stroke-width="2" stroke-linecap="round" stroke-linejoin="round"/>
<path d="M20.7036 28.951C23.365 28.951 25.5225 26.3216 25.5225 23.078C25.5225 19.8345 23.365 17.2051 20.7036 17.2051C18.0422 17.2051 15.8848 19.8345 15.8848 23.078C15.8848 26.3216 18.0422 28.951 20.7036 28.951Z" stroke="white" stroke-width="2" stroke-linecap="round" stroke-linejoin="round"/>
<path d="M25.5225 8.81445V12.1704" stroke="white" stroke-width="2" stroke-linecap="round"/>
</svg>
