<svg width="30" height="37" viewBox="0 0 30 37" fill="none" xmlns="http://www.w3.org/2000/svg">
<path d="M0 0.604492H29.5652V36.6371H0V0.604492Z" fill="white" fill-opacity="0.01"/>
<path d="M23.4059 23.124H6.15952C4.11847 23.124 2.46387 25.1406 2.46387 27.6281C2.46387 30.1156 4.11847 32.1322 6.15952 32.1322H23.4059C25.4469 32.1322 27.1015 30.1156 27.1015 27.6281C27.1015 25.1406 25.4469 23.124 23.4059 23.124Z" stroke="white" stroke-width="2" stroke-linecap="round" stroke-linejoin="round"/>
<path d="M22.1746 17.1193C24.896 17.1193 27.1021 14.4305 27.1021 11.1138C27.1021 7.79712 24.896 5.1084 22.1746 5.1084C19.4532 5.1084 17.2471 7.79712 17.2471 11.1138C17.2471 14.4305 19.4532 17.1193 22.1746 17.1193Z" stroke="white" stroke-width="2" stroke-linecap="round" stroke-linejoin="round"/>
<path d="M2.46387 11.1135L8.00735 4.35742L13.5508 11.1135L8.00735 17.8697L2.46387 11.1135Z" stroke="white" stroke-width="2" stroke-linecap="round" stroke-linejoin="round"/>
</svg>
